<svg width="16" height="16" viewBox="0 0 519 662" fill="none" xmlns="http://www.w3.org/2000/svg">
<path d="M179.911 243.089C189.72 209.789 208.893 182.483 237.429 161.171C266.411 139.415 301.635 128.537 343.102 128.537C377.434 128.537 407.977 136.085 434.729 151.181C461.482 165.833 482.215 187.145 496.929 215.117C511.643 242.645 519 275.278 519 313.018C519 350.758 511.643 383.614 496.929 411.586C482.215 439.113 461.482 460.425 434.729 475.521C407.977 490.173 377.434 497.499 343.102 497.499C301.635 497.499 266.411 486.843 237.429 465.531C208.893 443.775 189.72 416.247 179.911 382.948V662H167.204V133.199H179.911V243.089ZM505.624 313.018C505.624 277.498 498.936 246.862 485.559 221.111C472.183 194.915 453.233 174.935 428.71 161.171C404.633 147.407 376.097 140.525 343.102 140.525C311.891 140.525 283.8 147.851 258.831 162.503C234.308 176.711 214.912 196.913 200.644 223.109C186.822 248.86 179.911 278.83 179.911 313.018C179.911 347.206 186.822 377.398 200.644 403.594C214.912 429.345 234.308 449.547 258.831 464.199C283.8 478.407 311.891 485.511 343.102 485.511C376.097 485.511 404.633 478.629 428.71 464.865C453.233 451.101 472.183 431.343 485.559 405.592C498.936 379.396 505.624 348.538 505.624 313.018Z" fill="black"/>
<path d="M46.1482 209.789C58.1869 184.481 76.6907 163.835 101.66 147.851C127.075 131.867 156.948 123.875 191.281 123.875C224.722 123.875 254.595 131.645 280.902 147.185C307.209 162.281 327.719 184.037 342.433 212.453C357.593 240.425 365.173 273.058 365.173 310.354C365.173 347.65 357.593 380.506 342.433 408.922C327.719 437.337 306.986 459.315 280.233 474.855C253.927 490.395 224.276 498.165 191.281 498.165C156.503 498.165 126.406 490.395 100.991 474.855C76.0219 458.871 57.741 438.225 46.1482 412.918V492.837H0V0H46.1482V209.789ZM317.687 310.354C317.687 280.162 311.668 254.188 299.629 232.433C288.036 210.233 271.985 193.361 251.474 181.817C230.964 170.273 207.778 164.501 181.918 164.501C156.948 164.501 133.986 170.495 113.03 182.483C92.5193 194.471 76.2449 211.565 64.2062 233.765C52.1675 255.964 46.1482 281.716 46.1482 311.02C46.1482 340.324 52.1675 366.076 64.2062 388.276C76.2449 410.476 92.5193 427.569 113.03 439.557C133.986 451.545 156.948 457.539 181.918 457.539C207.778 457.539 230.964 451.767 251.474 440.223C271.985 428.235 288.036 411.142 299.629 388.942C311.668 366.298 317.687 340.102 317.687 310.354Z" fill="#1A7FBF"/>
</svg>
