<svg width="608" height="353" viewBox="0 0 608 353" fill="none" xmlns="http://www.w3.org/2000/svg">
<rect width="608" height="353" rx="20" fill="#1A7FBF"/>
<path d="M30.6919 43.3266C31.2989 41.4767 32.3671 39.9675 33.8966 38.7992C35.4262 37.6308 37.3199 37.0467 39.5777 37.0467C41.4471 37.0467 43.1102 37.4604 44.5669 38.288C46.0236 39.0913 47.1525 40.2596 47.9537 41.7931C48.7548 43.3022 49.1554 45.0913 49.1554 47.1602C49.1554 49.2292 48.7548 51.0304 47.9537 52.5639C47.1525 54.073 46.0236 55.2414 44.5669 56.069C43.1102 56.8722 41.4471 57.2738 39.5777 57.2738C37.3199 57.2738 35.414 56.6897 33.8602 55.5213C32.3064 54.3529 31.2503 52.8438 30.6919 50.9939V57.0183H30V30H30.6919V43.3266ZM48.4271 47.1602C48.4271 45.213 48.0629 43.5335 47.3346 42.1217C46.6062 40.6856 45.5744 39.5903 44.2391 38.8357C42.9281 38.0811 41.3743 37.7039 39.5777 37.7039C37.8782 37.7039 36.3487 38.1055 34.9892 38.9087C33.6539 39.6876 32.5978 40.7951 31.8209 42.2312C31.0682 43.643 30.6919 45.286 30.6919 47.1602C30.6919 49.0345 31.0682 50.6897 31.8209 52.1258C32.5978 53.5375 33.6539 54.645 34.9892 55.4483C36.3487 56.2272 37.8782 56.6166 39.5777 56.6166C41.3743 56.6166 42.9281 56.2393 44.2391 55.4848C45.5744 54.7302 46.6062 53.6471 47.3346 52.2353C48.0629 50.7992 48.4271 49.1075 48.4271 47.1602Z" fill="black"/>
<path d="M55.1606 30V57.0183H54.4322V30H55.1606Z" fill="black"/>
<path d="M77.5364 37.3022V57.0183H76.808V51.6511C76.371 53.5254 75.4484 54.9493 74.0403 55.9229C72.6565 56.8965 71.0055 57.3834 69.0876 57.3834C66.7812 57.3834 64.8875 56.6653 63.4065 55.2292C61.9255 53.7931 61.185 51.6268 61.185 48.7302V37.3022H61.877V48.8032C61.877 51.3834 62.5203 53.355 63.8071 54.7181C65.0938 56.0568 66.854 56.7262 69.0876 56.7262C71.4183 56.7262 73.2877 55.9716 74.6958 54.4625C76.104 52.929 76.808 50.6775 76.808 47.7079V37.3022H77.5364Z" fill="black"/>
<path d="M92.2947 56.6166C94.504 56.6166 96.3613 56.0568 97.8665 54.9371C99.3718 53.8174 100.282 52.284 100.598 50.3367H101.326C100.986 52.4057 100.015 54.0852 98.4128 55.3753C96.8347 56.641 94.7953 57.2738 92.2947 57.2738C90.4738 57.2738 88.8472 56.8722 87.4148 56.069C85.9824 55.2657 84.8535 54.0974 84.028 52.5639C83.2268 51.0304 82.8262 49.2292 82.8262 47.1602C82.8262 45.0913 83.2268 43.2901 84.028 41.7566C84.8535 40.2231 85.9824 39.0548 87.4148 38.2515C88.8472 37.4483 90.4738 37.0467 92.2947 37.0467C94.2127 37.0467 95.8514 37.4604 97.211 38.288C98.5706 39.0913 99.5903 40.1379 100.27 41.428C100.974 42.7181 101.326 44.0811 101.326 45.5172C101.326 46.3935 101.314 47.0507 101.29 47.4888H83.5546C83.5789 49.5091 83.9916 51.2008 84.7928 52.5639C85.6182 53.927 86.6865 54.9493 87.9975 55.6308C89.3085 56.288 90.7409 56.6166 92.2947 56.6166ZM92.2947 37.7039C90.7409 37.7039 89.3085 38.0446 87.9975 38.7262C86.6865 39.3834 85.6182 40.3935 84.7928 41.7566C83.9916 43.1197 83.5789 44.8114 83.5546 46.8316H100.671C100.792 44.8114 100.464 43.1197 99.6874 41.7566C98.9348 40.3935 97.8908 39.3834 96.5555 38.7262C95.2445 38.0446 93.8242 37.7039 92.2947 37.7039Z" fill="black"/>
<path d="M105.893 43.0345C106.427 41.2089 107.471 39.712 109.025 38.5436C110.603 37.3509 112.521 36.7546 114.779 36.7546C116.649 36.7546 118.312 37.1684 119.768 37.9959C121.225 38.7992 122.354 39.9675 123.155 41.501C123.956 43.0101 124.357 44.7992 124.357 46.8682C124.357 48.9371 123.956 50.7383 123.155 52.2718C122.354 53.7809 121.225 54.9493 119.768 55.7769C118.312 56.5801 116.649 56.9817 114.779 56.9817C112.521 56.9817 110.603 56.3976 109.025 55.2292C107.471 54.0365 106.427 52.5274 105.893 50.7018V66H105.201V37.0101H105.893V43.0345ZM123.629 46.8682C123.629 44.9209 123.264 43.2414 122.536 41.8296C121.808 40.3935 120.776 39.2982 119.441 38.5436C118.13 37.789 116.576 37.4118 114.779 37.4118C113.08 37.4118 111.55 37.8134 110.191 38.6166C108.855 39.3955 107.799 40.503 107.022 41.9391C106.27 43.3509 105.893 44.9939 105.893 46.8682C105.893 48.7424 106.27 50.3976 107.022 51.8337C107.799 53.2454 108.855 54.3529 110.191 55.1562C111.55 55.9351 113.08 56.3245 114.779 56.3245C116.576 56.3245 118.13 55.9473 119.441 55.1927C120.776 54.4381 121.808 53.355 122.536 51.9432C123.264 50.5071 123.629 48.8154 123.629 46.8682Z" fill="white"/>
<path d="M130.362 41.7931C131.139 38.3124 133.725 36.572 138.119 36.572V37.3753H137.791C135.727 37.3753 133.967 37.9838 132.511 39.2008C131.078 40.3935 130.362 42.3286 130.362 45.0061V56.7262H129.634V37.0101H130.362V41.7931Z" fill="white"/>
<path d="M142.303 31.9716C142.036 31.9716 141.805 31.8864 141.611 31.716C141.441 31.5213 141.356 31.2779 141.356 30.9858C141.356 30.6937 141.441 30.4625 141.611 30.2921C141.805 30.0974 142.036 30 142.303 30C142.57 30 142.788 30.0974 142.958 30.2921C143.153 30.4625 143.25 30.6937 143.25 30.9858C143.25 31.2779 143.153 31.5213 142.958 31.716C142.788 31.8864 142.57 31.9716 142.303 31.9716ZM142.667 37.0101V56.7262H141.939V37.0101H142.667Z" fill="white"/>
<path d="M157.322 36.572C159.629 36.572 161.523 37.2901 163.003 38.7262C164.484 40.1623 165.225 42.3286 165.225 45.2252V56.7262H164.533V45.1521C164.533 42.572 163.89 40.6126 162.603 39.2738C161.316 37.9108 159.556 37.2292 157.322 37.2292C154.992 37.2292 153.122 37.9959 151.714 39.5294C150.306 41.0385 149.602 43.2779 149.602 46.2475V56.7262H148.874V37.0101H149.602V42.1947C150.063 40.3692 150.986 38.9817 152.37 38.0325C153.754 37.0588 155.404 36.572 157.322 36.572Z" fill="white"/>
<path d="M172.809 37.7404V51.5416C172.809 52.7343 172.943 53.6471 173.21 54.2799C173.477 54.9128 173.902 55.3631 174.484 55.6308C175.067 55.8742 175.88 55.9959 176.924 55.9959H179V56.7262H176.851C175.152 56.7262 173.926 56.3367 173.173 55.5578C172.445 54.7789 172.081 53.4402 172.081 51.5416V37.7404H168.876V37.0101H172.081V31.9716H172.809V37.0101H179V37.7404H172.809Z" fill="white"/>
</svg>
