<svg width="149" height="36" viewBox="0 0 149 36" fill="none" xmlns="http://www.w3.org/2000/svg">
<path d="M0.691926 13.3266C1.29888 11.4767 2.36712 9.96754 3.89664 8.79919C5.42616 7.63083 7.31985 7.04665 9.57772 7.04665C11.4471 7.04665 13.1102 7.46044 14.5669 8.28803C16.0236 9.09128 17.1525 10.2596 17.9537 11.7931C18.7548 13.3022 19.1554 15.0913 19.1554 17.1602C19.1554 19.2292 18.7548 21.0304 17.9537 22.5639C17.1525 24.073 16.0236 25.2414 14.5669 26.069C13.1102 26.8722 11.4471 27.2738 9.57772 27.2738C7.31985 27.2738 5.41402 26.6897 3.86022 25.5213C2.30642 24.3529 1.25032 22.8438 0.691926 20.9939V27.0183H0V0H0.691926V13.3266ZM18.4271 17.1602C18.4271 15.213 18.0629 13.5335 17.3346 12.1217C16.6062 10.6856 15.5744 9.59026 14.2391 8.8357C12.9281 8.08113 11.3743 7.70385 9.57772 7.70385C7.87825 7.70385 6.34873 8.10548 4.98915 8.90872C3.65386 9.68763 2.59776 10.7951 1.82086 12.2312C1.06824 13.643 0.691926 15.286 0.691926 17.1602C0.691926 19.0345 1.06824 20.6897 1.82086 22.1258C2.59776 23.5375 3.65386 24.645 4.98915 25.4483C6.34873 26.2272 7.87825 26.6166 9.57772 26.6166C11.3743 26.6166 12.9281 26.2393 14.2391 25.4848C15.5744 24.7302 16.6062 23.6471 17.3346 22.2353C18.0629 20.7992 18.4271 19.1075 18.4271 17.1602Z" fill="black"/>
<path d="M25.1606 0V27.0183H24.4322V0H25.1606Z" fill="black"/>
<path d="M47.5364 7.30223V27.0183H46.808V21.6511C46.371 23.5254 45.4484 24.9493 44.0403 25.9229C42.6565 26.8965 41.0055 27.3834 39.0876 27.3834C36.7812 27.3834 34.8875 26.6653 33.4065 25.2292C31.9255 23.7931 31.185 21.6268 31.185 18.7302V7.30223H31.877V18.8032C31.877 21.3834 32.5203 23.355 33.8071 24.7181C35.0938 26.0568 36.854 26.7262 39.0876 26.7262C41.4183 26.7262 43.2877 25.9716 44.6958 24.4625C46.104 22.929 46.808 20.6775 46.808 17.7079V7.30223H47.5364Z" fill="black"/>
<path d="M62.2947 26.6166C64.504 26.6166 66.3613 26.0568 67.8665 24.9371C69.3718 23.8174 70.2822 22.284 70.5978 20.3367H71.3262C70.9863 22.4057 70.0151 24.0852 68.4128 25.3753C66.8347 26.641 64.7953 27.2738 62.2947 27.2738C60.4738 27.2738 58.8472 26.8722 57.4148 26.069C55.9824 25.2657 54.8535 24.0974 54.028 22.5639C53.2268 21.0304 52.8262 19.2292 52.8262 17.1602C52.8262 15.0913 53.2268 13.2901 54.028 11.7566C54.8535 10.2231 55.9824 9.05476 57.4148 8.25152C58.8472 7.44827 60.4738 7.04665 62.2947 7.04665C64.2127 7.04665 65.8514 7.46044 67.211 8.28803C68.5706 9.09128 69.5903 10.1379 70.2701 11.428C70.9741 12.7181 71.3262 14.0811 71.3262 15.5172C71.3262 16.3935 71.314 17.0507 71.2897 17.4888H53.5546C53.5789 19.5091 53.9916 21.2008 54.7928 22.5639C55.6182 23.927 56.6865 24.9493 57.9975 25.6308C59.3085 26.288 60.7409 26.6166 62.2947 26.6166ZM62.2947 7.70385C60.7409 7.70385 59.3085 8.04462 57.9975 8.72616C56.6865 9.38336 55.6182 10.3935 54.7928 11.7566C53.9916 13.1197 53.5789 14.8114 53.5546 16.8316H70.6707C70.792 14.8114 70.4643 13.1197 69.6874 11.7566C68.9348 10.3935 67.8908 9.38336 66.5555 8.72616C65.2445 8.04462 63.8242 7.70385 62.2947 7.70385Z" fill="black"/>
<path d="M75.8934 13.0345C76.4275 11.2089 77.4715 9.71197 79.0253 8.54361C80.6033 7.35091 82.5213 6.75456 84.7792 6.75456C86.6486 6.75456 88.3116 7.16836 89.7683 7.99594C91.225 8.79919 92.354 9.96755 93.1551 11.501C93.9563 13.0101 94.3569 14.7992 94.3569 16.8682C94.3569 18.9371 93.9563 20.7383 93.1551 22.2718C92.354 23.7809 91.225 24.9493 89.7683 25.7769C88.3116 26.5801 86.6486 26.9817 84.7792 26.9817C82.5213 26.9817 80.6033 26.3976 79.0253 25.2292C77.4715 24.0365 76.4275 22.5274 75.8934 20.7018V36H75.2015V7.01014H75.8934V13.0345ZM93.6285 16.8682C93.6285 14.9209 93.2644 13.2414 92.536 11.8296C91.8077 10.3935 90.7759 9.29817 89.4406 8.54361C88.1296 7.78905 86.5758 7.41176 84.7792 7.41176C83.0797 7.41176 81.5502 7.81339 80.1906 8.61663C78.8553 9.39554 77.7992 10.503 77.0223 11.9391C76.2697 13.3509 75.8934 14.9939 75.8934 16.8682C75.8934 18.7424 76.2697 20.3976 77.0223 21.8337C77.7992 23.2454 78.8553 24.3529 80.1906 25.1562C81.5502 25.9351 83.0797 26.3245 84.7792 26.3245C86.5758 26.3245 88.1296 25.9473 89.4406 25.1927C90.7759 24.4381 91.8077 23.355 92.536 21.9432C93.2644 20.5071 93.6285 18.8154 93.6285 16.8682Z" fill="white"/>
<path d="M100.362 11.7931C101.139 8.31237 103.725 6.57201 108.119 6.57201V7.37525H107.791C105.727 7.37525 103.967 7.98377 102.511 9.20081C101.078 10.3935 100.362 12.3286 100.362 15.0061V26.7262H99.6337V7.01014H100.362V11.7931Z" fill="white"/>
<path d="M112.303 1.9716C112.036 1.9716 111.805 1.88641 111.611 1.71602C111.441 1.5213 111.356 1.27789 111.356 0.985802C111.356 0.693713 111.441 0.462476 111.611 0.29209C111.805 0.0973633 112.036 0 112.303 0C112.57 0 112.788 0.0973633 112.958 0.29209C113.153 0.462476 113.25 0.693713 113.25 0.985802C113.25 1.27789 113.153 1.5213 112.958 1.71602C112.788 1.88641 112.57 1.9716 112.303 1.9716ZM112.667 7.01014V26.7262H111.939V7.01014H112.667Z" fill="white"/>
<path d="M127.322 6.57201C129.629 6.57201 131.523 7.29006 133.003 8.72617C134.484 10.1623 135.225 12.3286 135.225 15.2252V26.7262H134.533V15.1521C134.533 12.572 133.89 10.6126 132.603 9.27383C131.316 7.91075 129.556 7.22921 127.322 7.22921C124.992 7.22921 123.122 7.99594 121.714 9.52941C120.306 11.0385 119.602 13.2779 119.602 16.2475V26.7262H118.874V7.01014H119.602V12.1947C120.063 10.3692 120.986 8.98174 122.37 8.03246C123.754 7.05882 125.404 6.57201 127.322 6.57201Z" fill="white"/>
<path d="M142.809 7.74036V21.5416C142.809 22.7343 142.943 23.6471 143.21 24.2799C143.477 24.9128 143.902 25.3631 144.484 25.6308C145.067 25.8742 145.88 25.9959 146.924 25.9959H149V26.7262H146.851C145.152 26.7262 143.926 26.3367 143.173 25.5578C142.445 24.7789 142.081 23.4402 142.081 21.5416V7.74036H138.876V7.01014H142.081V1.9716H142.809V7.01014H149V7.74036H142.809Z" fill="white"/>
</svg>
