<svg width="550" height="403" viewBox="0 0 550 403" fill="none" xmlns="http://www.w3.org/2000/svg">
<path d="M543.75 19.75H536.25V12.25C536.25 11.9185 536.118 11.6005 535.884 11.3661C535.649 11.1317 535.332 11 535 11C534.668 11 534.351 11.1317 534.116 11.3661C533.882 11.6005 533.75 11.9185 533.75 12.25V19.75H526.25C525.918 19.75 525.601 19.8817 525.366 20.1161C525.132 20.3505 525 20.6685 525 21C525 21.3315 525.132 21.6495 525.366 21.8839C525.601 22.1183 525.918 22.25 526.25 22.25H533.75V29.75C533.75 30.0815 533.882 30.3995 534.116 30.6339C534.351 30.8683 534.668 31 535 31C535.332 31 535.649 30.8683 535.884 30.6339C536.118 30.3995 536.25 30.0815 536.25 29.75V22.25H543.75C544.082 22.25 544.399 22.1183 544.634 21.8839C544.868 21.6495 545 21.3315 545 21C545 20.6685 544.868 20.3505 544.634 20.1161C544.399 19.8817 544.082 19.75 543.75 19.75Z" fill="white"/>
<rect x="0.5" y="66.5" width="259" height="34" rx="7.5" stroke="white"/>
<rect x="0.5" y="121.5" width="259" height="34" rx="7.5" stroke="white"/>
<rect x="0.5" y="176.5" width="259" height="34" rx="7.5" stroke="white"/>
<rect x="0.5" y="231.5" width="549" height="116" rx="7.5" stroke="white"/>
<rect x="290.5" y="121.5" width="259" height="34" rx="7.5" stroke="white"/>
<rect x="290.5" y="66.5" width="259" height="34" rx="7.5" stroke="white"/>
<path d="M372.905 21.202H376.419V22H371.925V12.214H372.905V21.202ZM381.163 22.112C380.445 22.112 379.796 21.9533 379.217 21.636C378.648 21.3093 378.195 20.852 377.859 20.264C377.533 19.6667 377.369 18.9713 377.369 18.178C377.369 17.3847 377.537 16.694 377.873 16.106C378.209 15.5087 378.667 15.0513 379.245 14.734C379.824 14.4073 380.473 14.244 381.191 14.244C381.91 14.244 382.559 14.4073 383.137 14.734C383.725 15.0513 384.183 15.5087 384.509 16.106C384.845 16.694 385.013 17.3847 385.013 18.178C385.013 18.962 384.845 19.6527 384.509 20.25C384.173 20.8473 383.711 21.3093 383.123 21.636C382.535 21.9533 381.882 22.112 381.163 22.112ZM381.163 21.258C381.667 21.258 382.134 21.146 382.563 20.922C382.993 20.6887 383.338 20.3433 383.599 19.886C383.87 19.4193 384.005 18.85 384.005 18.178C384.005 17.506 383.875 16.9413 383.613 16.484C383.352 16.0173 383.007 15.672 382.577 15.448C382.148 15.2147 381.681 15.098 381.177 15.098C380.673 15.098 380.207 15.2147 379.777 15.448C379.348 15.672 379.003 16.0173 378.741 16.484C378.489 16.9413 378.363 17.506 378.363 18.178C378.363 18.85 378.489 19.4193 378.741 19.886C379.003 20.3433 379.343 20.6887 379.763 20.922C380.193 21.146 380.659 21.258 381.163 21.258ZM390.006 14.244C390.724 14.244 391.35 14.412 391.882 14.748C392.414 15.084 392.796 15.5087 393.03 16.022V14.356H394.01V22.196C394.01 22.896 393.856 23.5167 393.548 24.058C393.249 24.5993 392.829 25.0147 392.288 25.304C391.746 25.6027 391.13 25.752 390.44 25.752C389.46 25.752 388.643 25.5187 387.99 25.052C387.346 24.5853 386.944 23.9507 386.786 23.148H387.752C387.92 23.68 388.237 24.1047 388.704 24.422C389.18 24.7393 389.758 24.898 390.44 24.898C390.934 24.898 391.378 24.7907 391.77 24.576C392.162 24.3707 392.47 24.0627 392.694 23.652C392.918 23.2413 393.03 22.756 393.03 22.196V20.306C392.787 20.8287 392.4 21.2627 391.868 21.608C391.345 21.944 390.724 22.112 390.006 22.112C389.306 22.112 388.676 21.9487 388.116 21.622C387.565 21.2953 387.131 20.8333 386.814 20.236C386.506 19.6387 386.352 18.948 386.352 18.164C386.352 17.38 386.506 16.694 386.814 16.106C387.131 15.5087 387.565 15.0513 388.116 14.734C388.676 14.4073 389.306 14.244 390.006 14.244ZM393.03 18.178C393.03 17.562 392.904 17.0207 392.652 16.554C392.4 16.0873 392.054 15.728 391.616 15.476C391.186 15.224 390.71 15.098 390.188 15.098C389.646 15.098 389.161 15.2193 388.732 15.462C388.302 15.7047 387.962 16.0593 387.71 16.526C387.467 16.9833 387.346 17.5293 387.346 18.164C387.346 18.7893 387.467 19.34 387.71 19.816C387.962 20.2827 388.302 20.642 388.732 20.894C389.161 21.1367 389.646 21.258 390.188 21.258C390.71 21.258 391.186 21.132 391.616 20.88C392.054 20.628 392.4 20.2687 392.652 19.802C392.904 19.3353 393.03 18.794 393.03 18.178ZM402.547 14.356L398.011 25.598H396.989L398.473 21.958L395.337 14.356H396.415L399.019 20.88L401.539 14.356H402.547ZM407.88 22L405.906 18.92L404.002 22H402.966L405.43 18.178L402.994 14.356H404.1L406.046 17.394L407.936 14.356H408.958L406.522 18.136L408.986 22H407.88Z" fill="white"/>
<rect x="290.5" y="0.5" width="199" height="34" rx="9.5" stroke="white"/>
<path d="M377.333 380.214V381.026H373.021V384.68H376.661V385.492H373.021V390H372.041V380.214H377.333ZM379.435 380.914C379.239 380.914 379.071 380.844 378.931 380.704C378.791 380.564 378.721 380.391 378.721 380.186C378.721 379.981 378.791 379.813 378.931 379.682C379.071 379.542 379.239 379.472 379.435 379.472C379.631 379.472 379.799 379.542 379.939 379.682C380.079 379.813 380.149 379.981 380.149 380.186C380.149 380.391 380.079 380.564 379.939 380.704C379.799 380.844 379.631 380.914 379.435 380.914ZM379.925 382.356V390H378.945V382.356H379.925ZM385.728 382.216C386.643 382.216 387.39 382.501 387.968 383.07C388.547 383.63 388.836 384.447 388.836 385.52V390H387.87V385.632C387.87 384.801 387.66 384.167 387.24 383.728C386.83 383.289 386.265 383.07 385.546 383.07C384.809 383.07 384.221 383.303 383.782 383.77C383.344 384.237 383.124 384.923 383.124 385.828V390H382.144V382.356H383.124V383.658C383.367 383.191 383.717 382.837 384.174 382.594C384.632 382.342 385.15 382.216 385.728 382.216ZM391.494 380.914C391.298 380.914 391.13 380.844 390.99 380.704C390.85 380.564 390.78 380.391 390.78 380.186C390.78 379.981 390.85 379.813 390.99 379.682C391.13 379.542 391.298 379.472 391.494 379.472C391.69 379.472 391.858 379.542 391.998 379.682C392.138 379.813 392.208 379.981 392.208 380.186C392.208 380.391 392.138 380.564 391.998 380.704C391.858 380.844 391.69 380.914 391.494 380.914ZM391.984 382.356V390H391.004V382.356H391.984ZM396.835 390.112C395.958 390.112 395.239 389.911 394.679 389.51C394.128 389.099 393.82 388.544 393.755 387.844H394.763C394.81 388.273 395.01 388.623 395.365 388.894C395.729 389.155 396.214 389.286 396.821 389.286C397.353 389.286 397.768 389.16 398.067 388.908C398.375 388.656 398.529 388.343 398.529 387.97C398.529 387.709 398.445 387.494 398.277 387.326C398.109 387.158 397.894 387.027 397.633 386.934C397.381 386.831 397.036 386.724 396.597 386.612C396.028 386.463 395.566 386.313 395.211 386.164C394.856 386.015 394.553 385.795 394.301 385.506C394.058 385.207 393.937 384.811 393.937 384.316C393.937 383.943 394.049 383.597 394.273 383.28C394.497 382.963 394.814 382.711 395.225 382.524C395.636 382.337 396.102 382.244 396.625 382.244C397.446 382.244 398.109 382.454 398.613 382.874C399.117 383.285 399.388 383.854 399.425 384.582H398.445C398.417 384.134 398.24 383.775 397.913 383.504C397.596 383.224 397.157 383.084 396.597 383.084C396.102 383.084 395.701 383.201 395.393 383.434C395.085 383.667 394.931 383.957 394.931 384.302C394.931 384.601 395.02 384.848 395.197 385.044C395.384 385.231 395.612 385.38 395.883 385.492C396.154 385.595 396.518 385.711 396.975 385.842C397.526 385.991 397.964 386.136 398.291 386.276C398.618 386.416 398.898 386.621 399.131 386.892C399.364 387.163 399.486 387.522 399.495 387.97C399.495 388.381 399.383 388.749 399.159 389.076C398.935 389.393 398.622 389.645 398.221 389.832C397.82 390.019 397.358 390.112 396.835 390.112ZM404.98 382.216C405.558 382.216 406.076 382.337 406.534 382.58C407 382.823 407.364 383.196 407.626 383.7C407.896 384.195 408.032 384.801 408.032 385.52V390H407.066V385.632C407.066 384.801 406.856 384.167 406.436 383.728C406.025 383.289 405.46 383.07 404.742 383.07C404.004 383.07 403.416 383.303 402.978 383.77C402.539 384.237 402.32 384.923 402.32 385.828V390H401.34V379.64H402.32V383.658C402.562 383.201 402.917 382.846 403.384 382.594C403.86 382.342 404.392 382.216 404.98 382.216Z" fill="white"/>
<rect x="290.5" y="368.5" width="199" height="34" rx="9.5" stroke="white"/>
<rect x="60.5" y="368.5" width="199" height="34" rx="9.5" stroke="white"/>
</svg>
