<svg width="255" height="467" viewBox="0 0 255 467" fill="none" xmlns="http://www.w3.org/2000/svg">
<path d="M61.8687 24.875H56.2249C55.4327 24.875 54.7905 25.5172 54.7905 26.3094V31.9531C54.7905 32.7453 55.4327 33.3875 56.2249 33.3875H61.8687C62.6608 33.3875 63.303 32.7453 63.303 31.9531V26.3094C63.303 25.5172 62.6608 24.875 61.8687 24.875Z" stroke="white" stroke-width="1.5" stroke-linecap="round" stroke-linejoin="round"/>
<path d="M73.7749 24.875H68.1312C67.339 24.875 66.6968 25.5172 66.6968 26.3094V31.9531C66.6968 32.7453 67.339 33.3875 68.1312 33.3875H73.7749C74.5671 33.3875 75.2093 32.7453 75.2093 31.9531V26.3094C75.2093 25.5172 74.5671 24.875 73.7749 24.875Z" stroke="white" stroke-width="1.5" stroke-linecap="round" stroke-linejoin="round"/>
<path d="M61.8687 36.6125H56.2249C55.4327 36.6125 54.7905 37.2547 54.7905 38.0469V43.6907C54.7905 44.4829 55.4327 45.1251 56.2249 45.1251H61.8687C62.6608 45.1251 63.303 44.4829 63.303 43.6907V38.0469C63.303 37.2547 62.6608 36.6125 61.8687 36.6125Z" stroke="white" stroke-width="1.5" stroke-linecap="round" stroke-linejoin="round"/>
<path d="M73.7749 36.6125H68.1312C67.339 36.6125 66.6968 37.2547 66.6968 38.0469V43.6907C66.6968 44.4829 67.339 45.1251 68.1312 45.1251H73.7749C74.5671 45.1251 75.2093 44.4829 75.2093 43.6907V38.0469C75.2093 37.2547 74.5671 36.6125 73.7749 36.6125Z" stroke="white" stroke-width="1.5" stroke-linecap="round" stroke-linejoin="round"/>
<path d="M108.596 29.742V39.5H107.322V35.076H102.352V39.5H101.078V29.742H102.352V34.026H107.322V29.742H108.596ZM114.117 39.626C113.399 39.626 112.745 39.4627 112.157 39.136C111.579 38.8093 111.121 38.3473 110.785 37.75C110.459 37.1433 110.295 36.4433 110.295 35.65C110.295 34.866 110.463 34.1753 110.799 33.578C111.145 32.9713 111.611 32.5093 112.199 32.192C112.787 31.8653 113.445 31.702 114.173 31.702C114.901 31.702 115.559 31.8653 116.147 32.192C116.735 32.5093 117.197 32.9667 117.533 33.564C117.879 34.1613 118.051 34.8567 118.051 35.65C118.051 36.4433 117.874 37.1433 117.519 37.75C117.174 38.3473 116.703 38.8093 116.105 39.136C115.508 39.4627 114.845 39.626 114.117 39.626ZM114.117 38.506C114.575 38.506 115.004 38.3987 115.405 38.184C115.807 37.9693 116.129 37.6473 116.371 37.218C116.623 36.7887 116.749 36.266 116.749 35.65C116.749 35.034 116.628 34.5113 116.385 34.082C116.143 33.6527 115.825 33.3353 115.433 33.13C115.041 32.9153 114.617 32.808 114.159 32.808C113.693 32.808 113.263 32.9153 112.871 33.13C112.489 33.3353 112.181 33.6527 111.947 34.082C111.714 34.5113 111.597 35.034 111.597 35.65C111.597 36.2753 111.709 36.8027 111.933 37.232C112.167 37.6613 112.475 37.9833 112.857 38.198C113.24 38.4033 113.66 38.506 114.117 38.506ZM128.952 31.688C129.55 31.688 130.082 31.814 130.548 32.066C131.015 32.3087 131.384 32.6773 131.654 33.172C131.925 33.6667 132.06 34.2687 132.06 34.978V39.5H130.8V35.16C130.8 34.3947 130.609 33.8113 130.226 33.41C129.853 32.9993 129.344 32.794 128.7 32.794C128.038 32.794 127.51 33.0087 127.118 33.438C126.726 33.858 126.53 34.4693 126.53 35.272V39.5H125.27V35.16C125.27 34.3947 125.079 33.8113 124.696 33.41C124.323 32.9993 123.814 32.794 123.17 32.794C122.508 32.794 121.98 33.0087 121.588 33.438C121.196 33.858 121 34.4693 121 35.272V39.5H119.726V31.828H121V32.934C121.252 32.5327 121.588 32.2247 122.008 32.01C122.438 31.7953 122.909 31.688 123.422 31.688C124.066 31.688 124.636 31.8327 125.13 32.122C125.625 32.4113 125.994 32.836 126.236 33.396C126.451 32.8547 126.806 32.4347 127.3 32.136C127.795 31.8373 128.346 31.688 128.952 31.688ZM141.15 35.37C141.15 35.6127 141.136 35.8693 141.108 36.14H134.976C135.023 36.896 135.28 37.4887 135.746 37.918C136.222 38.338 136.796 38.548 137.468 38.548C138.019 38.548 138.476 38.422 138.84 38.17C139.214 37.9087 139.475 37.5633 139.624 37.134H140.996C140.791 37.8713 140.38 38.4733 139.764 38.94C139.148 39.3973 138.383 39.626 137.468 39.626C136.74 39.626 136.087 39.4627 135.508 39.136C134.939 38.8093 134.491 38.3473 134.164 37.75C133.838 37.1433 133.674 36.4433 133.674 35.65C133.674 34.8567 133.833 34.1613 134.15 33.564C134.468 32.9667 134.911 32.5093 135.48 32.192C136.059 31.8653 136.722 31.702 137.468 31.702C138.196 31.702 138.84 31.8607 139.4 32.178C139.96 32.4953 140.39 32.934 140.688 33.494C140.996 34.0447 141.15 34.67 141.15 35.37ZM139.834 35.104C139.834 34.6187 139.727 34.2033 139.512 33.858C139.298 33.5033 139.004 33.2373 138.63 33.06C138.266 32.8733 137.86 32.78 137.412 32.78C136.768 32.78 136.218 32.9853 135.76 33.396C135.312 33.8067 135.056 34.376 134.99 35.104H139.834Z" fill="white"/>
<path d="M76.0669 100.183L68.5669 92.6831C68.4497 92.5658 68.2908 92.5 68.125 92.5H62.5C60.4298 92.5023 58.7523 94.1798 58.75 96.25V97.5H57.5C55.4298 97.5023 53.7523 99.1798 53.75 101.25V113.75C53.7523 115.82 55.4298 117.498 57.5 117.5H67.5C69.5702 117.498 71.2477 115.82 71.25 113.75V112.5H72.5C74.5702 112.498 76.2477 110.82 76.25 108.75V100.625C76.25 100.459 76.1842 100.3 76.0669 100.183ZM68.75 94.6337L74.1163 100H70.4163C69.4963 99.9992 68.7508 99.2537 68.75 98.3337V94.6337ZM70 113.75C69.9982 115.13 68.88 116.248 67.5 116.25H57.5C56.12 116.248 55.0018 115.13 55 113.75V101.25C55.0018 99.87 56.12 98.7518 57.5 98.75H58.75V108.75C58.7523 110.82 60.4298 112.498 62.5 112.5H70V113.75ZM75 108.75C74.9982 110.13 73.88 111.248 72.5 111.25H62.5C61.12 111.248 60.0018 110.13 60 108.75V96.25C60.0018 94.87 61.12 93.7518 62.5 93.75H67.5V98.3337C67.5021 99.9435 68.8065 101.248 70.4163 101.25H75V108.75Z" fill="#F0F0F0"/>
<path d="M108.904 111.348L106.958 109.402C106.482 109.533 105.997 109.598 105.502 109.598C104.597 109.598 103.771 109.388 103.024 108.968C102.277 108.539 101.685 107.946 101.246 107.19C100.817 106.425 100.602 105.566 100.602 104.614C100.602 103.662 100.817 102.808 101.246 102.052C101.685 101.287 102.277 100.694 103.024 100.274C103.771 99.8447 104.597 99.63 105.502 99.63C106.417 99.63 107.247 99.8447 107.994 100.274C108.741 100.694 109.329 101.282 109.758 102.038C110.187 102.794 110.402 103.653 110.402 104.614C110.402 105.547 110.197 106.387 109.786 107.134C109.375 107.881 108.811 108.469 108.092 108.898L110.556 111.348H108.904ZM101.904 104.614C101.904 105.389 102.058 106.07 102.366 106.658C102.683 107.246 103.113 107.699 103.654 108.016C104.205 108.333 104.821 108.492 105.502 108.492C106.183 108.492 106.795 108.333 107.336 108.016C107.887 107.699 108.316 107.246 108.624 106.658C108.941 106.07 109.1 105.389 109.1 104.614C109.1 103.83 108.941 103.149 108.624 102.57C108.316 101.982 107.891 101.529 107.35 101.212C106.809 100.895 106.193 100.736 105.502 100.736C104.811 100.736 104.195 100.895 103.654 101.212C103.113 101.529 102.683 101.982 102.366 102.57C102.058 103.149 101.904 103.83 101.904 104.614ZM118.915 101.828V109.5H117.641V108.366C117.399 108.758 117.058 109.066 116.619 109.29C116.19 109.505 115.714 109.612 115.191 109.612C114.594 109.612 114.057 109.491 113.581 109.248C113.105 108.996 112.727 108.623 112.447 108.128C112.177 107.633 112.041 107.031 112.041 106.322V101.828H113.301V106.154C113.301 106.91 113.493 107.493 113.875 107.904C114.258 108.305 114.781 108.506 115.443 108.506C116.125 108.506 116.661 108.296 117.053 107.876C117.445 107.456 117.641 106.845 117.641 106.042V101.828H118.915ZM124.412 109.626C123.694 109.626 123.04 109.463 122.452 109.136C121.874 108.809 121.416 108.347 121.08 107.75C120.754 107.143 120.59 106.443 120.59 105.65C120.59 104.866 120.758 104.175 121.094 103.578C121.44 102.971 121.906 102.509 122.494 102.192C123.082 101.865 123.74 101.702 124.468 101.702C125.196 101.702 125.854 101.865 126.442 102.192C127.03 102.509 127.492 102.967 127.828 103.564C128.174 104.161 128.346 104.857 128.346 105.65C128.346 106.443 128.169 107.143 127.814 107.75C127.469 108.347 126.998 108.809 126.4 109.136C125.803 109.463 125.14 109.626 124.412 109.626ZM124.412 108.506C124.87 108.506 125.299 108.399 125.7 108.184C126.102 107.969 126.424 107.647 126.666 107.218C126.918 106.789 127.044 106.266 127.044 105.65C127.044 105.034 126.923 104.511 126.68 104.082C126.438 103.653 126.12 103.335 125.728 103.13C125.336 102.915 124.912 102.808 124.454 102.808C123.988 102.808 123.558 102.915 123.166 103.13C122.784 103.335 122.476 103.653 122.242 104.082C122.009 104.511 121.892 105.034 121.892 105.65C121.892 106.275 122.004 106.803 122.228 107.232C122.462 107.661 122.77 107.983 123.152 108.198C123.535 108.403 123.955 108.506 124.412 108.506ZM131.575 102.878V107.4C131.575 107.773 131.655 108.039 131.813 108.198C131.972 108.347 132.247 108.422 132.639 108.422H133.577V109.5H132.429C131.72 109.5 131.188 109.337 130.833 109.01C130.479 108.683 130.301 108.147 130.301 107.4V102.878H129.307V101.828H130.301V99.896H131.575V101.828H133.577V102.878H131.575ZM134.645 105.636C134.645 104.852 134.804 104.166 135.121 103.578C135.438 102.981 135.872 102.519 136.423 102.192C136.983 101.865 137.604 101.702 138.285 101.702C138.957 101.702 139.54 101.847 140.035 102.136C140.53 102.425 140.898 102.789 141.141 103.228V101.828H142.429V109.5H141.141V108.072C140.889 108.52 140.511 108.893 140.007 109.192C139.512 109.481 138.934 109.626 138.271 109.626C137.59 109.626 136.974 109.458 136.423 109.122C135.872 108.786 135.438 108.315 135.121 107.708C134.804 107.101 134.645 106.411 134.645 105.636ZM141.141 105.65C141.141 105.071 141.024 104.567 140.791 104.138C140.558 103.709 140.24 103.382 139.839 103.158C139.447 102.925 139.013 102.808 138.537 102.808C138.061 102.808 137.627 102.92 137.235 103.144C136.843 103.368 136.53 103.695 136.297 104.124C136.064 104.553 135.947 105.057 135.947 105.636C135.947 106.224 136.064 106.737 136.297 107.176C136.53 107.605 136.843 107.937 137.235 108.17C137.627 108.394 138.061 108.506 138.537 108.506C139.013 108.506 139.447 108.394 139.839 108.17C140.24 107.937 140.558 107.605 140.791 107.176C141.024 106.737 141.141 106.229 141.141 105.65ZM146.136 102.878V107.4C146.136 107.773 146.215 108.039 146.374 108.198C146.533 108.347 146.808 108.422 147.2 108.422H148.138V109.5H146.99C146.281 109.5 145.749 109.337 145.394 109.01C145.039 108.683 144.862 108.147 144.862 107.4V102.878H143.868V101.828H144.862V99.896H146.136V101.828H148.138V102.878H146.136ZM150.34 100.582C150.097 100.582 149.892 100.498 149.724 100.33C149.556 100.162 149.472 99.9567 149.472 99.714C149.472 99.4713 149.556 99.266 149.724 99.098C149.892 98.93 150.097 98.846 150.34 98.846C150.573 98.846 150.769 98.93 150.928 99.098C151.096 99.266 151.18 99.4713 151.18 99.714C151.18 99.9567 151.096 100.162 150.928 100.33C150.769 100.498 150.573 100.582 150.34 100.582ZM150.956 101.828V109.5H149.682V101.828H150.956ZM156.473 109.626C155.754 109.626 155.101 109.463 154.513 109.136C153.934 108.809 153.477 108.347 153.141 107.75C152.814 107.143 152.651 106.443 152.651 105.65C152.651 104.866 152.819 104.175 153.155 103.578C153.5 102.971 153.967 102.509 154.555 102.192C155.143 101.865 155.801 101.702 156.529 101.702C157.257 101.702 157.915 101.865 158.503 102.192C159.091 102.509 159.553 102.967 159.889 103.564C160.234 104.161 160.407 104.857 160.407 105.65C160.407 106.443 160.229 107.143 159.875 107.75C159.529 108.347 159.058 108.809 158.461 109.136C157.863 109.463 157.201 109.626 156.473 109.626ZM156.473 108.506C156.93 108.506 157.359 108.399 157.761 108.184C158.162 107.969 158.484 107.647 158.727 107.218C158.979 106.789 159.105 106.266 159.105 105.65C159.105 105.034 158.983 104.511 158.741 104.082C158.498 103.653 158.181 103.335 157.789 103.13C157.397 102.915 156.972 102.808 156.515 102.808C156.048 102.808 155.619 102.915 155.227 103.13C154.844 103.335 154.536 103.653 154.303 104.082C154.069 104.511 153.953 105.034 153.953 105.65C153.953 106.275 154.065 106.803 154.289 107.232C154.522 107.661 154.83 107.983 155.213 108.198C155.595 108.403 156.015 108.506 156.473 108.506ZM165.82 101.688C166.753 101.688 167.509 101.973 168.088 102.542C168.667 103.102 168.956 103.914 168.956 104.978V109.5H167.696V105.16C167.696 104.395 167.505 103.811 167.122 103.41C166.739 102.999 166.217 102.794 165.554 102.794C164.882 102.794 164.345 103.004 163.944 103.424C163.552 103.844 163.356 104.455 163.356 105.258V109.5H162.082V101.828H163.356V102.92C163.608 102.528 163.949 102.225 164.378 102.01C164.817 101.795 165.297 101.688 165.82 101.688ZM173.753 109.626C173.165 109.626 172.638 109.528 172.171 109.332C171.704 109.127 171.336 108.847 171.065 108.492C170.794 108.128 170.645 107.713 170.617 107.246H171.933C171.97 107.629 172.148 107.941 172.465 108.184C172.792 108.427 173.216 108.548 173.739 108.548C174.224 108.548 174.607 108.441 174.887 108.226C175.167 108.011 175.307 107.741 175.307 107.414C175.307 107.078 175.158 106.831 174.859 106.672C174.56 106.504 174.098 106.341 173.473 106.182C172.904 106.033 172.437 105.883 172.073 105.734C171.718 105.575 171.41 105.347 171.149 105.048C170.897 104.74 170.771 104.339 170.771 103.844C170.771 103.452 170.888 103.093 171.121 102.766C171.354 102.439 171.686 102.183 172.115 101.996C172.544 101.8 173.034 101.702 173.585 101.702C174.434 101.702 175.12 101.917 175.643 102.346C176.166 102.775 176.446 103.363 176.483 104.11H175.209C175.181 103.709 175.018 103.387 174.719 103.144C174.43 102.901 174.038 102.78 173.543 102.78C173.086 102.78 172.722 102.878 172.451 103.074C172.18 103.27 172.045 103.527 172.045 103.844C172.045 104.096 172.124 104.306 172.283 104.474C172.451 104.633 172.656 104.763 172.899 104.866C173.151 104.959 173.496 105.067 173.935 105.188C174.486 105.337 174.934 105.487 175.279 105.636C175.624 105.776 175.918 105.991 176.161 106.28C176.413 106.569 176.544 106.947 176.553 107.414C176.553 107.834 176.436 108.212 176.203 108.548C175.97 108.884 175.638 109.15 175.209 109.346C174.789 109.533 174.304 109.626 173.753 109.626Z" fill="white"/>
<path d="M65 180.685C64.235 180.685 63.615 180.065 63.615 179.3C63.615 179.025 63.39 178.8 63.115 178.8C62.84 178.8 62.615 179.025 62.615 179.3C62.615 180.44 63.425 181.395 64.5 181.63V181.995C64.5 182.27 64.725 182.495 65 182.495C65.275 182.495 65.5 182.27 65.5 181.995V181.63C66.575 181.4 67.385 180.445 67.385 179.3C67.385 177.895 66.315 177.335 65.165 176.945C64.085 176.575 63.62 176.155 63.62 175.535C63.62 174.775 64.24 174.15 65.005 174.15C65.77 174.15 66.39 174.77 66.39 175.535C66.39 175.81 66.615 176.035 66.89 176.035C67.165 176.035 67.39 175.81 67.39 175.535C67.39 174.395 66.58 173.44 65.505 173.205V172.84C65.505 172.565 65.28 172.34 65.005 172.34C64.73 172.34 64.505 172.565 64.505 172.84V173.205C63.43 173.435 62.62 174.39 62.62 175.535C62.62 176.97 63.89 177.565 64.84 177.89C65.995 178.285 66.385 178.64 66.385 179.3C66.385 180.065 65.765 180.685 65 180.685Z" fill="white"/>
<path d="M56.1101 180.37C56.1101 185.165 59.0151 187.5 65.0001 187.5C70.9851 187.5 73.8901 185.165 73.8901 180.37C73.8901 176.195 71.5251 170.415 67.9601 168.23L69.3101 163.13C69.3501 162.98 69.3151 162.82 69.2251 162.695C69.1301 162.57 68.9851 162.5 68.8301 162.5H65.4801C65.2751 162.5 65.0851 162.625 65.0151 162.82L64.7301 163.55H60.5701C60.4051 163.55 60.2501 163.63 60.1551 163.77C60.0601 163.905 60.0401 164.08 60.1001 164.235L61.7351 168.415C58.3451 170.73 56.1101 176.31 56.1101 180.37ZM61.3051 164.55H64.3451L64.0351 165.35C63.9351 165.61 64.0651 165.895 64.3201 165.995C64.5801 166.095 64.8651 165.965 64.9651 165.71L65.8251 163.5H68.1801L67.0501 167.76C66.3951 167.49 65.7151 167.335 65.0001 167.335C64.1651 167.335 63.3701 167.54 62.6201 167.905L61.3051 164.55ZM65.0001 168.335C69.1751 168.335 72.8901 175.065 72.8901 180.365C72.8901 184.61 70.4601 186.5 65.0001 186.5C59.5401 186.5 57.1101 184.61 57.1101 180.37C57.1101 175.065 60.8251 168.335 65.0001 168.335Z" fill="white"/>
<path d="M104.172 179.598C103.528 179.598 102.949 179.486 102.436 179.262C101.932 179.029 101.535 178.711 101.246 178.31C100.957 177.899 100.807 177.428 100.798 176.896H102.156C102.203 177.353 102.389 177.741 102.716 178.058C103.052 178.366 103.537 178.52 104.172 178.52C104.779 178.52 105.255 178.371 105.6 178.072C105.955 177.764 106.132 177.372 106.132 176.896C106.132 176.523 106.029 176.219 105.824 175.986C105.619 175.753 105.362 175.575 105.054 175.454C104.746 175.333 104.331 175.202 103.808 175.062C103.164 174.894 102.646 174.726 102.254 174.558C101.871 174.39 101.54 174.129 101.26 173.774C100.989 173.41 100.854 172.925 100.854 172.318C100.854 171.786 100.989 171.315 101.26 170.904C101.531 170.493 101.909 170.176 102.394 169.952C102.889 169.728 103.453 169.616 104.088 169.616C105.003 169.616 105.749 169.845 106.328 170.302C106.916 170.759 107.247 171.366 107.322 172.122H105.922C105.875 171.749 105.679 171.422 105.334 171.142C104.989 170.853 104.531 170.708 103.962 170.708C103.43 170.708 102.996 170.848 102.66 171.128C102.324 171.399 102.156 171.781 102.156 172.276C102.156 172.631 102.254 172.92 102.45 173.144C102.655 173.368 102.903 173.541 103.192 173.662C103.491 173.774 103.906 173.905 104.438 174.054C105.082 174.231 105.6 174.409 105.992 174.586C106.384 174.754 106.72 175.02 107 175.384C107.28 175.739 107.42 176.224 107.42 176.84C107.42 177.316 107.294 177.764 107.042 178.184C106.79 178.604 106.417 178.945 105.922 179.206C105.427 179.467 104.844 179.598 104.172 179.598ZM108.819 175.636C108.819 174.852 108.977 174.166 109.295 173.578C109.612 172.981 110.046 172.519 110.597 172.192C111.157 171.865 111.777 171.702 112.459 171.702C113.131 171.702 113.714 171.847 114.209 172.136C114.703 172.425 115.072 172.789 115.315 173.228V171.828H116.603V179.5H115.315V178.072C115.063 178.52 114.685 178.893 114.181 179.192C113.686 179.481 113.107 179.626 112.445 179.626C111.763 179.626 111.147 179.458 110.597 179.122C110.046 178.786 109.612 178.315 109.295 177.708C108.977 177.101 108.819 176.411 108.819 175.636ZM115.315 175.65C115.315 175.071 115.198 174.567 114.965 174.138C114.731 173.709 114.414 173.382 114.013 173.158C113.621 172.925 113.187 172.808 112.711 172.808C112.235 172.808 111.801 172.92 111.409 173.144C111.017 173.368 110.704 173.695 110.471 174.124C110.237 174.553 110.121 175.057 110.121 175.636C110.121 176.224 110.237 176.737 110.471 177.176C110.704 177.605 111.017 177.937 111.409 178.17C111.801 178.394 112.235 178.506 112.711 178.506C113.187 178.506 113.621 178.394 114.013 178.17C114.414 177.937 114.731 177.605 114.965 177.176C115.198 176.737 115.315 176.229 115.315 175.65ZM120.03 169.14V179.5H118.756V169.14H120.03ZM129.201 175.37C129.201 175.613 129.187 175.869 129.159 176.14H123.027C123.074 176.896 123.33 177.489 123.797 177.918C124.273 178.338 124.847 178.548 125.519 178.548C126.07 178.548 126.527 178.422 126.891 178.17C127.264 177.909 127.526 177.563 127.675 177.134H129.047C128.842 177.871 128.431 178.473 127.815 178.94C127.199 179.397 126.434 179.626 125.519 179.626C124.791 179.626 124.138 179.463 123.559 179.136C122.99 178.809 122.542 178.347 122.215 177.75C121.888 177.143 121.725 176.443 121.725 175.65C121.725 174.857 121.884 174.161 122.201 173.564C122.518 172.967 122.962 172.509 123.531 172.192C124.11 171.865 124.772 171.702 125.519 171.702C126.247 171.702 126.891 171.861 127.451 172.178C128.011 172.495 128.44 172.934 128.739 173.494C129.047 174.045 129.201 174.67 129.201 175.37ZM127.885 175.104C127.885 174.619 127.778 174.203 127.563 173.858C127.348 173.503 127.054 173.237 126.681 173.06C126.317 172.873 125.911 172.78 125.463 172.78C124.819 172.78 124.268 172.985 123.811 173.396C123.363 173.807 123.106 174.376 123.041 175.104H127.885ZM133.599 179.626C133.011 179.626 132.483 179.528 132.017 179.332C131.55 179.127 131.181 178.847 130.911 178.492C130.64 178.128 130.491 177.713 130.463 177.246H131.779C131.816 177.629 131.993 177.941 132.311 178.184C132.637 178.427 133.062 178.548 133.585 178.548C134.07 178.548 134.453 178.441 134.733 178.226C135.013 178.011 135.153 177.741 135.153 177.414C135.153 177.078 135.003 176.831 134.705 176.672C134.406 176.504 133.944 176.341 133.319 176.182C132.749 176.033 132.283 175.883 131.919 175.734C131.564 175.575 131.256 175.347 130.995 175.048C130.743 174.74 130.617 174.339 130.617 173.844C130.617 173.452 130.733 173.093 130.967 172.766C131.2 172.439 131.531 172.183 131.961 171.996C132.39 171.8 132.88 171.702 133.431 171.702C134.28 171.702 134.966 171.917 135.489 172.346C136.011 172.775 136.291 173.363 136.329 174.11H135.055C135.027 173.709 134.863 173.387 134.565 173.144C134.275 172.901 133.883 172.78 133.389 172.78C132.931 172.78 132.567 172.878 132.297 173.074C132.026 173.27 131.891 173.527 131.891 173.844C131.891 174.096 131.97 174.306 132.129 174.474C132.297 174.633 132.502 174.763 132.745 174.866C132.997 174.959 133.342 175.067 133.781 175.188C134.331 175.337 134.779 175.487 135.125 175.636C135.47 175.776 135.764 175.991 136.007 176.28C136.259 176.569 136.389 176.947 136.399 177.414C136.399 177.834 136.282 178.212 136.049 178.548C135.815 178.884 135.484 179.15 135.055 179.346C134.635 179.533 134.149 179.626 133.599 179.626ZM146.354 179.598C145.448 179.598 144.622 179.388 143.876 178.968C143.129 178.539 142.536 177.946 142.098 177.19C141.668 176.425 141.454 175.566 141.454 174.614C141.454 173.662 141.668 172.808 142.098 172.052C142.536 171.287 143.129 170.694 143.876 170.274C144.622 169.845 145.448 169.63 146.354 169.63C147.268 169.63 148.099 169.845 148.846 170.274C149.592 170.694 150.18 171.282 150.61 172.038C151.039 172.794 151.254 173.653 151.254 174.614C151.254 175.575 151.039 176.434 150.61 177.19C150.18 177.946 149.592 178.539 148.846 178.968C148.099 179.388 147.268 179.598 146.354 179.598ZM146.354 178.492C147.035 178.492 147.646 178.333 148.188 178.016C148.738 177.699 149.168 177.246 149.476 176.658C149.793 176.07 149.952 175.389 149.952 174.614C149.952 173.83 149.793 173.149 149.476 172.57C149.168 171.982 148.743 171.529 148.202 171.212C147.66 170.895 147.044 170.736 146.354 170.736C145.663 170.736 145.047 170.895 144.506 171.212C143.964 171.529 143.535 171.982 143.218 172.57C142.91 173.149 142.756 173.83 142.756 174.614C142.756 175.389 142.91 176.07 143.218 176.658C143.535 177.246 143.964 177.699 144.506 178.016C145.056 178.333 145.672 178.492 146.354 178.492ZM154.209 173.074C154.433 172.635 154.751 172.295 155.161 172.052C155.581 171.809 156.09 171.688 156.687 171.688V173.004H156.351C154.923 173.004 154.209 173.779 154.209 175.328V179.5H152.935V171.828H154.209V173.074ZM157.682 175.636C157.682 174.852 157.841 174.166 158.158 173.578C158.475 172.981 158.909 172.519 159.46 172.192C160.02 171.865 160.645 171.702 161.336 171.702C161.933 171.702 162.489 171.842 163.002 172.122C163.515 172.393 163.907 172.752 164.178 173.2V169.14H165.466V179.5H164.178V178.058C163.926 178.515 163.553 178.893 163.058 179.192C162.563 179.481 161.985 179.626 161.322 179.626C160.641 179.626 160.02 179.458 159.46 179.122C158.909 178.786 158.475 178.315 158.158 177.708C157.841 177.101 157.682 176.411 157.682 175.636ZM164.178 175.65C164.178 175.071 164.061 174.567 163.828 174.138C163.595 173.709 163.277 173.382 162.876 173.158C162.484 172.925 162.05 172.808 161.574 172.808C161.098 172.808 160.664 172.92 160.272 173.144C159.88 173.368 159.567 173.695 159.334 174.124C159.101 174.553 158.984 175.057 158.984 175.636C158.984 176.224 159.101 176.737 159.334 177.176C159.567 177.605 159.88 177.937 160.272 178.17C160.664 178.394 161.098 178.506 161.574 178.506C162.05 178.506 162.484 178.394 162.876 178.17C163.277 177.937 163.595 177.605 163.828 177.176C164.061 176.737 164.178 176.229 164.178 175.65ZM174.619 175.37C174.619 175.613 174.605 175.869 174.577 176.14H168.445C168.492 176.896 168.748 177.489 169.215 177.918C169.691 178.338 170.265 178.548 170.937 178.548C171.488 178.548 171.945 178.422 172.309 178.17C172.682 177.909 172.944 177.563 173.093 177.134H174.465C174.26 177.871 173.849 178.473 173.233 178.94C172.617 179.397 171.852 179.626 170.937 179.626C170.209 179.626 169.556 179.463 168.977 179.136C168.408 178.809 167.96 178.347 167.633 177.75C167.306 177.143 167.143 176.443 167.143 175.65C167.143 174.857 167.302 174.161 167.619 173.564C167.936 172.967 168.38 172.509 168.949 172.192C169.528 171.865 170.19 171.702 170.937 171.702C171.665 171.702 172.309 171.861 172.869 172.178C173.429 172.495 173.858 172.934 174.157 173.494C174.465 174.045 174.619 174.67 174.619 175.37ZM173.303 175.104C173.303 174.619 173.196 174.203 172.981 173.858C172.766 173.503 172.472 173.237 172.099 173.06C171.735 172.873 171.329 172.78 170.881 172.78C170.237 172.78 169.686 172.985 169.229 173.396C168.781 173.807 168.524 174.376 168.459 175.104H173.303ZM177.575 173.074C177.799 172.635 178.116 172.295 178.527 172.052C178.947 171.809 179.455 171.688 180.053 171.688V173.004H179.717C178.289 173.004 177.575 173.779 177.575 175.328V179.5H176.301V171.828H177.575V173.074ZM184.239 179.626C183.651 179.626 183.124 179.528 182.657 179.332C182.191 179.127 181.822 178.847 181.551 178.492C181.281 178.128 181.131 177.713 181.103 177.246H182.419C182.457 177.629 182.634 177.941 182.951 178.184C183.278 178.427 183.703 178.548 184.225 178.548C184.711 178.548 185.093 178.441 185.373 178.226C185.653 178.011 185.793 177.741 185.793 177.414C185.793 177.078 185.644 176.831 185.345 176.672C185.047 176.504 184.585 176.341 183.959 176.182C183.39 176.033 182.923 175.883 182.559 175.734C182.205 175.575 181.897 175.347 181.635 175.048C181.383 174.74 181.257 174.339 181.257 173.844C181.257 173.452 181.374 173.093 181.607 172.766C181.841 172.439 182.172 172.183 182.601 171.996C183.031 171.8 183.521 171.702 184.071 171.702C184.921 171.702 185.607 171.917 186.129 172.346C186.652 172.775 186.932 173.363 186.969 174.11H185.695C185.667 173.709 185.504 173.387 185.205 173.144C184.916 172.901 184.524 172.78 184.029 172.78C183.572 172.78 183.208 172.878 182.937 173.074C182.667 173.27 182.531 173.527 182.531 173.844C182.531 174.096 182.611 174.306 182.769 174.474C182.937 174.633 183.143 174.763 183.385 174.866C183.637 174.959 183.983 175.067 184.421 175.188C184.972 175.337 185.42 175.487 185.765 175.636C186.111 175.776 186.405 175.991 186.647 176.28C186.899 176.569 187.03 176.947 187.039 177.414C187.039 177.834 186.923 178.212 186.689 178.548C186.456 178.884 186.125 179.15 185.695 179.346C185.275 179.533 184.79 179.626 184.239 179.626Z" fill="white"/>
<path d="M71.5625 251.562H58.1818L54.9127 233.582C54.8734 233.366 54.7596 233.171 54.591 233.03C54.4225 232.89 54.2099 232.812 53.9903 232.812H51.875" stroke="white" stroke-width="1.7" stroke-linecap="round" stroke-linejoin="round"/>
<path d="M59.375 256.25C60.6694 256.25 61.7188 255.201 61.7188 253.906C61.7188 252.612 60.6694 251.562 59.375 251.562C58.0806 251.562 57.0312 252.612 57.0312 253.906C57.0312 255.201 58.0806 256.25 59.375 256.25Z" stroke="white" stroke-width="1.7" stroke-linecap="round" stroke-linejoin="round"/>
<path d="M71.5625 256.25C72.8569 256.25 73.9062 255.201 73.9062 253.906C73.9062 252.612 72.8569 251.562 71.5625 251.562C70.2681 251.562 69.2188 252.612 69.2188 253.906C69.2188 255.201 70.2681 256.25 71.5625 256.25Z" stroke="white" stroke-width="1.7" stroke-linecap="round" stroke-linejoin="round"/>
<path d="M57.3295 246.875H72.0431C72.4822 246.875 72.9074 246.721 73.2445 246.44C73.5816 246.158 73.8093 245.767 73.8879 245.335L75.3125 237.5H55.625" stroke="white" stroke-width="1.7" stroke-linecap="round" stroke-linejoin="round"/>
<path d="M107.602 242.598C107.602 243.41 107.322 244.087 106.762 244.628C106.211 245.16 105.367 245.426 104.228 245.426H102.352V249.5H101.078V239.742H104.228C105.329 239.742 106.165 240.008 106.734 240.54C107.313 241.072 107.602 241.758 107.602 242.598ZM104.228 244.376C104.937 244.376 105.46 244.222 105.796 243.914C106.132 243.606 106.3 243.167 106.3 242.598C106.3 241.394 105.609 240.792 104.228 240.792H102.352V244.376H104.228ZM115.989 241.828V249.5H114.715V248.366C114.473 248.758 114.132 249.066 113.693 249.29C113.264 249.505 112.788 249.612 112.265 249.612C111.668 249.612 111.131 249.491 110.655 249.248C110.179 248.996 109.801 248.623 109.521 248.128C109.251 247.633 109.115 247.031 109.115 246.322V241.828H110.375V246.154C110.375 246.91 110.567 247.493 110.949 247.904C111.332 248.305 111.855 248.506 112.517 248.506C113.199 248.506 113.735 248.296 114.127 247.876C114.519 247.456 114.715 246.845 114.715 246.042V241.828H115.989ZM119.415 243.074C119.639 242.635 119.956 242.295 120.367 242.052C120.787 241.809 121.295 241.688 121.893 241.688V243.004H121.557C120.129 243.004 119.415 243.779 119.415 245.328V249.5H118.141V241.828H119.415V243.074ZM122.887 245.65C122.887 244.857 123.046 244.166 123.363 243.578C123.68 242.981 124.119 242.519 124.679 242.192C125.248 241.865 125.897 241.702 126.625 241.702C127.568 241.702 128.342 241.931 128.949 242.388C129.565 242.845 129.971 243.48 130.167 244.292H128.795C128.664 243.825 128.408 243.457 128.025 243.186C127.652 242.915 127.185 242.78 126.625 242.78C125.897 242.78 125.309 243.032 124.861 243.536C124.413 244.031 124.189 244.735 124.189 245.65C124.189 246.574 124.413 247.288 124.861 247.792C125.309 248.296 125.897 248.548 126.625 248.548C127.185 248.548 127.652 248.417 128.025 248.156C128.398 247.895 128.655 247.521 128.795 247.036H130.167C129.962 247.82 129.551 248.45 128.935 248.926C128.319 249.393 127.549 249.626 126.625 249.626C125.897 249.626 125.248 249.463 124.679 249.136C124.119 248.809 123.68 248.347 123.363 247.75C123.046 247.153 122.887 246.453 122.887 245.65ZM135.675 241.688C136.254 241.688 136.776 241.814 137.243 242.066C137.71 242.309 138.074 242.677 138.335 243.172C138.606 243.667 138.741 244.269 138.741 244.978V249.5H137.481V245.16C137.481 244.395 137.29 243.811 136.907 243.41C136.524 242.999 136.002 242.794 135.339 242.794C134.667 242.794 134.13 243.004 133.729 243.424C133.337 243.844 133.141 244.455 133.141 245.258V249.5H131.867V239.14H133.141V242.92C133.393 242.528 133.738 242.225 134.177 242.01C134.625 241.795 135.124 241.688 135.675 241.688ZM140.346 245.636C140.346 244.852 140.505 244.166 140.822 243.578C141.139 242.981 141.573 242.519 142.124 242.192C142.684 241.865 143.305 241.702 143.986 241.702C144.658 241.702 145.241 241.847 145.736 242.136C146.231 242.425 146.599 242.789 146.842 243.228V241.828H148.13V249.5H146.842V248.072C146.59 248.52 146.212 248.893 145.708 249.192C145.213 249.481 144.635 249.626 143.972 249.626C143.291 249.626 142.675 249.458 142.124 249.122C141.573 248.786 141.139 248.315 140.822 247.708C140.505 247.101 140.346 246.411 140.346 245.636ZM146.842 245.65C146.842 245.071 146.725 244.567 146.492 244.138C146.259 243.709 145.941 243.382 145.54 243.158C145.148 242.925 144.714 242.808 144.238 242.808C143.762 242.808 143.328 242.92 142.936 243.144C142.544 243.368 142.231 243.695 141.998 244.124C141.765 244.553 141.648 245.057 141.648 245.636C141.648 246.224 141.765 246.737 141.998 247.176C142.231 247.605 142.544 247.937 142.936 248.17C143.328 248.394 143.762 248.506 144.238 248.506C144.714 248.506 145.148 248.394 145.54 248.17C145.941 247.937 146.259 247.605 146.492 247.176C146.725 246.737 146.842 246.229 146.842 245.65ZM152.999 249.626C152.411 249.626 151.884 249.528 151.417 249.332C150.95 249.127 150.582 248.847 150.311 248.492C150.04 248.128 149.891 247.713 149.863 247.246H151.179C151.216 247.629 151.394 247.941 151.711 248.184C152.038 248.427 152.462 248.548 152.985 248.548C153.47 248.548 153.853 248.441 154.133 248.226C154.413 248.011 154.553 247.741 154.553 247.414C154.553 247.078 154.404 246.831 154.105 246.672C153.806 246.504 153.344 246.341 152.719 246.182C152.15 246.033 151.683 245.883 151.319 245.734C150.964 245.575 150.656 245.347 150.395 245.048C150.143 244.74 150.017 244.339 150.017 243.844C150.017 243.452 150.134 243.093 150.367 242.766C150.6 242.439 150.932 242.183 151.361 241.996C151.79 241.8 152.28 241.702 152.831 241.702C153.68 241.702 154.366 241.917 154.889 242.346C155.412 242.775 155.692 243.363 155.729 244.11H154.455C154.427 243.709 154.264 243.387 153.965 243.144C153.676 242.901 153.284 242.78 152.789 242.78C152.332 242.78 151.968 242.878 151.697 243.074C151.426 243.27 151.291 243.527 151.291 243.844C151.291 244.096 151.37 244.306 151.529 244.474C151.697 244.633 151.902 244.763 152.145 244.866C152.397 244.959 152.742 245.067 153.181 245.188C153.732 245.337 154.18 245.487 154.525 245.636C154.87 245.776 155.164 245.991 155.407 246.28C155.659 246.569 155.79 246.947 155.799 247.414C155.799 247.834 155.682 248.212 155.449 248.548C155.216 248.884 154.884 249.15 154.455 249.346C154.035 249.533 153.55 249.626 152.999 249.626ZM164.598 245.37C164.598 245.613 164.584 245.869 164.556 246.14H158.424C158.47 246.896 158.727 247.489 159.194 247.918C159.67 248.338 160.244 248.548 160.916 248.548C161.466 248.548 161.924 248.422 162.288 248.17C162.661 247.909 162.922 247.563 163.072 247.134H164.444C164.238 247.871 163.828 248.473 163.212 248.94C162.596 249.397 161.83 249.626 160.916 249.626C160.188 249.626 159.534 249.463 158.956 249.136C158.386 248.809 157.938 248.347 157.612 247.75C157.285 247.143 157.122 246.443 157.122 245.65C157.122 244.857 157.28 244.161 157.598 243.564C157.915 242.967 158.358 242.509 158.928 242.192C159.506 241.865 160.169 241.702 160.916 241.702C161.644 241.702 162.288 241.861 162.848 242.178C163.408 242.495 163.837 242.934 164.136 243.494C164.444 244.045 164.598 244.67 164.598 245.37ZM163.282 245.104C163.282 244.619 163.174 244.203 162.96 243.858C162.745 243.503 162.451 243.237 162.078 243.06C161.714 242.873 161.308 242.78 160.86 242.78C160.216 242.78 159.665 242.985 159.208 243.396C158.76 243.807 158.503 244.376 158.438 245.104H163.282ZM174.436 249.598C173.53 249.598 172.704 249.388 171.958 248.968C171.211 248.539 170.618 247.946 170.18 247.19C169.75 246.425 169.536 245.566 169.536 244.614C169.536 243.662 169.75 242.808 170.18 242.052C170.618 241.287 171.211 240.694 171.958 240.274C172.704 239.845 173.53 239.63 174.436 239.63C175.35 239.63 176.181 239.845 176.928 240.274C177.674 240.694 178.262 241.282 178.692 242.038C179.121 242.794 179.336 243.653 179.336 244.614C179.336 245.575 179.121 246.434 178.692 247.19C178.262 247.946 177.674 248.539 176.928 248.968C176.181 249.388 175.35 249.598 174.436 249.598ZM174.436 248.492C175.117 248.492 175.728 248.333 176.27 248.016C176.82 247.699 177.25 247.246 177.558 246.658C177.875 246.07 178.034 245.389 178.034 244.614C178.034 243.83 177.875 243.149 177.558 242.57C177.25 241.982 176.825 241.529 176.284 241.212C175.742 240.895 175.126 240.736 174.436 240.736C173.745 240.736 173.129 240.895 172.588 241.212C172.046 241.529 171.617 241.982 171.3 242.57C170.992 243.149 170.838 243.83 170.838 244.614C170.838 245.389 170.992 246.07 171.3 246.658C171.617 247.246 172.046 247.699 172.588 248.016C173.138 248.333 173.754 248.492 174.436 248.492ZM182.291 243.074C182.515 242.635 182.833 242.295 183.243 242.052C183.663 241.809 184.172 241.688 184.769 241.688V243.004H184.433C183.005 243.004 182.291 243.779 182.291 245.328V249.5H181.017V241.828H182.291V243.074ZM185.764 245.636C185.764 244.852 185.923 244.166 186.24 243.578C186.557 242.981 186.991 242.519 187.542 242.192C188.102 241.865 188.727 241.702 189.418 241.702C190.015 241.702 190.571 241.842 191.084 242.122C191.597 242.393 191.989 242.752 192.26 243.2V239.14H193.548V249.5H192.26V248.058C192.008 248.515 191.635 248.893 191.14 249.192C190.645 249.481 190.067 249.626 189.404 249.626C188.723 249.626 188.102 249.458 187.542 249.122C186.991 248.786 186.557 248.315 186.24 247.708C185.923 247.101 185.764 246.411 185.764 245.636ZM192.26 245.65C192.26 245.071 192.143 244.567 191.91 244.138C191.677 243.709 191.359 243.382 190.958 243.158C190.566 242.925 190.132 242.808 189.656 242.808C189.18 242.808 188.746 242.92 188.354 243.144C187.962 243.368 187.649 243.695 187.416 244.124C187.183 244.553 187.066 245.057 187.066 245.636C187.066 246.224 187.183 246.737 187.416 247.176C187.649 247.605 187.962 247.937 188.354 248.17C188.746 248.394 189.18 248.506 189.656 248.506C190.132 248.506 190.566 248.394 190.958 248.17C191.359 247.937 191.677 247.605 191.91 247.176C192.143 246.737 192.26 246.229 192.26 245.65ZM202.701 245.37C202.701 245.613 202.687 245.869 202.659 246.14H196.527C196.574 246.896 196.83 247.489 197.297 247.918C197.773 248.338 198.347 248.548 199.019 248.548C199.57 248.548 200.027 248.422 200.391 248.17C200.764 247.909 201.026 247.563 201.175 247.134H202.547C202.342 247.871 201.931 248.473 201.315 248.94C200.699 249.397 199.934 249.626 199.019 249.626C198.291 249.626 197.638 249.463 197.059 249.136C196.49 248.809 196.042 248.347 195.715 247.75C195.388 247.143 195.225 246.443 195.225 245.65C195.225 244.857 195.384 244.161 195.701 243.564C196.018 242.967 196.462 242.509 197.031 242.192C197.61 241.865 198.272 241.702 199.019 241.702C199.747 241.702 200.391 241.861 200.951 242.178C201.511 242.495 201.94 242.934 202.239 243.494C202.547 244.045 202.701 244.67 202.701 245.37ZM201.385 245.104C201.385 244.619 201.278 244.203 201.063 243.858C200.848 243.503 200.554 243.237 200.181 243.06C199.817 242.873 199.411 242.78 198.963 242.78C198.319 242.78 197.768 242.985 197.311 243.396C196.863 243.807 196.606 244.376 196.541 245.104H201.385ZM205.657 243.074C205.881 242.635 206.198 242.295 206.609 242.052C207.029 241.809 207.537 241.688 208.135 241.688V243.004H207.799C206.371 243.004 205.657 243.779 205.657 245.328V249.5H204.383V241.828H205.657V243.074ZM212.321 249.626C211.733 249.626 211.206 249.528 210.739 249.332C210.273 249.127 209.904 248.847 209.633 248.492C209.363 248.128 209.213 247.713 209.185 247.246H210.501C210.539 247.629 210.716 247.941 211.033 248.184C211.36 248.427 211.785 248.548 212.307 248.548C212.793 248.548 213.175 248.441 213.455 248.226C213.735 248.011 213.875 247.741 213.875 247.414C213.875 247.078 213.726 246.831 213.427 246.672C213.129 246.504 212.667 246.341 212.041 246.182C211.472 246.033 211.005 245.883 210.641 245.734C210.287 245.575 209.979 245.347 209.717 245.048C209.465 244.74 209.339 244.339 209.339 243.844C209.339 243.452 209.456 243.093 209.689 242.766C209.923 242.439 210.254 242.183 210.683 241.996C211.113 241.8 211.603 241.702 212.153 241.702C213.003 241.702 213.689 241.917 214.211 242.346C214.734 242.775 215.014 243.363 215.051 244.11H213.777C213.749 243.709 213.586 243.387 213.287 243.144C212.998 242.901 212.606 242.78 212.111 242.78C211.654 242.78 211.29 242.878 211.019 243.074C210.749 243.27 210.613 243.527 210.613 243.844C210.613 244.096 210.693 244.306 210.851 244.474C211.019 244.633 211.225 244.763 211.467 244.866C211.719 244.959 212.065 245.067 212.503 245.188C213.054 245.337 213.502 245.487 213.847 245.636C214.193 245.776 214.487 245.991 214.729 246.28C214.981 246.569 215.112 246.947 215.121 247.414C215.121 247.834 215.005 248.212 214.771 248.548C214.538 248.884 214.207 249.15 213.777 249.346C213.357 249.533 212.872 249.626 212.321 249.626Z" fill="white"/>
<path d="M74.3751 307.831V326.029C74.3751 326.468 74.2007 326.889 73.8905 327.199C73.5802 327.51 73.1594 327.684 72.7206 327.684H57.2794C56.8406 327.684 56.4198 327.51 56.1096 327.199C55.7993 326.889 55.625 326.468 55.625 326.029V303.971C55.625 303.532 55.7993 303.111 56.1096 302.801C56.4198 302.49 56.8406 302.316 57.2794 302.316H68.8603L74.3751 307.831Z" stroke="white" stroke-width="1.4" stroke-linecap="round" stroke-linejoin="round"/>
<path d="M68.8604 302.316V306.176C68.8604 306.615 69.0347 307.036 69.3449 307.346C69.6552 307.657 70.076 307.831 70.5148 307.831H74.3751" stroke="white" stroke-width="1.4" stroke-linecap="round" stroke-linejoin="round"/>
<path d="M60.0369 313.346H69.9634" stroke="white" stroke-width="1.4" stroke-linecap="round" stroke-linejoin="round"/>
<path d="M60.0369 316.655H69.9634" stroke="white" stroke-width="1.4" stroke-linecap="round" stroke-linejoin="round"/>
<path d="M60.0369 319.963H69.9634" stroke="white" stroke-width="1.4" stroke-linecap="round" stroke-linejoin="round"/>
<path d="M60.0369 323.272H65.5516" stroke="white" stroke-width="1.4" stroke-linecap="round" stroke-linejoin="round"/>
<path d="M102.352 309.742V319.5H101.078V309.742H102.352ZM108.261 311.688C109.195 311.688 109.951 311.973 110.529 312.542C111.108 313.102 111.397 313.914 111.397 314.978V319.5H110.137V315.16C110.137 314.395 109.946 313.811 109.563 313.41C109.181 312.999 108.658 312.794 107.995 312.794C107.323 312.794 106.787 313.004 106.385 313.424C105.993 313.844 105.797 314.455 105.797 315.258V319.5H104.523V311.828H105.797V312.92C106.049 312.528 106.39 312.225 106.819 312.01C107.258 311.795 107.739 311.688 108.261 311.688ZM116.334 318.324L118.714 311.828H120.072L117.062 319.5H115.578L112.568 311.828H113.94L116.334 318.324ZM124.672 319.626C123.953 319.626 123.3 319.463 122.712 319.136C122.133 318.809 121.676 318.347 121.34 317.75C121.013 317.143 120.85 316.443 120.85 315.65C120.85 314.866 121.018 314.175 121.354 313.578C121.699 312.971 122.166 312.509 122.754 312.192C123.342 311.865 124 311.702 124.728 311.702C125.456 311.702 126.114 311.865 126.702 312.192C127.29 312.509 127.752 312.967 128.088 313.564C128.433 314.161 128.606 314.857 128.606 315.65C128.606 316.443 128.429 317.143 128.074 317.75C127.729 318.347 127.257 318.809 126.66 319.136C126.063 319.463 125.4 319.626 124.672 319.626ZM124.672 318.506C125.129 318.506 125.559 318.399 125.96 318.184C126.361 317.969 126.683 317.647 126.926 317.218C127.178 316.789 127.304 316.266 127.304 315.65C127.304 315.034 127.183 314.511 126.94 314.082C126.697 313.653 126.38 313.335 125.988 313.13C125.596 312.915 125.171 312.808 124.714 312.808C124.247 312.808 123.818 312.915 123.426 313.13C123.043 313.335 122.735 313.653 122.502 314.082C122.269 314.511 122.152 315.034 122.152 315.65C122.152 316.275 122.264 316.803 122.488 317.232C122.721 317.661 123.029 317.983 123.412 318.198C123.795 318.403 124.215 318.506 124.672 318.506ZM130.939 310.582C130.696 310.582 130.491 310.498 130.323 310.33C130.155 310.162 130.071 309.957 130.071 309.714C130.071 309.471 130.155 309.266 130.323 309.098C130.491 308.93 130.696 308.846 130.939 308.846C131.172 308.846 131.368 308.93 131.527 309.098C131.695 309.266 131.779 309.471 131.779 309.714C131.779 309.957 131.695 310.162 131.527 310.33C131.368 310.498 131.172 310.582 130.939 310.582ZM131.555 311.828V319.5H130.281V311.828H131.555ZM133.25 315.65C133.25 314.857 133.409 314.166 133.726 313.578C134.044 312.981 134.482 312.519 135.042 312.192C135.612 311.865 136.26 311.702 136.988 311.702C137.931 311.702 138.706 311.931 139.312 312.388C139.928 312.845 140.334 313.48 140.53 314.292H139.158C139.028 313.825 138.771 313.457 138.388 313.186C138.015 312.915 137.548 312.78 136.988 312.78C136.26 312.78 135.672 313.032 135.224 313.536C134.776 314.031 134.552 314.735 134.552 315.65C134.552 316.574 134.776 317.288 135.224 317.792C135.672 318.296 136.26 318.548 136.988 318.548C137.548 318.548 138.015 318.417 138.388 318.156C138.762 317.895 139.018 317.521 139.158 317.036H140.53C140.325 317.82 139.914 318.45 139.298 318.926C138.682 319.393 137.912 319.626 136.988 319.626C136.26 319.626 135.612 319.463 135.042 319.136C134.482 318.809 134.044 318.347 133.726 317.75C133.409 317.153 133.25 316.453 133.25 315.65ZM149.23 315.37C149.23 315.613 149.216 315.869 149.188 316.14H143.056C143.103 316.896 143.36 317.489 143.826 317.918C144.302 318.338 144.876 318.548 145.548 318.548C146.099 318.548 146.556 318.422 146.92 318.17C147.294 317.909 147.555 317.563 147.704 317.134H149.076C148.871 317.871 148.46 318.473 147.844 318.94C147.228 319.397 146.463 319.626 145.548 319.626C144.82 319.626 144.167 319.463 143.588 319.136C143.019 318.809 142.571 318.347 142.244 317.75C141.918 317.143 141.754 316.443 141.754 315.65C141.754 314.857 141.913 314.161 142.23 313.564C142.548 312.967 142.991 312.509 143.56 312.192C144.139 311.865 144.802 311.702 145.548 311.702C146.276 311.702 146.92 311.861 147.48 312.178C148.04 312.495 148.47 312.934 148.768 313.494C149.076 314.045 149.23 314.67 149.23 315.37ZM147.914 315.104C147.914 314.619 147.807 314.203 147.592 313.858C147.378 313.503 147.084 313.237 146.71 313.06C146.346 312.873 145.94 312.78 145.492 312.78C144.848 312.78 144.298 312.985 143.84 313.396C143.392 313.807 143.136 314.376 143.07 315.104H147.914ZM153.628 319.626C153.04 319.626 152.513 319.528 152.046 319.332C151.579 319.127 151.211 318.847 150.94 318.492C150.669 318.128 150.52 317.713 150.492 317.246H151.808C151.845 317.629 152.023 317.941 152.34 318.184C152.667 318.427 153.091 318.548 153.614 318.548C154.099 318.548 154.482 318.441 154.762 318.226C155.042 318.011 155.182 317.741 155.182 317.414C155.182 317.078 155.033 316.831 154.734 316.672C154.435 316.504 153.973 316.341 153.348 316.182C152.779 316.033 152.312 315.883 151.948 315.734C151.593 315.575 151.285 315.347 151.024 315.048C150.772 314.74 150.646 314.339 150.646 313.844C150.646 313.452 150.763 313.093 150.996 312.766C151.229 312.439 151.561 312.183 151.99 311.996C152.419 311.8 152.909 311.702 153.46 311.702C154.309 311.702 154.995 311.917 155.518 312.346C156.041 312.775 156.321 313.363 156.358 314.11H155.084C155.056 313.709 154.893 313.387 154.594 313.144C154.305 312.901 153.913 312.78 153.418 312.78C152.961 312.78 152.597 312.878 152.326 313.074C152.055 313.27 151.92 313.527 151.92 313.844C151.92 314.096 151.999 314.306 152.158 314.474C152.326 314.633 152.531 314.763 152.774 314.866C153.026 314.959 153.371 315.067 153.81 315.188C154.361 315.337 154.809 315.487 155.154 315.636C155.499 315.776 155.793 315.991 156.036 316.28C156.288 316.569 156.419 316.947 156.428 317.414C156.428 317.834 156.311 318.212 156.078 318.548C155.845 318.884 155.513 319.15 155.084 319.346C154.664 319.533 154.179 319.626 153.628 319.626Z" fill="white"/>
<path d="M54.3301 381.89H75.6816" stroke="white" stroke-width="1.7" stroke-linecap="round" stroke-linejoin="round"/>
<path d="M70.321 386.569H70.3316" stroke="white" stroke-width="1.7" stroke-linecap="round" stroke-linejoin="round"/>
<path d="M65.0059 386.569H65.0165" stroke="white" stroke-width="1.7" stroke-linecap="round" stroke-linejoin="round"/>
<path d="M59.6787 386.569H59.6893" stroke="white" stroke-width="1.7" stroke-linecap="round" stroke-linejoin="round"/>
<path d="M70.321 391.224H70.3316" stroke="white" stroke-width="1.7" stroke-linecap="round" stroke-linejoin="round"/>
<path d="M65.0059 391.224H65.0165" stroke="white" stroke-width="1.7" stroke-linecap="round" stroke-linejoin="round"/>
<path d="M59.6787 391.224H59.6893" stroke="white" stroke-width="1.7" stroke-linecap="round" stroke-linejoin="round"/>
<path d="M69.8442 373.021V376.963" stroke="white" stroke-width="1.7" stroke-linecap="round" stroke-linejoin="round"/>
<path d="M60.1675 373.021V376.963" stroke="white" stroke-width="1.7" stroke-linecap="round" stroke-linejoin="round"/>
<path fill-rule="evenodd" clip-rule="evenodd" d="M70.077 374.913H59.9339C56.416 374.913 54.2188 376.873 54.2188 380.475V391.315C54.2188 394.974 56.416 396.979 59.9339 396.979H70.0659C73.5949 396.979 75.7811 395.008 75.7811 391.406V380.475C75.7922 376.873 73.606 374.913 70.077 374.913Z" stroke="white" stroke-width="1.7" stroke-linecap="round" stroke-linejoin="round"/>
<path d="M107.602 382.598C107.602 383.41 107.322 384.087 106.762 384.628C106.211 385.16 105.367 385.426 104.228 385.426H102.352V389.5H101.078V379.742H104.228C105.329 379.742 106.165 380.008 106.734 380.54C107.313 381.072 107.602 381.758 107.602 382.598ZM104.228 384.376C104.937 384.376 105.46 384.222 105.796 383.914C106.132 383.606 106.3 383.167 106.3 382.598C106.3 381.394 105.609 380.792 104.228 380.792H102.352V384.376H104.228ZM110.459 379.14V389.5H109.185V379.14H110.459ZM112.155 385.636C112.155 384.852 112.313 384.166 112.631 383.578C112.948 382.981 113.382 382.519 113.933 382.192C114.493 381.865 115.113 381.702 115.795 381.702C116.467 381.702 117.05 381.847 117.545 382.136C118.039 382.425 118.408 382.789 118.651 383.228V381.828H119.939V389.5H118.651V388.072C118.399 388.52 118.021 388.893 117.517 389.192C117.022 389.481 116.443 389.626 115.781 389.626C115.099 389.626 114.483 389.458 113.933 389.122C113.382 388.786 112.948 388.315 112.631 387.708C112.313 387.101 112.155 386.411 112.155 385.636ZM118.651 385.65C118.651 385.071 118.534 384.567 118.301 384.138C118.067 383.709 117.75 383.382 117.349 383.158C116.957 382.925 116.523 382.808 116.047 382.808C115.571 382.808 115.137 382.92 114.745 383.144C114.353 383.368 114.04 383.695 113.807 384.124C113.573 384.553 113.457 385.057 113.457 385.636C113.457 386.224 113.573 386.737 113.807 387.176C114.04 387.605 114.353 387.937 114.745 388.17C115.137 388.394 115.571 388.506 116.047 388.506C116.523 388.506 116.957 388.394 117.349 388.17C117.75 387.937 118.067 387.605 118.301 387.176C118.534 386.737 118.651 386.229 118.651 385.65ZM125.83 381.688C126.763 381.688 127.519 381.973 128.098 382.542C128.676 383.102 128.966 383.914 128.966 384.978V389.5H127.706V385.16C127.706 384.395 127.514 383.811 127.132 383.41C126.749 382.999 126.226 382.794 125.564 382.794C124.892 382.794 124.355 383.004 123.954 383.424C123.562 383.844 123.366 384.455 123.366 385.258V389.5H122.092V381.828H123.366V382.92C123.618 382.528 123.958 382.225 124.388 382.01C124.826 381.795 125.307 381.688 125.83 381.688ZM134.785 381.688C135.718 381.688 136.474 381.973 137.053 382.542C137.631 383.102 137.921 383.914 137.921 384.978V389.5H136.661V385.16C136.661 384.395 136.469 383.811 136.087 383.41C135.704 382.999 135.181 382.794 134.519 382.794C133.847 382.794 133.31 383.004 132.909 383.424C132.517 383.844 132.321 384.455 132.321 385.258V389.5H131.047V381.828H132.321V382.92C132.573 382.528 132.913 382.225 133.343 382.01C133.781 381.795 134.262 381.688 134.785 381.688ZM140.66 380.582C140.417 380.582 140.212 380.498 140.044 380.33C139.876 380.162 139.792 379.957 139.792 379.714C139.792 379.471 139.876 379.266 140.044 379.098C140.212 378.93 140.417 378.846 140.66 378.846C140.893 378.846 141.089 378.93 141.248 379.098C141.416 379.266 141.5 379.471 141.5 379.714C141.5 379.957 141.416 380.162 141.248 380.33C141.089 380.498 140.893 380.582 140.66 380.582ZM141.276 381.828V389.5H140.002V381.828H141.276ZM147.185 381.688C148.118 381.688 148.874 381.973 149.453 382.542C150.032 383.102 150.321 383.914 150.321 384.978V389.5H149.061V385.16C149.061 384.395 148.87 383.811 148.487 383.41C148.104 382.999 147.582 382.794 146.919 382.794C146.247 382.794 145.71 383.004 145.309 383.424C144.917 383.844 144.721 384.455 144.721 385.258V389.5H143.447V381.828H144.721V382.92C144.973 382.528 145.314 382.225 145.743 382.01C146.182 381.795 146.662 381.688 147.185 381.688ZM155.566 381.702C156.229 381.702 156.808 381.847 157.302 382.136C157.806 382.425 158.18 382.789 158.422 383.228V381.828H159.71V389.668C159.71 390.368 159.561 390.989 159.262 391.53C158.964 392.081 158.534 392.51 157.974 392.818C157.424 393.126 156.78 393.28 156.042 393.28C155.034 393.28 154.194 393.042 153.522 392.566C152.85 392.09 152.454 391.441 152.332 390.62H153.592C153.732 391.087 154.022 391.46 154.46 391.74C154.899 392.029 155.426 392.174 156.042 392.174C156.742 392.174 157.312 391.955 157.75 391.516C158.198 391.077 158.422 390.461 158.422 389.668V388.058C158.17 388.506 157.797 388.879 157.302 389.178C156.808 389.477 156.229 389.626 155.566 389.626C154.885 389.626 154.264 389.458 153.704 389.122C153.154 388.786 152.72 388.315 152.402 387.708C152.085 387.101 151.926 386.411 151.926 385.636C151.926 384.852 152.085 384.166 152.402 383.578C152.72 382.981 153.154 382.519 153.704 382.192C154.264 381.865 154.885 381.702 155.566 381.702ZM158.422 385.65C158.422 385.071 158.306 384.567 158.072 384.138C157.839 383.709 157.522 383.382 157.12 383.158C156.728 382.925 156.294 382.808 155.818 382.808C155.342 382.808 154.908 382.92 154.516 383.144C154.124 383.368 153.812 383.695 153.578 384.124C153.345 384.553 153.228 385.057 153.228 385.636C153.228 386.224 153.345 386.737 153.578 387.176C153.812 387.605 154.124 387.937 154.516 388.17C154.908 388.394 155.342 388.506 155.818 388.506C156.294 388.506 156.728 388.394 157.12 388.17C157.522 387.937 157.839 387.605 158.072 387.176C158.306 386.737 158.422 386.229 158.422 385.65Z" fill="white"/>
<line x1="254.5" y1="-2.18557e-08" x2="254.5" y2="467" stroke="white"/>
</svg>
