<svg width="343" height="343" viewBox="0 0 343 343" fill="none" xmlns="http://www.w3.org/2000/svg">
<path d="M319.133 171.5C319.133 198.293 312.534 222.987 299.336 245.603C286.133 268.226 268.226 286.133 245.603 299.336C222.987 312.534 198.293 319.133 171.5 319.133C144.707 319.133 120.013 312.534 97.3971 299.336C74.7736 286.133 56.8667 268.226 43.6643 245.603C30.4664 222.987 23.8667 198.293 23.8667 171.5C23.8667 144.707 30.4664 120.013 43.6643 97.3971C56.8667 74.7736 74.7736 56.8667 97.3971 43.6643C120.013 30.4664 144.707 23.8667 171.5 23.8667C198.293 23.8667 222.987 30.4664 245.603 43.6643C268.226 56.8667 286.133 74.7736 299.336 97.3971C312.534 120.013 319.133 144.707 319.133 171.5Z" stroke="white" stroke-width="2"/>
<path d="M269.733 171.5C269.733 189.33 265.342 205.759 256.561 220.806C247.776 235.861 235.861 247.775 220.807 256.561C205.759 265.342 189.33 269.733 171.5 269.733C153.67 269.733 137.241 265.342 122.194 256.561C107.139 247.775 95.2246 235.861 86.4391 220.806C77.658 205.759 73.2667 189.33 73.2667 171.5C73.2667 153.67 77.658 137.241 86.4391 122.193C95.2246 107.139 107.139 95.2245 122.194 86.4389C137.241 77.6579 153.67 73.2666 171.5 73.2666C189.33 73.2666 205.759 77.6579 220.807 86.4389C235.861 95.2245 247.776 107.139 256.561 122.193C265.342 137.241 269.733 153.67 269.733 171.5Z" stroke="white" stroke-width="2"/>
<path d="M220.333 171.5C220.333 180.368 218.15 188.532 213.786 196.01C209.418 203.496 203.496 209.418 196.01 213.786C188.531 218.151 180.368 220.333 171.5 220.333C162.632 220.333 154.468 218.151 146.99 213.786C139.504 209.418 133.582 203.496 129.214 196.01C124.849 188.532 122.667 180.368 122.667 171.5C122.667 162.632 124.849 154.469 129.214 146.99C133.582 139.504 139.504 133.583 146.99 129.214C154.468 124.85 162.632 122.667 171.5 122.667C180.368 122.667 188.531 124.85 196.01 129.214C203.496 133.583 209.418 139.504 213.786 146.99C218.15 154.469 220.333 162.632 220.333 171.5Z" stroke="white" stroke-width="2"/>
</svg>
