<svg width="571" height="321" viewBox="0 0 571 321" fill="none" xmlns="http://www.w3.org/2000/svg">
<rect x="0.5" y="134.5" width="259" height="186" rx="19.5" stroke="white"/>
<rect x="311.5" y="134.5" width="259" height="186" rx="19.5" stroke="white"/>
<path d="M15.768 29.288L12.024 25.808C11.208 26.048 10.352 26.168 9.456 26.168C7.904 26.168 6.496 25.808 5.232 25.088C3.968 24.352 2.968 23.336 2.232 22.04C1.512 20.728 1.152 19.248 1.152 17.6C1.152 15.952 1.512 14.48 2.232 13.184C2.968 11.872 3.968 10.856 5.232 10.136C6.496 9.4 7.904 9.032 9.456 9.032C11.024 9.032 12.44 9.4 13.704 10.136C14.968 10.856 15.96 11.872 16.68 13.184C17.4 14.48 17.76 15.952 17.76 17.6C17.76 19.296 17.384 20.808 16.632 22.136C15.88 23.448 14.848 24.456 13.536 25.16L18.024 29.288H15.768ZM2.88 17.6C2.88 19.024 3.168 20.28 3.744 21.368C4.32 22.44 5.104 23.264 6.096 23.84C7.088 24.416 8.208 24.704 9.456 24.704C10.704 24.704 11.824 24.416 12.816 23.84C13.808 23.264 14.592 22.44 15.168 21.368C15.744 20.28 16.032 19.024 16.032 17.6C16.032 16.176 15.744 14.928 15.168 13.856C14.592 12.784 13.808 11.96 12.816 11.384C11.824 10.808 10.704 10.52 9.456 10.52C8.208 10.52 7.088 10.808 6.096 11.384C5.104 11.96 4.32 12.784 3.744 13.856C3.168 14.928 2.88 16.176 2.88 17.6ZM32.2095 12.896V26H30.5295V23.696C30.1455 24.512 29.5535 25.136 28.7535 25.568C27.9535 26 27.0575 26.216 26.0655 26.216C24.4975 26.216 23.2175 25.736 22.2255 24.776C21.2335 23.8 20.7375 22.392 20.7375 20.552V12.896H22.3935V20.36C22.3935 21.784 22.7455 22.872 23.4495 23.624C24.1695 24.376 25.1455 24.752 26.3775 24.752C27.6415 24.752 28.6495 24.352 29.4015 23.552C30.1535 22.752 30.5295 21.576 30.5295 20.024V12.896H32.2095ZM41.781 26.192C40.549 26.192 39.437 25.92 38.445 25.376C37.469 24.816 36.693 24.032 36.117 23.024C35.557 22 35.277 20.808 35.277 19.448C35.277 18.088 35.565 16.904 36.141 15.896C36.717 14.872 37.501 14.088 38.493 13.544C39.485 12.984 40.597 12.704 41.829 12.704C43.061 12.704 44.173 12.984 45.165 13.544C46.173 14.088 46.957 14.872 47.517 15.896C48.093 16.904 48.381 18.088 48.381 19.448C48.381 20.792 48.093 21.976 47.517 23C46.941 24.024 46.149 24.816 45.141 25.376C44.133 25.92 43.013 26.192 41.781 26.192ZM41.781 24.728C42.645 24.728 43.445 24.536 44.181 24.152C44.917 23.752 45.509 23.16 45.957 22.376C46.421 21.576 46.653 20.6 46.653 19.448C46.653 18.296 46.429 17.328 45.981 16.544C45.533 15.744 44.941 15.152 44.205 14.768C43.469 14.368 42.669 14.168 41.805 14.168C40.941 14.168 40.141 14.368 39.405 14.768C38.669 15.152 38.077 15.744 37.629 16.544C37.197 17.328 36.981 18.296 36.981 19.448C36.981 20.6 37.197 21.576 37.629 22.376C38.077 23.16 38.661 23.752 39.381 24.152C40.117 24.536 40.917 24.728 41.781 24.728ZM53.6274 14.312V22.448C53.6274 23.248 53.7794 23.8 54.0834 24.104C54.3874 24.408 54.9234 24.56 55.6914 24.56H57.2274V26H55.4274C54.2434 26 53.3634 25.728 52.7874 25.184C52.2114 24.624 51.9234 23.712 51.9234 22.448V14.312H50.0994V12.896H51.9234V9.608H53.6274V12.896H57.2274V14.312H53.6274ZM59.2301 19.424C59.2301 18.08 59.4941 16.904 60.0221 15.896C60.5661 14.872 61.3101 14.088 62.2541 13.544C63.2141 12.984 64.2941 12.704 65.4941 12.704C66.7421 12.704 67.8141 12.992 68.7101 13.568C69.6221 14.144 70.2781 14.88 70.6781 15.776V12.896H72.3581V26H70.6781V23.096C70.2621 23.992 69.5981 24.736 68.6861 25.328C67.7901 25.904 66.7181 26.192 65.4701 26.192C64.2861 26.192 63.2141 25.912 62.2541 25.352C61.3101 24.792 60.5661 24 60.0221 22.976C59.4941 21.952 59.2301 20.768 59.2301 19.424ZM70.6781 19.448C70.6781 18.392 70.4621 17.464 70.0301 16.664C69.5981 15.864 69.0061 15.248 68.2541 14.816C67.5181 14.384 66.7021 14.168 65.8061 14.168C64.8781 14.168 64.0461 14.376 63.3101 14.792C62.5741 15.208 61.9901 15.816 61.5581 16.616C61.1421 17.4 60.9341 18.336 60.9341 19.424C60.9341 20.496 61.1421 21.44 61.5581 22.256C61.9901 23.056 62.5741 23.672 63.3101 24.104C64.0461 24.52 64.8781 24.728 65.8061 24.728C66.7021 24.728 67.5181 24.512 68.2541 24.08C69.0061 23.648 69.5981 23.032 70.0301 22.232C70.4621 21.432 70.6781 20.504 70.6781 19.448ZM78.3774 14.312V22.448C78.3774 23.248 78.5294 23.8 78.8334 24.104C79.1374 24.408 79.6734 24.56 80.4414 24.56H81.9774V26H80.1774C78.9934 26 78.1134 25.728 77.5374 25.184C76.9614 24.624 76.6734 23.712 76.6734 22.448V14.312H74.8494V12.896H76.6734V9.608H78.3774V12.896H81.9774V14.312H78.3774ZM85.5881 10.424C85.2521 10.424 84.9641 10.304 84.7241 10.064C84.4841 9.824 84.3641 9.528 84.3641 9.176C84.3641 8.824 84.4841 8.536 84.7241 8.312C84.9641 8.072 85.2521 7.952 85.5881 7.952C85.9241 7.952 86.2121 8.072 86.4521 8.312C86.6921 8.536 86.8121 8.824 86.8121 9.176C86.8121 9.528 86.6921 9.824 86.4521 10.064C86.2121 10.304 85.9241 10.424 85.5881 10.424ZM86.4281 12.896V26H84.7481V12.896H86.4281ZM95.9685 26.192C94.7365 26.192 93.6245 25.92 92.6325 25.376C91.6565 24.816 90.8805 24.032 90.3045 23.024C89.7445 22 89.4645 20.808 89.4645 19.448C89.4645 18.088 89.7525 16.904 90.3285 15.896C90.9045 14.872 91.6885 14.088 92.6805 13.544C93.6725 12.984 94.7845 12.704 96.0165 12.704C97.2485 12.704 98.3605 12.984 99.3525 13.544C100.361 14.088 101.145 14.872 101.705 15.896C102.281 16.904 102.569 18.088 102.569 19.448C102.569 20.792 102.281 21.976 101.705 23C101.129 24.024 100.337 24.816 99.3285 25.376C98.3205 25.92 97.2005 26.192 95.9685 26.192ZM95.9685 24.728C96.8325 24.728 97.6325 24.536 98.3685 24.152C99.1045 23.752 99.6965 23.16 100.145 22.376C100.609 21.576 100.841 20.6 100.841 19.448C100.841 18.296 100.617 17.328 100.169 16.544C99.7205 15.744 99.1285 15.152 98.3925 14.768C97.6565 14.368 96.8565 14.168 95.9925 14.168C95.1285 14.168 94.3285 14.368 93.5925 14.768C92.8565 15.152 92.2645 15.744 91.8165 16.544C91.3845 17.328 91.1685 18.296 91.1685 19.448C91.1685 20.6 91.3845 21.576 91.8165 22.376C92.2645 23.16 92.8485 23.752 93.5685 24.152C94.3045 24.536 95.1045 24.728 95.9685 24.728ZM111.775 12.656C113.343 12.656 114.623 13.144 115.615 14.12C116.607 15.08 117.103 16.48 117.103 18.32V26H115.447V18.512C115.447 17.088 115.087 16 114.367 15.248C113.663 14.496 112.695 14.12 111.463 14.12C110.199 14.12 109.191 14.52 108.439 15.32C107.687 16.12 107.311 17.296 107.311 18.848V26H105.631V12.896H107.311V15.128C107.727 14.328 108.327 13.72 109.111 13.304C109.895 12.872 110.783 12.656 111.775 12.656Z" fill="white"/>
<path d="M151.7 13.418V26H150.44V13.418H151.7ZM159.161 15.992C160.337 15.992 161.297 16.358 162.041 17.09C162.785 17.81 163.157 18.86 163.157 20.24V26H161.915V20.384C161.915 19.316 161.645 18.5 161.105 17.936C160.577 17.372 159.851 17.09 158.927 17.09C157.979 17.09 157.223 17.39 156.659 17.99C156.095 18.59 155.813 19.472 155.813 20.636V26H154.553V16.172H155.813V17.846C156.125 17.246 156.575 16.79 157.163 16.478C157.751 16.154 158.417 15.992 159.161 15.992ZM178.245 13.418V14.462H174.753V26H173.493V14.462H169.983V13.418H178.245ZM181.495 17.918C181.771 17.306 182.191 16.832 182.755 16.496C183.331 16.16 184.033 15.992 184.861 15.992V17.306H184.519C183.607 17.306 182.875 17.552 182.323 18.044C181.771 18.536 181.495 19.358 181.495 20.51V26H180.235V16.172H181.495V17.918ZM195.648 20.582C195.648 21.014 195.636 21.344 195.612 21.572H187.458C187.494 22.316 187.674 22.952 187.998 23.48C188.322 24.008 188.748 24.41 189.276 24.686C189.804 24.95 190.38 25.082 191.004 25.082C191.82 25.082 192.504 24.884 193.056 24.488C193.62 24.092 193.992 23.558 194.172 22.886H195.504C195.264 23.846 194.748 24.632 193.956 25.244C193.176 25.844 192.192 26.144 191.004 26.144C190.08 26.144 189.252 25.94 188.52 25.532C187.788 25.112 187.212 24.524 186.792 23.768C186.384 23 186.18 22.106 186.18 21.086C186.18 20.066 186.384 19.172 186.792 18.404C187.2 17.636 187.77 17.048 188.502 16.64C189.234 16.232 190.068 16.028 191.004 16.028C191.94 16.028 192.756 16.232 193.452 16.64C194.16 17.048 194.7 17.6 195.072 18.296C195.456 18.98 195.648 19.742 195.648 20.582ZM194.37 20.546C194.382 19.814 194.232 19.19 193.92 18.674C193.62 18.158 193.206 17.768 192.678 17.504C192.15 17.24 191.574 17.108 190.95 17.108C190.014 17.108 189.216 17.408 188.556 18.008C187.896 18.608 187.53 19.454 187.458 20.546H194.37ZM197.378 21.068C197.378 20.06 197.576 19.178 197.972 18.422C198.38 17.654 198.938 17.066 199.646 16.658C200.366 16.238 201.176 16.028 202.076 16.028C203.012 16.028 203.816 16.244 204.488 16.676C205.172 17.108 205.664 17.66 205.964 18.332V16.172H207.224V26H205.964V23.822C205.652 24.494 205.154 25.052 204.47 25.496C203.798 25.928 202.994 26.144 202.058 26.144C201.17 26.144 200.366 25.934 199.646 25.514C198.938 25.094 198.38 24.5 197.972 23.732C197.576 22.964 197.378 22.076 197.378 21.068ZM205.964 21.086C205.964 20.294 205.802 19.598 205.478 18.998C205.154 18.398 204.71 17.936 204.146 17.612C203.594 17.288 202.982 17.126 202.31 17.126C201.614 17.126 200.99 17.282 200.438 17.594C199.886 17.906 199.448 18.362 199.124 18.962C198.812 19.55 198.656 20.252 198.656 21.068C198.656 21.872 198.812 22.58 199.124 23.192C199.448 23.792 199.886 24.254 200.438 24.578C200.99 24.89 201.614 25.046 202.31 25.046C202.982 25.046 203.594 24.884 204.146 24.56C204.71 24.236 205.154 23.774 205.478 23.174C205.802 22.574 205.964 21.878 205.964 21.086ZM211.738 17.234V23.336C211.738 23.936 211.852 24.35 212.08 24.578C212.308 24.806 212.71 24.92 213.286 24.92H214.438V26H213.088C212.2 26 211.54 25.796 211.108 25.388C210.676 24.968 210.46 24.284 210.46 23.336V17.234H209.092V16.172H210.46V13.706H211.738V16.172H214.438V17.234H211.738ZM228.216 15.992C229.368 15.992 230.304 16.358 231.024 17.09C231.756 17.81 232.122 18.86 232.122 20.24V26H230.88V20.384C230.88 19.316 230.622 18.5 230.106 17.936C229.59 17.372 228.888 17.09 228 17.09C227.076 17.09 226.338 17.396 225.786 18.008C225.234 18.62 224.958 19.508 224.958 20.672V26H223.716V20.384C223.716 19.316 223.458 18.5 222.942 17.936C222.426 17.372 221.718 17.09 220.818 17.09C219.894 17.09 219.156 17.396 218.604 18.008C218.052 18.62 217.776 19.508 217.776 20.672V26H216.516V16.172H217.776V17.864C218.088 17.252 218.532 16.79 219.108 16.478C219.684 16.154 220.326 15.992 221.034 15.992C221.886 15.992 222.63 16.196 223.266 16.604C223.914 17.012 224.382 17.612 224.67 18.404C224.934 17.624 225.384 17.03 226.02 16.622C226.668 16.202 227.4 15.992 228.216 15.992ZM243.812 20.582C243.812 21.014 243.8 21.344 243.776 21.572H235.622C235.658 22.316 235.838 22.952 236.162 23.48C236.486 24.008 236.912 24.41 237.44 24.686C237.968 24.95 238.544 25.082 239.168 25.082C239.984 25.082 240.668 24.884 241.22 24.488C241.784 24.092 242.156 23.558 242.336 22.886H243.668C243.428 23.846 242.912 24.632 242.12 25.244C241.34 25.844 240.356 26.144 239.168 26.144C238.244 26.144 237.416 25.94 236.684 25.532C235.952 25.112 235.376 24.524 234.956 23.768C234.548 23 234.344 22.106 234.344 21.086C234.344 20.066 234.548 19.172 234.956 18.404C235.364 17.636 235.934 17.048 236.666 16.64C237.398 16.232 238.232 16.028 239.168 16.028C240.104 16.028 240.92 16.232 241.616 16.64C242.324 17.048 242.864 17.6 243.236 18.296C243.62 18.98 243.812 19.742 243.812 20.582ZM242.534 20.546C242.546 19.814 242.396 19.19 242.084 18.674C241.784 18.158 241.37 17.768 240.842 17.504C240.314 17.24 239.738 17.108 239.114 17.108C238.178 17.108 237.38 17.408 236.72 18.008C236.06 18.608 235.694 19.454 235.622 20.546H242.534ZM250.726 15.992C251.902 15.992 252.862 16.358 253.606 17.09C254.35 17.81 254.722 18.86 254.722 20.24V26H253.48V20.384C253.48 19.316 253.21 18.5 252.67 17.936C252.142 17.372 251.416 17.09 250.492 17.09C249.544 17.09 248.788 17.39 248.224 17.99C247.66 18.59 247.378 19.472 247.378 20.636V26H246.118V16.172H247.378V17.846C247.69 17.246 248.14 16.79 248.728 16.478C249.316 16.154 249.982 15.992 250.726 15.992ZM259.146 17.234V23.336C259.146 23.936 259.26 24.35 259.488 24.578C259.716 24.806 260.118 24.92 260.694 24.92H261.846V26H260.496C259.608 26 258.948 25.796 258.516 25.388C258.084 24.968 257.868 24.284 257.868 23.336V17.234H256.5V16.172H257.868V13.706H259.146V16.172H261.846V17.234H259.146Z" fill="white"/>
<path d="M25.166 161.418C26.558 161.418 27.752 161.67 28.748 162.174C29.744 162.678 30.506 163.404 31.034 164.352C31.562 165.3 31.826 166.428 31.826 167.736C31.826 169.032 31.562 170.154 31.034 171.102C30.506 172.038 29.744 172.758 28.748 173.262C27.752 173.754 26.558 174 25.166 174H21.44V161.418H25.166ZM25.166 172.956C26.918 172.956 28.25 172.5 29.162 171.588C30.086 170.664 30.548 169.38 30.548 167.736C30.548 166.08 30.086 164.79 29.162 163.866C28.25 162.93 26.918 162.462 25.166 162.462H22.7V172.956H25.166ZM43.041 168.582C43.041 169.014 43.029 169.344 43.005 169.572H34.851C34.887 170.316 35.067 170.952 35.391 171.48C35.715 172.008 36.141 172.41 36.669 172.686C37.197 172.95 37.773 173.082 38.397 173.082C39.213 173.082 39.897 172.884 40.449 172.488C41.013 172.092 41.385 171.558 41.565 170.886H42.897C42.657 171.846 42.141 172.632 41.349 173.244C40.569 173.844 39.585 174.144 38.397 174.144C37.473 174.144 36.645 173.94 35.913 173.532C35.181 173.112 34.605 172.524 34.185 171.768C33.777 171 33.573 170.106 33.573 169.086C33.573 168.066 33.777 167.172 34.185 166.404C34.593 165.636 35.163 165.048 35.895 164.64C36.627 164.232 37.461 164.028 38.397 164.028C39.333 164.028 40.149 164.232 40.845 164.64C41.553 165.048 42.093 165.6 42.465 166.296C42.849 166.98 43.041 167.742 43.041 168.582ZM41.763 168.546C41.775 167.814 41.625 167.19 41.313 166.674C41.013 166.158 40.599 165.768 40.071 165.504C39.543 165.24 38.967 165.108 38.343 165.108C37.407 165.108 36.609 165.408 35.949 166.008C35.289 166.608 34.923 167.454 34.851 168.546H41.763ZM46.9843 165.234V171.336C46.9843 171.936 47.0983 172.35 47.3263 172.578C47.5543 172.806 47.9563 172.92 48.5322 172.92H49.6843V174H48.3343C47.4463 174 46.7863 173.796 46.3543 173.388C45.9223 172.968 45.7063 172.284 45.7063 171.336V165.234H44.3383V164.172H45.7063V161.706H46.9843V164.172H49.6843V165.234H46.9843ZM51.1863 169.068C51.1863 168.06 51.3843 167.178 51.7803 166.422C52.1883 165.654 52.7463 165.066 53.4543 164.658C54.1743 164.238 54.9843 164.028 55.8843 164.028C56.8203 164.028 57.6243 164.244 58.2963 164.676C58.9803 165.108 59.4723 165.66 59.7723 166.332V164.172H61.0323V174H59.7723V171.822C59.4603 172.494 58.9623 173.052 58.2783 173.496C57.6063 173.928 56.8023 174.144 55.8663 174.144C54.9783 174.144 54.1743 173.934 53.4543 173.514C52.7463 173.094 52.1883 172.5 51.7803 171.732C51.3843 170.964 51.1863 170.076 51.1863 169.068ZM59.7723 169.086C59.7723 168.294 59.6103 167.598 59.2863 166.998C58.9623 166.398 58.5183 165.936 57.9543 165.612C57.4023 165.288 56.7903 165.126 56.1183 165.126C55.4223 165.126 54.7983 165.282 54.2463 165.594C53.6943 165.906 53.2563 166.362 52.9323 166.962C52.6203 167.55 52.4643 168.252 52.4643 169.068C52.4643 169.872 52.6203 170.58 52.9323 171.192C53.2563 171.792 53.6943 172.254 54.2463 172.578C54.7983 172.89 55.4223 173.046 56.1183 173.046C56.7903 173.046 57.4023 172.884 57.9543 172.56C58.5183 172.236 58.9623 171.774 59.2863 171.174C59.6103 170.574 59.7723 169.878 59.7723 169.086ZM64.5388 162.318C64.2868 162.318 64.0708 162.228 63.8908 162.048C63.7108 161.868 63.6208 161.646 63.6208 161.382C63.6208 161.118 63.7108 160.902 63.8908 160.734C64.0708 160.554 64.2868 160.464 64.5388 160.464C64.7908 160.464 65.0068 160.554 65.1868 160.734C65.3668 160.902 65.4568 161.118 65.4568 161.382C65.4568 161.646 65.3668 161.868 65.1868 162.048C65.0068 162.228 64.7908 162.318 64.5388 162.318ZM65.1688 164.172V174H63.9088V164.172H65.1688ZM69.282 160.68V174H68.022V160.68H69.282ZM75.5193 174.144C74.3913 174.144 73.4673 173.886 72.7473 173.37C72.0393 172.842 71.6433 172.128 71.5593 171.228H72.8553C72.9153 171.78 73.1733 172.23 73.6293 172.578C74.0973 172.914 74.7213 173.082 75.5013 173.082C76.1853 173.082 76.7193 172.92 77.1033 172.596C77.4993 172.272 77.6973 171.87 77.6973 171.39C77.6973 171.054 77.5893 170.778 77.3733 170.562C77.1573 170.346 76.8813 170.178 76.5453 170.058C76.2213 169.926 75.7773 169.788 75.2133 169.644C74.4813 169.452 73.8873 169.26 73.4313 169.068C72.9753 168.876 72.5853 168.594 72.2613 168.222C71.9493 167.838 71.7933 167.328 71.7933 166.692C71.7933 166.212 71.9373 165.768 72.2253 165.36C72.5133 164.952 72.9213 164.628 73.4493 164.388C73.9773 164.148 74.5773 164.028 75.2493 164.028C76.3053 164.028 77.1573 164.298 77.8053 164.838C78.4533 165.366 78.8013 166.098 78.8493 167.034H77.5893C77.5533 166.458 77.3253 165.996 76.9053 165.648C76.4973 165.288 75.9333 165.108 75.2133 165.108C74.5773 165.108 74.0613 165.258 73.6653 165.558C73.2693 165.858 73.0713 166.23 73.0713 166.674C73.0713 167.058 73.1853 167.376 73.4133 167.628C73.6533 167.868 73.9473 168.06 74.2953 168.204C74.6433 168.336 75.1113 168.486 75.6993 168.654C76.4073 168.846 76.9713 169.032 77.3913 169.212C77.8113 169.392 78.1713 169.656 78.4713 170.004C78.7713 170.352 78.9273 170.814 78.9393 171.39C78.9393 171.918 78.7953 172.392 78.5073 172.812C78.2193 173.22 77.8173 173.544 77.3013 173.784C76.7853 174.024 76.1913 174.144 75.5193 174.144Z" fill="white"/>
<path d="M336.166 161.418C337.558 161.418 338.752 161.67 339.748 162.174C340.744 162.678 341.506 163.404 342.034 164.352C342.562 165.3 342.826 166.428 342.826 167.736C342.826 169.032 342.562 170.154 342.034 171.102C341.506 172.038 340.744 172.758 339.748 173.262C338.752 173.754 337.558 174 336.166 174H332.44V161.418H336.166ZM336.166 172.956C337.918 172.956 339.25 172.5 340.162 171.588C341.086 170.664 341.548 169.38 341.548 167.736C341.548 166.08 341.086 164.79 340.162 163.866C339.25 162.93 337.918 162.462 336.166 162.462H333.7V172.956H336.166ZM354.041 168.582C354.041 169.014 354.029 169.344 354.005 169.572H345.851C345.887 170.316 346.067 170.952 346.391 171.48C346.715 172.008 347.141 172.41 347.669 172.686C348.197 172.95 348.773 173.082 349.397 173.082C350.213 173.082 350.897 172.884 351.449 172.488C352.013 172.092 352.385 171.558 352.565 170.886H353.897C353.657 171.846 353.141 172.632 352.349 173.244C351.569 173.844 350.585 174.144 349.397 174.144C348.473 174.144 347.645 173.94 346.913 173.532C346.181 173.112 345.605 172.524 345.185 171.768C344.777 171 344.573 170.106 344.573 169.086C344.573 168.066 344.777 167.172 345.185 166.404C345.593 165.636 346.163 165.048 346.895 164.64C347.627 164.232 348.461 164.028 349.397 164.028C350.333 164.028 351.149 164.232 351.845 164.64C352.553 165.048 353.093 165.6 353.465 166.296C353.849 166.98 354.041 167.742 354.041 168.582ZM352.763 168.546C352.775 167.814 352.625 167.19 352.313 166.674C352.013 166.158 351.599 165.768 351.071 165.504C350.543 165.24 349.967 165.108 349.343 165.108C348.407 165.108 347.609 165.408 346.949 166.008C346.289 166.608 345.923 167.454 345.851 168.546H352.763ZM357.984 165.234V171.336C357.984 171.936 358.098 172.35 358.326 172.578C358.554 172.806 358.956 172.92 359.532 172.92H360.684V174H359.334C358.446 174 357.786 173.796 357.354 173.388C356.922 172.968 356.706 172.284 356.706 171.336V165.234H355.338V164.172H356.706V161.706H357.984V164.172H360.684V165.234H357.984ZM362.186 169.068C362.186 168.06 362.384 167.178 362.78 166.422C363.188 165.654 363.746 165.066 364.454 164.658C365.174 164.238 365.984 164.028 366.884 164.028C367.82 164.028 368.624 164.244 369.296 164.676C369.98 165.108 370.472 165.66 370.772 166.332V164.172H372.032V174H370.772V171.822C370.46 172.494 369.962 173.052 369.278 173.496C368.606 173.928 367.802 174.144 366.866 174.144C365.978 174.144 365.174 173.934 364.454 173.514C363.746 173.094 363.188 172.5 362.78 171.732C362.384 170.964 362.186 170.076 362.186 169.068ZM370.772 169.086C370.772 168.294 370.61 167.598 370.286 166.998C369.962 166.398 369.518 165.936 368.954 165.612C368.402 165.288 367.79 165.126 367.118 165.126C366.422 165.126 365.798 165.282 365.246 165.594C364.694 165.906 364.256 166.362 363.932 166.962C363.62 167.55 363.464 168.252 363.464 169.068C363.464 169.872 363.62 170.58 363.932 171.192C364.256 171.792 364.694 172.254 365.246 172.578C365.798 172.89 366.422 173.046 367.118 173.046C367.79 173.046 368.402 172.884 368.954 172.56C369.518 172.236 369.962 171.774 370.286 171.174C370.61 170.574 370.772 169.878 370.772 169.086ZM375.539 162.318C375.287 162.318 375.071 162.228 374.891 162.048C374.711 161.868 374.621 161.646 374.621 161.382C374.621 161.118 374.711 160.902 374.891 160.734C375.071 160.554 375.287 160.464 375.539 160.464C375.791 160.464 376.007 160.554 376.187 160.734C376.367 160.902 376.457 161.118 376.457 161.382C376.457 161.646 376.367 161.868 376.187 162.048C376.007 162.228 375.791 162.318 375.539 162.318ZM376.169 164.172V174H374.909V164.172H376.169ZM380.282 160.68V174H379.022V160.68H380.282ZM386.519 174.144C385.391 174.144 384.467 173.886 383.747 173.37C383.039 172.842 382.643 172.128 382.559 171.228H383.855C383.915 171.78 384.173 172.23 384.629 172.578C385.097 172.914 385.721 173.082 386.501 173.082C387.185 173.082 387.719 172.92 388.103 172.596C388.499 172.272 388.697 171.87 388.697 171.39C388.697 171.054 388.589 170.778 388.373 170.562C388.157 170.346 387.881 170.178 387.545 170.058C387.221 169.926 386.777 169.788 386.213 169.644C385.481 169.452 384.887 169.26 384.431 169.068C383.975 168.876 383.585 168.594 383.261 168.222C382.949 167.838 382.793 167.328 382.793 166.692C382.793 166.212 382.937 165.768 383.225 165.36C383.513 164.952 383.921 164.628 384.449 164.388C384.977 164.148 385.577 164.028 386.249 164.028C387.305 164.028 388.157 164.298 388.805 164.838C389.453 165.366 389.801 166.098 389.849 167.034H388.589C388.553 166.458 388.325 165.996 387.905 165.648C387.497 165.288 386.933 165.108 386.213 165.108C385.577 165.108 385.061 165.258 384.665 165.558C384.269 165.858 384.071 166.23 384.071 166.674C384.071 167.058 384.185 167.376 384.413 167.628C384.653 167.868 384.947 168.06 385.295 168.204C385.643 168.336 386.111 168.486 386.699 168.654C387.407 168.846 387.971 169.032 388.391 169.212C388.811 169.392 389.171 169.656 389.471 170.004C389.771 170.352 389.927 170.814 389.939 171.39C389.939 171.918 389.795 172.392 389.507 172.812C389.219 173.22 388.817 173.544 388.301 173.784C387.785 174.024 387.191 174.144 386.519 174.144Z" fill="white"/>
<path d="M519.199 18.373L519.2 18.3731C520.675 18.6551 521.74 19.949 521.731 21.4506V21.4505H521.656L521.731 21.4509L519.199 18.373ZM519.199 18.373C519.001 18.3356 518.802 18.2923 518.605 18.245C518.191 18.1435 517.784 18.0176 517.385 17.868C516.384 17.4898 515.257 17.917 514.759 18.8639L514.759 18.8641L514.032 20.2592C512.937 19.6299 511.93 18.8579 511.038 17.9636C510.146 17.0686 509.376 16.0597 508.749 14.9631M519.199 18.373L508.749 14.9631M508.749 14.9631L510.136 14.2416L510.136 14.2415C511.083 13.7434 511.511 12.6177 511.133 11.6167C510.983 11.2174 510.857 10.8095 510.755 10.3951C510.755 10.3951 510.755 10.3951 510.755 10.3951L510.682 10.413M508.749 14.9631L504.425 7.26879L504.425 7.34379M510.682 10.413C510.634 10.215 510.591 10.0154 510.554 9.8142C510.279 8.37453 509.015 7.33593 507.549 7.34379M510.682 10.413C510.785 10.8303 510.912 11.241 511.063 11.6432L510.682 10.413ZM507.549 7.34379V7.26879H507.549C507.548 7.26879 507.548 7.2688 507.548 7.2688L507.549 7.34379ZM507.549 7.34379H504.425M504.425 7.34379V7.26879C503.504 7.26873 502.628 7.67075 502.028 8.36945M504.425 7.34379C503.525 7.34373 502.671 7.73624 502.085 8.4184M502.085 8.4184L502.028 8.36938C502.028 8.3694 502.028 8.36943 502.028 8.36945M502.085 8.4184C501.504 9.09065 501.246 9.98273 501.377 10.8611M502.085 8.4184L502.028 8.36953C502.028 8.3695 502.028 8.36948 502.028 8.36945M502.028 8.36945L501.377 10.8611M501.377 10.8611C502.73 19.4919 509.501 26.2639 518.135 27.6216C518.285 27.6444 518.437 27.656 518.589 27.6562L501.377 10.8611ZM509.597 13.2085C510.022 12.9832 510.213 12.4765 510.042 12.0268L510.042 12.0265C509.876 11.5835 509.736 11.1312 509.623 10.6718L509.623 10.6715C509.57 10.4534 509.522 10.233 509.482 10.0125M509.597 13.2085L518.346 19.3033M509.597 13.2085C509.597 13.2086 509.597 13.2086 509.597 13.2087L507.684 14.2037C507.398 14.3521 507.287 14.7035 507.436 14.9888L507.502 14.9543M509.597 13.2085L507.436 14.9888M509.482 10.0125C509.482 10.0123 509.482 10.0122 509.481 10.0121L509.555 9.99859L509.482 10.0129C509.482 10.0128 509.482 10.0126 509.482 10.0125ZM509.482 10.0125C509.302 9.08987 508.49 8.42634 507.549 8.43392L507.549 8.43392L504.425 8.43392H504.425C503.843 8.4338 503.29 8.68788 502.912 9.12943L502.912 9.12969C502.538 9.56135 502.372 10.1346 502.456 10.699M502.456 10.699C502.456 10.6989 502.456 10.6988 502.456 10.6988L502.382 10.7104L502.456 10.6992C502.456 10.6992 502.456 10.6991 502.456 10.699ZM502.456 10.699C503.735 18.8585 510.136 25.2606 518.299 26.5442C518.864 26.6274 519.436 26.4611 519.869 26.0886L519.869 26.0885C520.311 25.7098 520.565 25.157 520.566 24.5752C520.566 24.5752 520.566 24.5752 520.566 24.5751V21.4505V21.4499C520.573 20.5094 519.909 19.6971 518.985 19.5177C518.764 19.4759 518.545 19.43 518.328 19.3761M518.328 19.3761C518.328 19.3761 518.328 19.3761 518.328 19.376L518.346 19.3033M518.328 19.3761C518.329 19.3761 518.329 19.3761 518.329 19.3761L518.346 19.3033M518.328 19.3761C517.869 19.2642 517.417 19.1246 516.974 18.9581L516.974 18.958C516.524 18.7875 516.018 18.9781 515.792 19.4026L515.792 19.4023L515.726 19.3677M518.346 19.3033C517.89 19.192 517.44 19.0533 517 18.8879C516.515 18.7039 515.969 18.9096 515.726 19.3677M515.726 19.3677L514.724 21.2909M515.726 19.3677L514.724 21.2909M514.724 21.2909C514.662 21.41 514.555 21.4995 514.427 21.5397C514.298 21.5791 514.159 21.567 514.039 21.506C512.647 20.7798 511.374 19.8443 510.266 18.7323C509.157 17.6213 508.225 16.3472 507.502 14.9543M514.724 21.2909L507.718 14.2703C507.47 14.3996 507.373 14.7057 507.502 14.9543M507.502 14.9543L507.436 14.9888M507.436 14.9888C508.162 16.3886 509.099 17.6689 510.213 18.7852C511.326 19.9027 512.605 20.8427 514.004 21.5725L514.005 21.5729C514.142 21.6427 514.301 21.6565 514.449 21.6114L514.449 21.6113C514.596 21.5651 514.719 21.4623 514.791 21.3257L514.791 21.3255L515.792 19.4029L507.436 14.9888ZM520.629 26.9727C520.629 26.9726 520.629 26.9726 520.629 26.9725L520.58 26.9157L520.629 26.9727Z" fill="white" stroke="white" stroke-width="0.15"/>
<path d="M476.6 10.167L466.5 16.0871L456.401 10.167C456.501 10.0668 456.613 9.97928 456.735 9.90664C456.996 9.75066 457.291 9.66825 457.591 9.66663H475.409C475.709 9.66825 476.004 9.75066 476.265 9.90664C476.387 9.97928 476.499 10.0668 476.6 10.167Z" stroke="white"/>
<path d="M466.5 18.6454C466.72 18.6454 466.935 18.5836 467.122 18.469C467.122 18.4688 467.123 18.4685 467.123 18.4683L476.833 12.5564V23.526C476.833 24.0151 476.651 24.4784 476.334 24.8152C476.019 25.151 475.598 25.3333 475.167 25.3333H457.833C457.402 25.3333 456.981 25.151 456.666 24.8152C456.349 24.4784 456.167 24.0151 456.167 23.526V12.5564L465.877 18.4683C465.877 18.4686 465.878 18.4688 465.878 18.469C466.065 18.5837 466.28 18.6454 466.5 18.6454Z" stroke="white"/>
<path d="M277.483 7.48408L277.483 7.48404C277.803 7.16365 278.325 7.16365 278.645 7.48404L280.516 9.35463C280.516 9.35465 280.516 9.35466 280.516 9.35468L280.516 9.35478L277.483 7.48408ZM277.483 7.48408L276.464 8.50477L276.464 8.50481L270.683 14.2853C270.659 14.3095 270.641 14.3361 270.627 14.3622C270.622 14.3693 270.618 14.3774 270.615 14.3859C270.604 14.4097 270.595 14.4357 270.59 14.463C270.588 14.4674 270.587 14.4729 270.586 14.4794L270.252 16.8186L270.252 16.8186L270.351 16.8327L277.483 7.48408ZM270.597 14.4453L270.596 14.4456L270.597 14.4453ZM271.405 14.5255L276.705 9.22666L278.773 11.295L273.475 16.5951L271.405 14.5255ZM271.086 17.0739C271.086 17.0739 271.086 17.0739 271.086 17.0739C271.042 17.0802 270.999 17.0658 270.967 17.0337C270.934 17.0016 270.92 16.9584 270.926 16.9142C270.926 16.9142 270.926 16.9142 270.926 16.9142L271.165 15.2474L272.753 16.8354L271.086 17.0739ZM280.034 10.0341L279.255 10.8134L277.187 8.745L277.966 7.9657C278.021 7.91098 278.11 7.91098 278.165 7.9657L280.034 9.83524C280.089 9.88996 280.089 9.97934 280.034 10.0341Z" fill="white" stroke="white" stroke-width="0.2"/>
<path d="M206.837 68H205.857L200.439 59.768V68H199.459V58.214H200.439L205.857 66.432V58.214H206.837V68ZM215.973 63.786C215.973 64.122 215.963 64.3787 215.945 64.556H209.603C209.631 65.1347 209.771 65.6293 210.023 66.04C210.275 66.4507 210.606 66.7633 211.017 66.978C211.427 67.1833 211.875 67.286 212.361 67.286C212.995 67.286 213.527 67.132 213.957 66.824C214.395 66.516 214.685 66.1007 214.825 65.578H215.861C215.674 66.3247 215.273 66.936 214.657 67.412C214.05 67.8787 213.285 68.112 212.361 68.112C211.642 68.112 210.998 67.9533 210.429 67.636C209.859 67.3093 209.411 66.852 209.085 66.264C208.767 65.6667 208.609 64.9713 208.609 64.178C208.609 63.3847 208.767 62.6893 209.085 62.092C209.402 61.4947 209.845 61.0373 210.415 60.72C210.984 60.4027 211.633 60.244 212.361 60.244C213.089 60.244 213.723 60.4027 214.265 60.72C214.815 61.0373 215.235 61.4667 215.525 62.008C215.823 62.54 215.973 63.1327 215.973 63.786ZM214.979 63.758C214.988 63.1887 214.871 62.7033 214.629 62.302C214.395 61.9007 214.073 61.5973 213.663 61.392C213.252 61.1867 212.804 61.084 212.319 61.084C211.591 61.084 210.97 61.3173 210.457 61.784C209.943 62.2507 209.659 62.9087 209.603 63.758H214.979ZM227.846 60.356L225.452 68H224.472L222.358 61.588L220.244 68H219.25L216.856 60.356H217.85L219.754 67.006L221.896 60.356H222.876L224.99 67.02L226.88 60.356H227.846ZM232.575 64.164C232.575 63.38 232.734 62.694 233.051 62.106C233.369 61.5087 233.803 61.0513 234.353 60.734C234.913 60.4073 235.543 60.244 236.243 60.244C236.962 60.244 237.587 60.4167 238.119 60.762C238.651 61.098 239.029 61.5227 239.253 62.036V60.356H240.233V71.612H239.253V66.32C239.029 66.8333 238.647 67.2627 238.105 67.608C237.573 67.944 236.943 68.112 236.215 68.112C235.525 68.112 234.899 67.9487 234.339 67.622C233.789 67.2953 233.355 66.8333 233.037 66.236C232.729 65.6387 232.575 64.948 232.575 64.164ZM239.253 64.178C239.253 63.562 239.127 63.0207 238.875 62.554C238.623 62.0873 238.278 61.728 237.839 61.476C237.41 61.224 236.934 61.098 236.411 61.098C235.87 61.098 235.385 61.2193 234.955 61.462C234.526 61.7047 234.185 62.0593 233.933 62.526C233.691 62.9833 233.569 63.5293 233.569 64.164C233.569 64.7893 233.691 65.34 233.933 65.816C234.185 66.2827 234.526 66.642 234.955 66.894C235.385 67.1367 235.87 67.258 236.411 67.258C236.934 67.258 237.41 67.132 237.839 66.88C238.278 66.628 238.623 66.2687 238.875 65.802C239.127 65.3353 239.253 64.794 239.253 64.178ZM249.093 60.356V68H248.113V66.656C247.889 67.132 247.543 67.496 247.077 67.748C246.61 68 246.087 68.126 245.509 68.126C244.594 68.126 243.847 67.846 243.269 67.286C242.69 66.7167 242.401 65.8953 242.401 64.822V60.356H243.367V64.71C243.367 65.5407 243.572 66.1753 243.983 66.614C244.403 67.0527 244.972 67.272 245.691 67.272C246.428 67.272 247.016 67.0387 247.455 66.572C247.893 66.1053 248.113 65.4193 248.113 64.514V60.356H249.093ZM254.676 68.112C253.957 68.112 253.309 67.9533 252.73 67.636C252.161 67.3093 251.708 66.852 251.372 66.264C251.045 65.6667 250.882 64.9713 250.882 64.178C250.882 63.3847 251.05 62.694 251.386 62.106C251.722 61.5087 252.179 61.0513 252.758 60.734C253.337 60.4073 253.985 60.244 254.704 60.244C255.423 60.244 256.071 60.4073 256.65 60.734C257.238 61.0513 257.695 61.5087 258.022 62.106C258.358 62.694 258.526 63.3847 258.526 64.178C258.526 64.962 258.358 65.6527 258.022 66.25C257.686 66.8473 257.224 67.3093 256.636 67.636C256.048 67.9533 255.395 68.112 254.676 68.112ZM254.676 67.258C255.18 67.258 255.647 67.146 256.076 66.922C256.505 66.6887 256.851 66.3433 257.112 65.886C257.383 65.4193 257.518 64.85 257.518 64.178C257.518 63.506 257.387 62.9413 257.126 62.484C256.865 62.0173 256.519 61.672 256.09 61.448C255.661 61.2147 255.194 61.098 254.69 61.098C254.186 61.098 253.719 61.2147 253.29 61.448C252.861 61.672 252.515 62.0173 252.254 62.484C252.002 62.9413 251.876 63.506 251.876 64.178C251.876 64.85 252.002 65.4193 252.254 65.886C252.515 66.3433 252.856 66.6887 253.276 66.922C253.705 67.146 254.172 67.258 254.676 67.258ZM261.586 61.182V65.928C261.586 66.3947 261.675 66.7167 261.852 66.894C262.03 67.0713 262.342 67.16 262.79 67.16H263.686V68H262.636C261.946 68 261.432 67.8413 261.096 67.524C260.76 67.1973 260.592 66.6653 260.592 65.928V61.182H259.528V60.356H260.592V58.438H261.586V60.356H263.686V61.182H261.586ZM264.855 64.164C264.855 63.38 265.009 62.694 265.317 62.106C265.634 61.5087 266.068 61.0513 266.619 60.734C267.179 60.4073 267.809 60.244 268.509 60.244C269.237 60.244 269.862 60.412 270.385 60.748C270.917 61.084 271.299 61.5133 271.533 62.036V60.356H272.513V68H271.533V66.306C271.29 66.8287 270.903 67.2627 270.371 67.608C269.848 67.944 269.223 68.112 268.495 68.112C267.804 68.112 267.179 67.9487 266.619 67.622C266.068 67.2953 265.634 66.8333 265.317 66.236C265.009 65.6387 264.855 64.948 264.855 64.164ZM271.533 64.178C271.533 63.562 271.407 63.0207 271.155 62.554C270.903 62.0873 270.557 61.728 270.119 61.476C269.689 61.224 269.213 61.098 268.691 61.098C268.149 61.098 267.664 61.2193 267.235 61.462C266.805 61.7047 266.465 62.0593 266.213 62.526C265.97 62.9833 265.849 63.5293 265.849 64.164C265.849 64.7893 265.97 65.34 266.213 65.816C266.465 66.2827 266.805 66.642 267.235 66.894C267.664 67.1367 268.149 67.258 268.691 67.258C269.213 67.258 269.689 67.132 270.119 66.88C270.557 66.628 270.903 66.2687 271.155 65.802C271.407 65.3353 271.533 64.794 271.533 64.178ZM276.024 61.182V65.928C276.024 66.3947 276.113 66.7167 276.29 66.894C276.467 67.0713 276.78 67.16 277.228 67.16H278.124V68H277.074C276.383 68 275.87 67.8413 275.534 67.524C275.198 67.1973 275.03 66.6653 275.03 65.928V61.182H273.966V60.356H275.03V58.438H276.024V60.356H278.124V61.182H276.024ZM280.23 58.914C280.034 58.914 279.866 58.844 279.726 58.704C279.586 58.564 279.516 58.3913 279.516 58.186C279.516 57.9807 279.586 57.8127 279.726 57.682C279.866 57.542 280.034 57.472 280.23 57.472C280.426 57.472 280.594 57.542 280.734 57.682C280.874 57.8127 280.944 57.9807 280.944 58.186C280.944 58.3913 280.874 58.564 280.734 58.704C280.594 58.844 280.426 58.914 280.23 58.914ZM280.72 60.356V68H279.74V60.356H280.72ZM286.285 68.112C285.567 68.112 284.918 67.9533 284.339 67.636C283.77 67.3093 283.317 66.852 282.981 66.264C282.655 65.6667 282.491 64.9713 282.491 64.178C282.491 63.3847 282.659 62.694 282.995 62.106C283.331 61.5087 283.789 61.0513 284.367 60.734C284.946 60.4073 285.595 60.244 286.313 60.244C287.032 60.244 287.681 60.4073 288.259 60.734C288.847 61.0513 289.305 61.5087 289.631 62.106C289.967 62.694 290.135 63.3847 290.135 64.178C290.135 64.962 289.967 65.6527 289.631 66.25C289.295 66.8473 288.833 67.3093 288.245 67.636C287.657 67.9533 287.004 68.112 286.285 68.112ZM286.285 67.258C286.789 67.258 287.256 67.146 287.685 66.922C288.115 66.6887 288.46 66.3433 288.721 65.886C288.992 65.4193 289.127 64.85 289.127 64.178C289.127 63.506 288.997 62.9413 288.735 62.484C288.474 62.0173 288.129 61.672 287.699 61.448C287.27 61.2147 286.803 61.098 286.299 61.098C285.795 61.098 285.329 61.2147 284.899 61.448C284.47 61.672 284.125 62.0173 283.863 62.484C283.611 62.9413 283.485 63.506 283.485 64.178C283.485 64.85 283.611 65.4193 283.863 65.886C284.125 66.3433 284.465 66.6887 284.885 66.922C285.315 67.146 285.781 67.258 286.285 67.258ZM295.506 60.216C296.42 60.216 297.167 60.5007 297.746 61.07C298.324 61.63 298.614 62.4467 298.614 63.52V68H297.648V63.632C297.648 62.8013 297.438 62.1667 297.018 61.728C296.607 61.2893 296.042 61.07 295.324 61.07C294.586 61.07 293.998 61.3033 293.56 61.77C293.121 62.2367 292.902 62.9227 292.902 63.828V68H291.922V60.356H292.902V61.658C293.144 61.1913 293.494 60.8367 293.952 60.594C294.409 60.342 294.927 60.216 295.506 60.216Z" fill="white"/>
<rect x="149.5" y="46.5" width="199" height="34" rx="9.5" stroke="white"/>
<path d="M405.51 63.1C405.51 62.1387 405.72 61.28 406.14 60.524C406.56 59.7587 407.134 59.166 407.862 58.746C408.59 58.3167 409.402 58.102 410.298 58.102C411.39 58.102 412.323 58.3633 413.098 58.886C413.882 59.3993 414.451 60.1273 414.806 61.07H413.658C413.378 60.4073 412.949 59.8893 412.37 59.516C411.801 59.1427 411.11 58.956 410.298 58.956C409.579 58.956 408.931 59.124 408.352 59.46C407.783 59.796 407.335 60.2813 407.008 60.916C406.681 61.5413 406.518 62.2693 406.518 63.1C406.518 63.9307 406.681 64.6587 407.008 65.284C407.335 65.9093 407.783 66.39 408.352 66.726C408.931 67.062 409.579 67.23 410.298 67.23C411.11 67.23 411.801 67.048 412.37 66.684C412.949 66.3107 413.378 65.7973 413.658 65.144H414.806C414.451 66.0773 413.882 66.8007 413.098 67.314C412.314 67.8273 411.381 68.084 410.298 68.084C409.402 68.084 408.59 67.874 407.862 67.454C407.134 67.0247 406.56 66.432 406.14 65.676C405.72 64.92 405.51 64.0613 405.51 63.1ZM417.739 61.714C417.953 61.238 418.28 60.8693 418.719 60.608C419.167 60.3467 419.713 60.216 420.357 60.216V61.238H420.091C419.381 61.238 418.812 61.4293 418.383 61.812C417.953 62.1947 417.739 62.834 417.739 63.73V68H416.759V60.356H417.739V61.714ZM428.747 63.786C428.747 64.122 428.738 64.3787 428.719 64.556H422.377C422.405 65.1347 422.545 65.6293 422.797 66.04C423.049 66.4507 423.38 66.7633 423.791 66.978C424.202 67.1833 424.65 67.286 425.135 67.286C425.77 67.286 426.302 67.132 426.731 66.824C427.17 66.516 427.459 66.1007 427.599 65.578H428.635C428.448 66.3247 428.047 66.936 427.431 67.412C426.824 67.8787 426.059 68.112 425.135 68.112C424.416 68.112 423.772 67.9533 423.203 67.636C422.634 67.3093 422.186 66.852 421.859 66.264C421.542 65.6667 421.383 64.9713 421.383 64.178C421.383 63.3847 421.542 62.6893 421.859 62.092C422.176 61.4947 422.62 61.0373 423.189 60.72C423.758 60.4027 424.407 60.244 425.135 60.244C425.863 60.244 426.498 60.4027 427.039 60.72C427.59 61.0373 428.01 61.4667 428.299 62.008C428.598 62.54 428.747 63.1327 428.747 63.786ZM427.753 63.758C427.762 63.1887 427.646 62.7033 427.403 62.302C427.17 61.9007 426.848 61.5973 426.437 61.392C426.026 61.1867 425.578 61.084 425.093 61.084C424.365 61.084 423.744 61.3173 423.231 61.784C422.718 62.2507 422.433 62.9087 422.377 63.758H427.753ZM430.092 64.164C430.092 63.38 430.246 62.694 430.554 62.106C430.871 61.5087 431.305 61.0513 431.856 60.734C432.416 60.4073 433.046 60.244 433.746 60.244C434.474 60.244 435.099 60.412 435.622 60.748C436.154 61.084 436.537 61.5133 436.77 62.036V60.356H437.75V68H436.77V66.306C436.527 66.8287 436.14 67.2627 435.608 67.608C435.085 67.944 434.46 68.112 433.732 68.112C433.041 68.112 432.416 67.9487 431.856 67.622C431.305 67.2953 430.871 66.8333 430.554 66.236C430.246 65.6387 430.092 64.948 430.092 64.164ZM436.77 64.178C436.77 63.562 436.644 63.0207 436.392 62.554C436.14 62.0873 435.795 61.728 435.356 61.476C434.927 61.224 434.451 61.098 433.928 61.098C433.387 61.098 432.901 61.2193 432.472 61.462C432.043 61.7047 431.702 62.0593 431.45 62.526C431.207 62.9833 431.086 63.5293 431.086 64.164C431.086 64.7893 431.207 65.34 431.45 65.816C431.702 66.2827 432.043 66.642 432.472 66.894C432.901 67.1367 433.387 67.258 433.928 67.258C434.451 67.258 434.927 67.132 435.356 66.88C435.795 66.628 436.14 66.2687 436.392 65.802C436.644 65.3353 436.77 64.794 436.77 64.178ZM441.261 61.182V65.928C441.261 66.3947 441.35 66.7167 441.527 66.894C441.705 67.0713 442.017 67.16 442.465 67.16H443.361V68H442.311C441.621 68 441.107 67.8413 440.771 67.524C440.435 67.1973 440.267 66.6653 440.267 65.928V61.182H439.203V60.356H440.267V58.438H441.261V60.356H443.361V61.182H441.261ZM451.893 63.786C451.893 64.122 451.884 64.3787 451.865 64.556H445.523C445.551 65.1347 445.691 65.6293 445.943 66.04C446.195 66.4507 446.527 66.7633 446.937 66.978C447.348 67.1833 447.796 67.286 448.281 67.286C448.916 67.286 449.448 67.132 449.877 66.824C450.316 66.516 450.605 66.1007 450.745 65.578H451.781C451.595 66.3247 451.193 66.936 450.577 67.412C449.971 67.8787 449.205 68.112 448.281 68.112C447.563 68.112 446.919 67.9533 446.349 67.636C445.78 67.3093 445.332 66.852 445.005 66.264C444.688 65.6667 444.529 64.9713 444.529 64.178C444.529 63.3847 444.688 62.6893 445.005 62.092C445.323 61.4947 445.766 61.0373 446.335 60.72C446.905 60.4027 447.553 60.244 448.281 60.244C449.009 60.244 449.644 60.4027 450.185 60.72C450.736 61.0373 451.156 61.4667 451.445 62.008C451.744 62.54 451.893 63.1327 451.893 63.786ZM450.899 63.758C450.909 63.1887 450.792 62.7033 450.549 62.302C450.316 61.9007 449.994 61.5973 449.583 61.392C449.173 61.1867 448.725 61.084 448.239 61.084C447.511 61.084 446.891 61.3173 446.377 61.784C445.864 62.2507 445.579 62.9087 445.523 63.758H450.899ZM460.16 68.112C459.283 68.112 458.564 67.9113 458.004 67.51C457.454 67.0993 457.146 66.544 457.08 65.844H458.088C458.135 66.2733 458.336 66.6233 458.69 66.894C459.054 67.1553 459.54 67.286 460.146 67.286C460.678 67.286 461.094 67.16 461.392 66.908C461.7 66.656 461.854 66.3433 461.854 65.97C461.854 65.7087 461.77 65.494 461.602 65.326C461.434 65.158 461.22 65.0273 460.958 64.934C460.706 64.8313 460.361 64.724 459.922 64.612C459.353 64.4627 458.891 64.3133 458.536 64.164C458.182 64.0147 457.878 63.7953 457.626 63.506C457.384 63.2073 457.262 62.8107 457.262 62.316C457.262 61.9427 457.374 61.5973 457.598 61.28C457.822 60.9627 458.14 60.7107 458.55 60.524C458.961 60.3373 459.428 60.244 459.95 60.244C460.772 60.244 461.434 60.454 461.938 60.874C462.442 61.2847 462.713 61.854 462.75 62.582H461.77C461.742 62.134 461.565 61.7747 461.238 61.504C460.921 61.224 460.482 61.084 459.922 61.084C459.428 61.084 459.026 61.2007 458.718 61.434C458.41 61.6673 458.256 61.9567 458.256 62.302C458.256 62.6007 458.345 62.848 458.522 63.044C458.709 63.2307 458.938 63.38 459.208 63.492C459.479 63.5947 459.843 63.7113 460.3 63.842C460.851 63.9913 461.29 64.136 461.616 64.276C461.943 64.416 462.223 64.6213 462.456 64.892C462.69 65.1627 462.811 65.522 462.82 65.97C462.82 66.3807 462.708 66.7493 462.484 67.076C462.26 67.3933 461.948 67.6453 461.546 67.832C461.145 68.0187 460.683 68.112 460.16 68.112ZM464.217 64.164C464.217 63.38 464.371 62.694 464.679 62.106C464.996 61.5087 465.43 61.0513 465.981 60.734C466.541 60.4073 467.171 60.244 467.871 60.244C468.599 60.244 469.224 60.412 469.747 60.748C470.279 61.084 470.662 61.5133 470.895 62.036V60.356H471.875V68H470.895V66.306C470.652 66.8287 470.265 67.2627 469.733 67.608C469.21 67.944 468.585 68.112 467.857 68.112C467.166 68.112 466.541 67.9487 465.981 67.622C465.43 67.2953 464.996 66.8333 464.679 66.236C464.371 65.6387 464.217 64.948 464.217 64.164ZM470.895 64.178C470.895 63.562 470.769 63.0207 470.517 62.554C470.265 62.0873 469.92 61.728 469.481 61.476C469.052 61.224 468.576 61.098 468.053 61.098C467.512 61.098 467.026 61.2193 466.597 61.462C466.168 61.7047 465.827 62.0593 465.575 62.526C465.332 62.9833 465.211 63.5293 465.211 64.164C465.211 64.7893 465.332 65.34 465.575 65.816C465.827 66.2827 466.168 66.642 466.597 66.894C467.026 67.1367 467.512 67.258 468.053 67.258C468.576 67.258 469.052 67.132 469.481 66.88C469.92 66.628 470.265 66.2687 470.517 65.802C470.769 65.3353 470.895 64.794 470.895 64.178ZM475.092 57.64V68H474.112V57.64H475.092ZM484.227 63.786C484.227 64.122 484.218 64.3787 484.199 64.556H477.857C477.885 65.1347 478.025 65.6293 478.277 66.04C478.529 66.4507 478.861 66.7633 479.271 66.978C479.682 67.1833 480.13 67.286 480.615 67.286C481.25 67.286 481.782 67.132 482.211 66.824C482.65 66.516 482.939 66.1007 483.079 65.578H484.115C483.929 66.3247 483.527 66.936 482.911 67.412C482.305 67.8787 481.539 68.112 480.615 68.112C479.897 68.112 479.253 67.9533 478.683 67.636C478.114 67.3093 477.666 66.852 477.339 66.264C477.022 65.6667 476.863 64.9713 476.863 64.178C476.863 63.3847 477.022 62.6893 477.339 62.092C477.657 61.4947 478.1 61.0373 478.669 60.72C479.239 60.4027 479.887 60.244 480.615 60.244C481.343 60.244 481.978 60.4027 482.519 60.72C483.07 61.0373 483.49 61.4667 483.779 62.008C484.078 62.54 484.227 63.1327 484.227 63.786ZM483.233 63.758C483.243 63.1887 483.126 62.7033 482.883 62.302C482.65 61.9007 482.328 61.5973 481.917 61.392C481.507 61.1867 481.059 61.084 480.573 61.084C479.845 61.084 479.225 61.3173 478.711 61.784C478.198 62.2507 477.913 62.9087 477.857 63.758H483.233ZM488.652 68.112C487.775 68.112 487.056 67.9113 486.496 67.51C485.946 67.0993 485.638 66.544 485.572 65.844H486.58C486.627 66.2733 486.828 66.6233 487.182 66.894C487.546 67.1553 488.032 67.286 488.638 67.286C489.17 67.286 489.586 67.16 489.884 66.908C490.192 66.656 490.346 66.3433 490.346 65.97C490.346 65.7087 490.262 65.494 490.094 65.326C489.926 65.158 489.712 65.0273 489.45 64.934C489.198 64.8313 488.853 64.724 488.414 64.612C487.845 64.4627 487.383 64.3133 487.028 64.164C486.674 64.0147 486.37 63.7953 486.118 63.506C485.876 63.2073 485.754 62.8107 485.754 62.316C485.754 61.9427 485.866 61.5973 486.09 61.28C486.314 60.9627 486.632 60.7107 487.042 60.524C487.453 60.3373 487.92 60.244 488.442 60.244C489.264 60.244 489.926 60.454 490.43 60.874C490.934 61.2847 491.205 61.854 491.242 62.582H490.262C490.234 62.134 490.057 61.7747 489.73 61.504C489.413 61.224 488.974 61.084 488.414 61.084C487.92 61.084 487.518 61.2007 487.21 61.434C486.902 61.6673 486.748 61.9567 486.748 62.302C486.748 62.6007 486.837 62.848 487.014 63.044C487.201 63.2307 487.43 63.38 487.7 63.492C487.971 63.5947 488.335 63.7113 488.792 63.842C489.343 63.9913 489.782 64.136 490.108 64.276C490.435 64.416 490.715 64.6213 490.948 64.892C491.182 65.1627 491.303 65.522 491.312 65.97C491.312 66.3807 491.2 66.7493 490.976 67.076C490.752 67.3933 490.44 67.6453 490.038 67.832C489.637 68.0187 489.175 68.112 488.652 68.112ZM500.345 68.112C499.626 68.112 498.978 67.9533 498.399 67.636C497.83 67.3093 497.377 66.852 497.041 66.264C496.714 65.6667 496.551 64.9713 496.551 64.178C496.551 63.3847 496.719 62.694 497.055 62.106C497.391 61.5087 497.848 61.0513 498.427 60.734C499.006 60.4073 499.654 60.244 500.373 60.244C501.092 60.244 501.74 60.4073 502.319 60.734C502.907 61.0513 503.364 61.5087 503.691 62.106C504.027 62.694 504.195 63.3847 504.195 64.178C504.195 64.962 504.027 65.6527 503.691 66.25C503.355 66.8473 502.893 67.3093 502.305 67.636C501.717 67.9533 501.064 68.112 500.345 68.112ZM500.345 67.258C500.849 67.258 501.316 67.146 501.745 66.922C502.174 66.6887 502.52 66.3433 502.781 65.886C503.052 65.4193 503.187 64.85 503.187 64.178C503.187 63.506 503.056 62.9413 502.795 62.484C502.534 62.0173 502.188 61.672 501.759 61.448C501.33 61.2147 500.863 61.098 500.359 61.098C499.855 61.098 499.388 61.2147 498.959 61.448C498.53 61.672 498.184 62.0173 497.923 62.484C497.671 62.9413 497.545 63.506 497.545 64.178C497.545 64.85 497.671 65.4193 497.923 65.886C498.184 66.3433 498.525 66.6887 498.945 66.922C499.374 67.146 499.841 67.258 500.345 67.258ZM506.961 61.714C507.176 61.238 507.503 60.8693 507.941 60.608C508.389 60.3467 508.935 60.216 509.579 60.216V61.238H509.313C508.604 61.238 508.035 61.4293 507.605 61.812C507.176 62.1947 506.961 62.834 506.961 63.73V68H505.981V60.356H506.961V61.714ZM510.606 64.164C510.606 63.38 510.764 62.694 511.082 62.106C511.399 61.5087 511.833 61.0513 512.384 60.734C512.944 60.4073 513.574 60.244 514.274 60.244C514.946 60.244 515.552 60.4073 516.094 60.734C516.635 61.0607 517.032 61.4853 517.284 62.008V57.64H518.264V68H517.284V66.292C517.05 66.824 516.668 67.2627 516.136 67.608C515.604 67.944 514.978 68.112 514.26 68.112C513.56 68.112 512.93 67.9487 512.37 67.622C511.819 67.2953 511.385 66.8333 511.068 66.236C510.76 65.6387 510.606 64.948 510.606 64.164ZM517.284 64.178C517.284 63.562 517.158 63.0207 516.906 62.554C516.654 62.0873 516.308 61.728 515.87 61.476C515.44 61.224 514.964 61.098 514.442 61.098C513.9 61.098 513.415 61.2193 512.986 61.462C512.556 61.7047 512.216 62.0593 511.964 62.526C511.721 62.9833 511.6 63.5293 511.6 64.164C511.6 64.7893 511.721 65.34 511.964 65.816C512.216 66.2827 512.556 66.642 512.986 66.894C513.415 67.1367 513.9 67.258 514.442 67.258C514.964 67.258 515.44 67.132 515.87 66.88C516.308 66.628 516.654 66.2687 516.906 65.802C517.158 65.3353 517.284 64.794 517.284 64.178ZM527.417 63.786C527.417 64.122 527.408 64.3787 527.389 64.556H521.047C521.075 65.1347 521.215 65.6293 521.467 66.04C521.719 66.4507 522.05 66.7633 522.461 66.978C522.872 67.1833 523.32 67.286 523.805 67.286C524.44 67.286 524.972 67.132 525.401 66.824C525.84 66.516 526.129 66.1007 526.269 65.578H527.305C527.118 66.3247 526.717 66.936 526.101 67.412C525.494 67.8787 524.729 68.112 523.805 68.112C523.086 68.112 522.442 67.9533 521.873 67.636C521.304 67.3093 520.856 66.852 520.529 66.264C520.212 65.6667 520.053 64.9713 520.053 64.178C520.053 63.3847 520.212 62.6893 520.529 62.092C520.846 61.4947 521.29 61.0373 521.859 60.72C522.428 60.4027 523.077 60.244 523.805 60.244C524.533 60.244 525.168 60.4027 525.709 60.72C526.26 61.0373 526.68 61.4667 526.969 62.008C527.268 62.54 527.417 63.1327 527.417 63.786ZM526.423 63.758C526.432 63.1887 526.316 62.7033 526.073 62.302C525.84 61.9007 525.518 61.5973 525.107 61.392C524.696 61.1867 524.248 61.084 523.763 61.084C523.035 61.084 522.414 61.3173 521.901 61.784C521.388 62.2507 521.103 62.9087 521.047 63.758H526.423ZM530.19 61.714C530.405 61.238 530.731 60.8693 531.17 60.608C531.618 60.3467 532.164 60.216 532.808 60.216V61.238H532.542C531.833 61.238 531.263 61.4293 530.834 61.812C530.405 62.1947 530.19 62.834 530.19 63.73V68H529.21V60.356H530.19V61.714Z" fill="white"/>
<rect x="369.5" y="46.5" width="199" height="34" rx="9.5" stroke="white"/>
<path d="M548.836 27.6334L548.667 27.8706H548.958H550.099C553.212 27.8706 555.067 26.5124 556.187 25.3154H556.187H556.188H556.189H556.19H556.191H556.192H556.192H556.193H556.194H556.195H556.196H556.197H556.198H556.199H556.2H556.2H556.201H556.202H556.203H556.204H556.205H556.206H556.207H556.207H556.208H556.209H556.21H556.211H556.212H556.213H556.214H556.215H556.215H556.216H556.217H556.218H556.219H556.22H556.221H556.222H556.223H556.224H556.224H556.225H556.226H556.227H556.228H556.229H556.23H556.231H556.232H556.233H556.233H556.234H556.235H556.236H556.237H556.238H556.239H556.24H556.241H556.242H556.243H556.243H556.244H556.245H556.246H556.247H556.248H556.249H556.25H556.251H556.252H556.253H556.253H556.254H556.255H556.256H556.257H556.258H556.259H556.26H556.261H556.262H556.263H556.264H556.264H556.265H556.266H556.267H556.268H556.269H556.27H556.271H556.272H556.273H556.274H556.275H556.275H556.276H556.277H556.278H556.279H556.28H556.281H556.282H556.283H556.284H556.285H556.286H556.287H556.287H556.288H556.289H556.29H556.291H556.292H556.293H556.294H556.295H556.296H556.297H556.298H556.299H556.3H556.3H556.301H556.302H556.303H556.304H556.305H556.306H556.307H556.308H556.309H556.31H556.311H556.312H556.313H556.314H556.314H556.315H556.316H556.317H556.318H556.319H556.32H556.321H556.322H556.323H556.324H556.325H556.326H556.327H556.328H556.328H556.329H556.33H556.331H556.332H556.333H556.334H556.335H556.336H556.337H556.338H556.339H556.34H556.341H556.342H556.342H556.343H556.344H556.345H556.346H556.347H556.348H556.349H556.35H556.351H556.352H556.353H556.354H556.355H556.356H556.357H556.357H556.358H556.359H556.36H556.361H556.362H556.363H556.364H556.365H556.366H556.367H556.368H556.369H556.37H556.371H556.371H556.372H556.373H556.374H556.375H556.376H556.377H556.378H556.379H556.38H556.381H556.382H556.383H556.384H556.385H556.386H556.386H556.387H556.388H556.389H556.39H556.391H556.392H556.393H556.394H556.395H556.396H556.397H556.398H556.399H556.399H556.4H556.401H556.402H556.403H556.404H556.405H556.406H556.407H556.408H556.409H556.41H556.411H556.412H556.412H556.413H556.414H556.415H556.416H556.417H556.418H556.419H556.42H556.421H556.422H556.423H556.424H556.424H556.425H556.426H556.427H556.428H556.429H556.43H556.431H556.432H556.433H556.434H556.435H556.436H556.436H556.437H556.438H556.439H556.44H556.441H556.442H556.443H556.444H556.445H556.446H556.447H556.447H556.448H556.449H556.45H556.451H556.452H556.453H556.454H556.455H556.456H556.457H556.457H556.458H556.459H556.46H556.461H556.462H556.463H556.464H556.465H556.466H556.467H556.467H556.468H556.469H556.47H556.471H556.472H556.473H556.474H556.475H556.476H556.476H556.477H556.478H556.479H556.48H556.481H556.482H556.483H556.484H556.484H556.485H556.486H556.487H556.488H556.489H556.49H556.491H556.492H556.492H556.493H556.494H556.495H556.496H556.497H556.498H556.499H556.5H556.5H556.501H556.502H556.503H556.504H556.505H556.506H556.507H556.507H556.508H556.509H556.51H556.511H556.512H556.513H556.514H556.514H556.515H556.516H556.517H556.518H556.519H556.52H556.521H556.521H556.522H556.523H556.524H556.525H556.526H556.527H556.527H556.528H556.529H556.53H556.531H556.532H556.533H556.533H556.534H556.535H556.536H556.537H556.538H556.538H556.539H556.54H556.541H556.542H556.543H556.544H556.544H556.545H556.546H556.547H556.548H556.549H556.549H556.55H556.551H556.552H556.553H556.554H556.554H556.555H556.556H556.557H556.558H556.559H556.559H556.56H556.561H556.562H556.563H556.564H556.564H556.565H556.566H556.567H556.568H556.568H556.569H556.57H556.571H556.572H556.572H556.573H556.574H556.575H556.576H556.577H556.577H556.578C560 25.3154 562.753 24.4657 564.653 22.8971C566.556 21.3254 567.587 19.0452 567.587 16.2224C567.587 13.4211 566.532 11.1414 564.618 9.56479C562.708 7.99098 559.956 7.12942 556.578 7.12942C553.201 7.12942 550.448 7.99098 548.538 9.56479C546.624 11.1414 545.569 13.4211 545.569 16.2224C545.569 19.8452 547.298 22.6166 550.525 24.1134C550.341 25.1774 549.992 25.9899 549.52 26.6763C549.52 26.6767 549.519 26.677 549.519 26.6774L548.836 27.6334ZM551.529 22.9751L551.529 22.9751L551.525 22.9735C550.49 22.5459 549.35 21.8739 548.47 20.8039C547.591 19.7366 546.964 18.2649 546.964 16.2224C546.964 13.8217 547.848 11.9277 549.468 10.6304C551.093 9.32949 553.474 8.61574 556.487 8.61574C559.499 8.61574 561.88 9.34069 563.499 10.6471C565.114 11.9501 565.987 13.8438 565.964 16.221V16.2224C565.964 17.3693 565.728 19.2687 564.429 20.8793C563.136 22.4836 560.766 23.8291 556.441 23.8291H556.44H556.439H556.438H556.437H556.436H556.435H556.434H556.433H556.432H556.43H556.429H556.428H556.427H556.426H556.425H556.424H556.423H556.422H556.421H556.42H556.419H556.417H556.416H556.415H556.414H556.413H556.412H556.411H556.41H556.409H556.408H556.406H556.405H556.404H556.403H556.402H556.401H556.4H556.399H556.398H556.397H556.395H556.394H556.393H556.392H556.391H556.39H556.389H556.388H556.387H556.385H556.384H556.383H556.382H556.381H556.38H556.379H556.378H556.376H556.375H556.374H556.373H556.372H556.371H556.37H556.369H556.367H556.366H556.365H556.364H556.363H556.362H556.361H556.36H556.358H556.357H556.356H556.355H556.354H556.353H556.352H556.35H556.349H556.348H556.347H556.346H556.345H556.344H556.342H556.341H556.34H556.339H556.338H556.337H556.336H556.334H556.333H556.332H556.331H556.33H556.329H556.327H556.326H556.325H556.324H556.323H556.322H556.321H556.319H556.318H556.317H556.316H556.315H556.314H556.312H556.311H556.31H556.309H556.308H556.307H556.305H556.304H556.303H556.302H556.301H556.3H556.298H556.297H556.296H556.295H556.294H556.293H556.291H556.29H556.289H556.288H556.287H556.285H556.284H556.283H556.282H556.281H556.28H556.278H556.277H556.276H556.275H556.274H556.273H556.271H556.27H556.269H556.268H556.267H556.265H556.264H556.263H556.262H556.261H556.26H556.258H556.257H556.256H556.255H556.254H556.252H556.251H556.25H556.249H556.248H556.246H556.245H556.244H556.243H556.242H556.241H556.239H556.238H556.237H556.236H556.235H556.233H556.232H556.231H556.23H556.229H556.227H556.226H556.225H556.224H556.223H556.221H556.22H556.219H556.218H556.217H556.215H556.214H556.213H556.212H556.211H556.21H556.208H556.207H556.206H556.205H556.204H556.202H556.201H556.2H556.199H556.198H556.196H556.195H556.194H556.193H556.192H556.19H556.189H556.188H556.187H556.186H556.184H556.183H556.182H556.181H556.18H556.178H556.177H556.176H556.175H556.174H556.172H556.171H556.17H556.169H556.168H556.166H556.165H556.164H556.163H556.161H556.16H556.159H556.158H556.157H556.155H556.154H556.153H556.152H556.151H556.149H556.148H556.147H556.146H556.145H556.143H556.142H556.141H556.14H556.139H556.137H556.136H556.135H556.134H556.133H556.131H556.13H556.129H556.128H556.127H556.125H556.124H556.123H556.122H556.121H556.119H556.118H556.117H556.116H556.115H556.113H556.112H556.111H556.11H556.109H556.107H556.106H556.105H556.104H556.103H556.101H556.1H556.099H556.098H556.097H556.095H556.094H556.093H556.092H556.091H556.089H556.088H556.087H556.086H556.085H556.083H556.082H556.081H556.08H556.079H556.077H556.076H556.075H556.074H556.073H556.071H556.07H556.069H556.068H556.067H556.065H556.064H556.063H556.062H556.061H556.059H556.058H556.057H556.056H556.055H556.054H556.052H556.051H556.05H556.049H556.048H556.046H556.045H556.044H556.043H556.042H556.04H556.039H556.038H556.037H556.036H556.035H556.033H556.032H556.031H556.03H556.029H556.027H556.026H556.025H556.024H556.023H556.021H556.02H556.019H556.018H556.017H556.016H556.014H556.013H556.012H556.011H556.01H556.009H556.007H556.006H556.005H556.004H556.003H556.001H556H555.999H555.998H555.997H555.996H555.994H555.993H555.992H555.991H555.99H555.989H555.987H555.986H555.985H555.984H555.983H555.982H555.98H555.979H555.978H555.977H555.976H555.975H555.973H555.972H555.971H555.97H555.969H555.968H555.966H555.965H555.964H555.963H555.962H555.961H555.96H555.958H555.957H555.956H555.955H555.954H555.953H555.951H555.95H555.949H555.948H555.947H555.946H555.945H555.943H555.942H555.941H555.94H555.939H555.938H555.937H555.935H555.934H555.933H555.932H555.931H555.93H555.929H555.928H555.926H555.925H555.924H555.923H555.922H555.921H555.92H555.918H555.917H555.916H555.915H555.914H555.913H555.912H555.911H555.909H555.908H555.907H555.906H555.905H555.904H555.903H555.902H555.901H555.899H555.898H555.897H555.896H555.895H555.894H555.893H555.892H555.891H555.889H555.888H555.887H555.886H555.885H555.884H555.883H555.882H555.881H555.88H555.878H555.877H555.876H555.875H555.874H555.873H555.872H555.871H555.87H555.869H555.867H555.866H555.865H555.864H555.863H555.862H555.861H555.86H555.859H555.858H555.857H555.856H555.855H555.853H555.852H555.851H555.85H555.849H555.848H555.437H555.365L555.32 23.8854L555.138 24.1135L555.138 24.1135L555.135 24.1173C554.499 24.9655 553.331 25.9822 551.35 26.3018C551.659 25.5646 551.858 24.7196 551.982 23.7704L551.982 23.7704L551.982 23.7659L552.028 23.3096L552.039 23.2017L551.939 23.1576L551.529 22.9751Z" fill="white" stroke="white" stroke-width="0.3"/>
<path d="M202.1 165.012V168.666H205.81V169.478H202.1V173.188H206.23V174H201.12V164.2H206.23V165.012H202.1ZM207.713 170.164C207.713 169.38 207.872 168.694 208.189 168.106C208.506 167.509 208.94 167.051 209.491 166.734C210.051 166.407 210.681 166.244 211.381 166.244C212.053 166.244 212.66 166.407 213.201 166.734C213.742 167.061 214.139 167.485 214.391 168.008V163.64H215.371V174H214.391V172.292C214.158 172.824 213.775 173.263 213.243 173.608C212.711 173.944 212.086 174.112 211.367 174.112C210.667 174.112 210.037 173.949 209.477 173.622C208.926 173.295 208.492 172.833 208.175 172.236C207.867 171.639 207.713 170.948 207.713 170.164ZM214.391 170.178C214.391 169.562 214.265 169.021 214.013 168.554C213.761 168.087 213.416 167.728 212.977 167.476C212.548 167.224 212.072 167.098 211.549 167.098C211.008 167.098 210.522 167.219 210.093 167.462C209.664 167.705 209.323 168.059 209.071 168.526C208.828 168.983 208.707 169.529 208.707 170.164C208.707 170.789 208.828 171.34 209.071 171.816C209.323 172.283 209.664 172.642 210.093 172.894C210.522 173.137 211.008 173.258 211.549 173.258C212.072 173.258 212.548 173.132 212.977 172.88C213.416 172.628 213.761 172.269 214.013 171.802C214.265 171.335 214.391 170.794 214.391 170.178ZM218.098 164.914C217.902 164.914 217.734 164.844 217.594 164.704C217.454 164.564 217.384 164.391 217.384 164.186C217.384 163.981 217.454 163.813 217.594 163.682C217.734 163.542 217.902 163.472 218.098 163.472C218.294 163.472 218.462 163.542 218.602 163.682C218.742 163.813 218.812 163.981 218.812 164.186C218.812 164.391 218.742 164.564 218.602 164.704C218.462 164.844 218.294 164.914 218.098 164.914ZM218.588 166.356V174H217.608V166.356H218.588ZM222.082 167.182V171.928C222.082 172.395 222.17 172.717 222.348 172.894C222.525 173.071 222.838 173.16 223.285 173.16H224.182V174H223.132C222.441 174 221.928 173.841 221.592 173.524C221.256 173.197 221.088 172.665 221.088 171.928V167.182H220.024V166.356H221.088V164.438H222.082V166.356H224.182V167.182H222.082Z" fill="white"/>
<path d="M513.1 165.012V168.666H516.81V169.478H513.1V173.188H517.23V174H512.12V164.2H517.23V165.012H513.1ZM518.713 170.164C518.713 169.38 518.872 168.694 519.189 168.106C519.506 167.509 519.94 167.051 520.491 166.734C521.051 166.407 521.681 166.244 522.381 166.244C523.053 166.244 523.66 166.407 524.201 166.734C524.742 167.061 525.139 167.485 525.391 168.008V163.64H526.371V174H525.391V172.292C525.158 172.824 524.775 173.263 524.243 173.608C523.711 173.944 523.086 174.112 522.367 174.112C521.667 174.112 521.037 173.949 520.477 173.622C519.926 173.295 519.492 172.833 519.175 172.236C518.867 171.639 518.713 170.948 518.713 170.164ZM525.391 170.178C525.391 169.562 525.265 169.021 525.013 168.554C524.761 168.087 524.416 167.728 523.977 167.476C523.548 167.224 523.072 167.098 522.549 167.098C522.008 167.098 521.522 167.219 521.093 167.462C520.664 167.705 520.323 168.059 520.071 168.526C519.828 168.983 519.707 169.529 519.707 170.164C519.707 170.789 519.828 171.34 520.071 171.816C520.323 172.283 520.664 172.642 521.093 172.894C521.522 173.137 522.008 173.258 522.549 173.258C523.072 173.258 523.548 173.132 523.977 172.88C524.416 172.628 524.761 172.269 525.013 171.802C525.265 171.335 525.391 170.794 525.391 170.178ZM529.098 164.914C528.902 164.914 528.734 164.844 528.594 164.704C528.454 164.564 528.384 164.391 528.384 164.186C528.384 163.981 528.454 163.813 528.594 163.682C528.734 163.542 528.902 163.472 529.098 163.472C529.294 163.472 529.462 163.542 529.602 163.682C529.742 163.813 529.812 163.981 529.812 164.186C529.812 164.391 529.742 164.564 529.602 164.704C529.462 164.844 529.294 164.914 529.098 164.914ZM529.588 166.356V174H528.608V166.356H529.588ZM533.082 167.182V171.928C533.082 172.395 533.17 172.717 533.348 172.894C533.525 173.071 533.838 173.16 534.285 173.16H535.182V174H534.132C533.441 174 532.928 173.841 532.592 173.524C532.256 173.197 532.088 172.665 532.088 171.928V167.182H531.024V166.356H532.088V164.438H533.082V166.356H535.182V167.182H533.082Z" fill="white"/>
<path d="M234.483 157.484L234.483 157.484C234.803 157.164 235.325 157.164 235.645 157.484L237.516 159.355C237.516 159.355 237.516 159.355 237.516 159.355L237.516 159.355L234.483 157.484ZM234.483 157.484L233.464 158.505L233.464 158.505L227.683 164.285C227.659 164.31 227.641 164.336 227.627 164.362C227.622 164.369 227.618 164.377 227.615 164.386C227.604 164.41 227.595 164.436 227.59 164.463C227.588 164.467 227.587 164.473 227.586 164.479L227.252 166.819L227.252 166.819L227.351 166.833L234.483 157.484ZM227.597 164.445L227.596 164.446L227.597 164.445ZM228.405 164.526L233.705 159.227L235.773 161.295L230.475 166.595L228.405 164.526ZM228.086 167.074C228.086 167.074 228.086 167.074 228.086 167.074C228.042 167.08 227.999 167.066 227.967 167.034C227.934 167.002 227.92 166.958 227.926 166.914C227.926 166.914 227.926 166.914 227.926 166.914L228.165 165.247L229.753 166.835L228.086 167.074ZM237.034 160.034L236.255 160.813L234.187 158.745L234.966 157.966C235.021 157.911 235.11 157.911 235.165 157.966L237.034 159.835C237.089 159.89 237.089 159.979 237.034 160.034Z" fill="white" stroke="white" stroke-width="0.2"/>
<path d="M545.483 157.484L545.483 157.484C545.803 157.164 546.325 157.164 546.645 157.484L548.516 159.355C548.516 159.355 548.516 159.355 548.516 159.355L548.516 159.355L545.483 157.484ZM545.483 157.484L544.464 158.505L544.464 158.505L538.683 164.285C538.659 164.31 538.641 164.336 538.627 164.362C538.622 164.369 538.618 164.377 538.615 164.386C538.604 164.41 538.595 164.436 538.59 164.463C538.588 164.467 538.587 164.473 538.586 164.479L538.252 166.819L538.252 166.819L538.351 166.833L545.483 157.484ZM538.597 164.445L538.596 164.446L538.597 164.445ZM539.405 164.526L544.705 159.227L546.773 161.295L541.475 166.595L539.405 164.526ZM539.086 167.074C539.086 167.074 539.086 167.074 539.086 167.074C539.042 167.08 538.999 167.066 538.967 167.034C538.934 167.002 538.92 166.958 538.926 166.914C538.926 166.914 538.926 166.914 538.926 166.914L539.165 165.247L540.753 166.835L539.086 167.074ZM548.034 160.034L547.255 160.813L545.187 158.745L545.966 157.966C546.021 157.911 546.11 157.911 546.165 157.966L548.034 159.835C548.089 159.89 548.089 159.979 548.034 160.034Z" fill="white" stroke="white" stroke-width="0.2"/>
<line x1="20" y1="199.5" x2="238" y2="199.5" stroke="white" stroke-width="3"/>
<line x1="331" y1="199.5" x2="549" y2="199.5" stroke="white" stroke-width="3"/>
<line x1="20" y1="219.5" x2="200" y2="219.5" stroke="white" stroke-width="3"/>
<line x1="331" y1="219.5" x2="511" y2="219.5" stroke="white" stroke-width="3"/>
<line x1="20" y1="239.5" x2="213" y2="239.5" stroke="white" stroke-width="3"/>
<line x1="331" y1="239.5" x2="524" y2="239.5" stroke="white" stroke-width="3"/>
<line x1="20" y1="259.5" x2="129" y2="259.5" stroke="white" stroke-width="3"/>
<line x1="331" y1="259.5" x2="440" y2="259.5" stroke="white" stroke-width="3"/>
<line x1="20" y1="279.5" x2="213" y2="279.5" stroke="white" stroke-width="3"/>
<line x1="331" y1="279.5" x2="524" y2="279.5" stroke="white" stroke-width="3"/>
<line x1="20" y1="299.5" x2="238" y2="299.5" stroke="white" stroke-width="3"/>
<line x1="331" y1="299.5" x2="549" y2="299.5" stroke="white" stroke-width="3"/>
</svg>
