<svg width="588" height="387" viewBox="0 0 588 387" fill="none" xmlns="http://www.w3.org/2000/svg">
<line x1="11" y1="174.5" x2="578" y2="174.5" stroke="white"/>
<line x1="11" y1="200.5" x2="578" y2="200.5" stroke="white"/>
<line x1="11" y1="226.5" x2="578" y2="226.5" stroke="white"/>
<line x1="11" y1="252.5" x2="578" y2="252.5" stroke="white"/>
<line x1="11" y1="278.5" x2="578" y2="278.5" stroke="white"/>
<line x1="11" y1="304.5" x2="578" y2="304.5" stroke="white"/>
<line x1="11" y1="330.5" x2="578" y2="330.5" stroke="white"/>
<line x1="11" y1="356.5" x2="578" y2="356.5" stroke="white"/>
<line x1="11" y1="122.5" x2="578" y2="122.5" stroke="white"/>
<rect x="0.5" y="0.5" width="587" height="386" rx="9.5" stroke="white"/>
<path d="M11.5133 110.35C11.5133 109.203 11.6899 108.313 12.0433 107.68C12.3966 107.047 13.0299 106.73 13.9433 106.73C14.8566 106.73 15.4899 107.047 15.8433 107.68C16.1966 108.313 16.3733 109.203 16.3733 110.35C16.3733 111.517 16.1966 112.42 15.8433 113.06C15.4899 113.7 14.8566 114.02 13.9433 114.02C13.0233 114.02 12.3866 113.7 12.0333 113.06C11.6866 112.42 11.5133 111.517 11.5133 110.35ZM15.6833 110.35C15.6833 109.73 15.6399 109.207 15.5533 108.78C15.4666 108.353 15.2966 108.01 15.0433 107.75C14.7899 107.49 14.4233 107.36 13.9433 107.36C13.4633 107.36 13.0966 107.49 12.8433 107.75C12.5899 108.01 12.4199 108.353 12.3333 108.78C12.2466 109.207 12.2033 109.73 12.2033 110.35C12.2033 110.99 12.2466 111.527 12.3333 111.96C12.4199 112.387 12.5899 112.73 12.8433 112.99C13.0966 113.25 13.4633 113.38 13.9433 113.38C14.4233 113.38 14.7899 113.25 15.0433 112.99C15.2966 112.73 15.4666 112.387 15.5533 111.96C15.6399 111.527 15.6833 110.99 15.6833 110.35ZM22.7954 108.58C22.6487 107.713 22.1454 107.28 21.2854 107.28C20.6321 107.28 20.1421 107.533 19.8154 108.04C19.4887 108.547 19.3387 109.377 19.3654 110.53C19.4987 110.13 19.7521 109.817 20.1254 109.59C20.5054 109.357 20.9387 109.24 21.4254 109.24C22.1254 109.24 22.6787 109.457 23.0854 109.89C23.4987 110.317 23.7054 110.907 23.7054 111.66C23.7054 112.1 23.6187 112.5 23.4454 112.86C23.2787 113.213 23.0187 113.497 22.6654 113.71C22.3187 113.923 21.8854 114.03 21.3654 114.03C20.3721 114.03 19.6854 113.713 19.3054 113.08C18.9321 112.447 18.7454 111.55 18.7454 110.39C18.7454 107.923 19.5921 106.69 21.2854 106.69C21.9254 106.69 22.4287 106.867 22.7954 107.22C23.1621 107.567 23.3787 108.02 23.4454 108.58H22.7954ZM21.2954 109.84C20.9821 109.84 20.6854 109.903 20.4054 110.03C20.1254 110.157 19.8954 110.35 19.7154 110.61C19.5421 110.863 19.4554 111.177 19.4554 111.55C19.4554 112.09 19.6154 112.54 19.9354 112.9C20.2554 113.26 20.7221 113.44 21.3354 113.44C21.8487 113.44 22.2587 113.283 22.5654 112.97C22.8721 112.657 23.0254 112.23 23.0254 111.69C23.0254 111.11 22.8754 110.657 22.5754 110.33C22.2754 110.003 21.8487 109.84 21.2954 109.84ZM33.9086 112.34H30.7286L30.1186 114H29.3786L31.9286 107.1H32.7186L35.2586 114H34.5186L33.9086 112.34ZM33.6986 111.76L32.3186 107.98L30.9386 111.76H33.6986ZM44.212 107.1V114H43.512V108.49L41.052 114H40.542L38.082 108.51V114H37.382V107.1H38.122L40.792 113.08L43.462 107.1H44.212Z" fill="white"/>
<path d="M11.6305 84.35C11.6305 83.2033 11.8071 82.3133 12.1605 81.68C12.5138 81.0467 13.1471 80.73 14.0605 80.73C14.9738 80.73 15.6071 81.0467 15.9605 81.68C16.3138 82.3133 16.4905 83.2033 16.4905 84.35C16.4905 85.5167 16.3138 86.42 15.9605 87.06C15.6071 87.7 14.9738 88.02 14.0605 88.02C13.1405 88.02 12.5038 87.7 12.1505 87.06C11.8038 86.42 11.6305 85.5167 11.6305 84.35ZM15.8005 84.35C15.8005 83.73 15.7571 83.2067 15.6705 82.78C15.5838 82.3533 15.4138 82.01 15.1605 81.75C14.9071 81.49 14.5405 81.36 14.0605 81.36C13.5805 81.36 13.2138 81.49 12.9605 81.75C12.7071 82.01 12.5371 82.3533 12.4505 82.78C12.3638 83.2067 12.3205 83.73 12.3205 84.35C12.3205 84.99 12.3638 85.5267 12.4505 85.96C12.5371 86.3867 12.7071 86.73 12.9605 86.99C13.2138 87.25 13.5805 87.38 14.0605 87.38C14.5405 87.38 14.9071 87.25 15.1605 86.99C15.4138 86.73 15.5838 86.3867 15.6705 85.96C15.7571 85.5267 15.8005 84.99 15.8005 84.35ZM23.3126 81.43H19.6526V83.99C19.8192 83.7567 20.0626 83.5667 20.3826 83.42C20.7026 83.2667 21.0492 83.19 21.4226 83.19C21.9692 83.19 22.4159 83.3033 22.7626 83.53C23.1092 83.75 23.3592 84.04 23.5126 84.4C23.6659 84.7533 23.7426 85.1333 23.7426 85.54C23.7426 86.0067 23.6526 86.43 23.4726 86.81C23.2992 87.1833 23.0292 87.48 22.6626 87.7C22.3026 87.92 21.8526 88.03 21.3126 88.03C20.6259 88.03 20.0692 87.8533 19.6426 87.5C19.2159 87.14 18.9559 86.6567 18.8626 86.05H19.5526C19.6392 86.49 19.8392 86.83 20.1526 87.07C20.4659 87.31 20.8526 87.43 21.3126 87.43C21.8926 87.43 22.3292 87.26 22.6226 86.92C22.9226 86.5733 23.0726 86.1167 23.0726 85.55C23.0726 84.9967 22.9226 84.5667 22.6226 84.26C22.3226 83.9467 21.8926 83.79 21.3326 83.79C20.9459 83.79 20.6059 83.88 20.3126 84.06C20.0192 84.24 19.8026 84.4833 19.6626 84.79H19.0026V80.82H23.3126V81.43ZM33.9086 86.34H30.7286L30.1186 88H29.3786L31.9286 81.1H32.7186L35.2586 88H34.5186L33.9086 86.34ZM33.6986 85.76L32.3186 81.98L30.9386 85.76H33.6986ZM44.212 81.1V88H43.512V82.49L41.052 88H40.542L38.082 82.51V88H37.382V81.1H38.122L40.792 87.08L43.462 81.1H44.212Z" fill="white"/>
<path d="M79.63 55.1V62H78.93V56.49L76.47 62H75.96L73.5 56.51V62H72.8V55.1H73.54L76.21 61.08L78.88 55.1H79.63ZM84.608 62.08C84.0946 62.08 83.6313 61.9667 83.218 61.74C82.8113 61.5067 82.488 61.18 82.248 60.76C82.0146 60.3333 81.898 59.8367 81.898 59.27C81.898 58.7033 82.018 58.21 82.258 57.79C82.498 57.3633 82.8246 57.0367 83.238 56.81C83.6513 56.5767 84.1146 56.46 84.628 56.46C85.1413 56.46 85.6046 56.5767 86.018 56.81C86.438 57.0367 86.7646 57.3633 86.998 57.79C87.238 58.21 87.358 58.7033 87.358 59.27C87.358 59.83 87.238 60.3233 86.998 60.75C86.758 61.1767 86.428 61.5067 86.008 61.74C85.588 61.9667 85.1213 62.08 84.608 62.08ZM84.608 61.47C84.968 61.47 85.3013 61.39 85.608 61.23C85.9146 61.0633 86.1613 60.8167 86.348 60.49C86.5413 60.1567 86.638 59.75 86.638 59.27C86.638 58.79 86.5446 58.3867 86.358 58.06C86.1713 57.7267 85.9246 57.48 85.618 57.32C85.3113 57.1533 84.978 57.07 84.618 57.07C84.258 57.07 83.9246 57.1533 83.618 57.32C83.3113 57.48 83.0646 57.7267 82.878 58.06C82.698 58.3867 82.608 58.79 82.608 59.27C82.608 59.75 82.698 60.1567 82.878 60.49C83.0646 60.8167 83.308 61.0633 83.608 61.23C83.9146 61.39 84.248 61.47 84.608 61.47ZM92.194 56.44C92.8473 56.44 93.3807 56.6433 93.794 57.05C94.2073 57.45 94.414 58.0333 94.414 58.8V62H93.724V58.88C93.724 58.2867 93.574 57.8333 93.274 57.52C92.9807 57.2067 92.5773 57.05 92.064 57.05C91.5373 57.05 91.1173 57.2167 90.804 57.55C90.4907 57.8833 90.334 58.3733 90.334 59.02V62H89.634V56.54H90.334V57.47C90.5073 57.1367 90.7573 56.8833 91.084 56.71C91.4107 56.53 91.7807 56.44 92.194 56.44Z" fill="white"/>
<path d="M155.89 55.01V55.59H153.95V62H153.25V55.59H151.3V55.01H155.89ZM162.725 56.54V62H162.025V61.04C161.865 61.38 161.619 61.64 161.285 61.82C160.952 62 160.579 62.09 160.165 62.09C159.512 62.09 158.979 61.89 158.565 61.49C158.152 61.0833 157.945 60.4967 157.945 59.73V56.54H158.635V59.65C158.635 60.2433 158.782 60.6967 159.075 61.01C159.375 61.3233 159.782 61.48 160.295 61.48C160.822 61.48 161.242 61.3133 161.555 60.98C161.869 60.6467 162.025 60.1567 162.025 59.51V56.54H162.725ZM170.263 58.99C170.263 59.23 170.257 59.4133 170.243 59.54H165.713C165.733 59.9533 165.833 60.3067 166.013 60.6C166.193 60.8933 166.43 61.1167 166.723 61.27C167.017 61.4167 167.337 61.49 167.683 61.49C168.137 61.49 168.517 61.38 168.823 61.16C169.137 60.94 169.343 60.6433 169.443 60.27H170.183C170.05 60.8033 169.763 61.24 169.323 61.58C168.89 61.9133 168.343 62.08 167.683 62.08C167.17 62.08 166.71 61.9667 166.303 61.74C165.897 61.5067 165.577 61.18 165.343 60.76C165.117 60.3333 165.003 59.8367 165.003 59.27C165.003 58.7033 165.117 58.2067 165.343 57.78C165.57 57.3533 165.887 57.0267 166.293 56.8C166.7 56.5733 167.163 56.46 167.683 56.46C168.203 56.46 168.657 56.5733 169.043 56.8C169.437 57.0267 169.737 57.3333 169.943 57.72C170.157 58.1 170.263 58.5233 170.263 58.99ZM169.553 58.97C169.56 58.5633 169.477 58.2167 169.303 57.93C169.137 57.6433 168.907 57.4267 168.613 57.28C168.32 57.1333 168 57.06 167.653 57.06C167.133 57.06 166.69 57.2267 166.323 57.56C165.957 57.8933 165.753 58.3633 165.713 58.97H169.553Z" fill="white"/>
<path d="M234.28 55.01L232.3 62H231.52L229.76 56.04L227.96 62L227.2 62.01L225.26 55.01H226.01L227.61 61.14L229.4 55.01H230.18L231.92 61.14L233.53 55.01H234.28ZM241.291 58.99C241.291 59.23 241.284 59.4133 241.271 59.54H236.741C236.761 59.9533 236.861 60.3067 237.041 60.6C237.221 60.8933 237.457 61.1167 237.751 61.27C238.044 61.4167 238.364 61.49 238.711 61.49C239.164 61.49 239.544 61.38 239.851 61.16C240.164 60.94 240.371 60.6433 240.471 60.27H241.211C241.077 60.8033 240.791 61.24 240.351 61.58C239.917 61.9133 239.371 62.08 238.711 62.08C238.197 62.08 237.737 61.9667 237.331 61.74C236.924 61.5067 236.604 61.18 236.371 60.76C236.144 60.3333 236.031 59.8367 236.031 59.27C236.031 58.7033 236.144 58.2067 236.371 57.78C236.597 57.3533 236.914 57.0267 237.321 56.8C237.727 56.5733 238.191 56.46 238.711 56.46C239.231 56.46 239.684 56.5733 240.071 56.8C240.464 57.0267 240.764 57.3333 240.971 57.72C241.184 58.1 241.291 58.5233 241.291 58.99ZM240.581 58.97C240.587 58.5633 240.504 58.2167 240.331 57.93C240.164 57.6433 239.934 57.4267 239.641 57.28C239.347 57.1333 239.027 57.06 238.681 57.06C238.161 57.06 237.717 57.2267 237.351 57.56C236.984 57.8933 236.781 58.3633 236.741 58.97H240.581ZM243.251 59.26C243.251 58.7 243.365 58.21 243.591 57.79C243.818 57.3633 244.128 57.0367 244.521 56.81C244.921 56.5767 245.371 56.46 245.871 56.46C246.351 56.46 246.785 56.5767 247.171 56.81C247.558 57.0433 247.841 57.3467 248.021 57.72V54.6H248.721V62H248.021V60.78C247.855 61.16 247.581 61.4733 247.201 61.72C246.821 61.96 246.375 62.08 245.861 62.08C245.361 62.08 244.911 61.9633 244.511 61.73C244.118 61.4967 243.808 61.1667 243.581 60.74C243.361 60.3133 243.251 59.82 243.251 59.26ZM248.021 59.27C248.021 58.83 247.931 58.4433 247.751 58.11C247.571 57.7767 247.325 57.52 247.011 57.34C246.705 57.16 246.365 57.07 245.991 57.07C245.605 57.07 245.258 57.1567 244.951 57.33C244.645 57.5033 244.401 57.7567 244.221 58.09C244.048 58.4167 243.961 58.8067 243.961 59.26C243.961 59.7067 244.048 60.1 244.221 60.44C244.401 60.7733 244.645 61.03 244.951 61.21C245.258 61.3833 245.605 61.47 245.991 61.47C246.365 61.47 246.705 61.38 247.011 61.2C247.325 61.02 247.571 60.7633 247.751 60.43C247.931 60.0967 248.021 59.71 248.021 59.27Z" fill="white"/>
<path d="M309.89 55.01V55.59H307.95V62H307.25V55.59H305.3V55.01H309.89ZM314.595 56.44C315.009 56.44 315.379 56.5267 315.705 56.7C316.039 56.8733 316.299 57.14 316.485 57.5C316.679 57.8533 316.775 58.2867 316.775 58.8V62H316.085V58.88C316.085 58.2867 315.935 57.8333 315.635 57.52C315.342 57.2067 314.939 57.05 314.425 57.05C313.899 57.05 313.479 57.2167 313.165 57.55C312.852 57.8833 312.695 58.3733 312.695 59.02V62H311.995V54.6H312.695V57.47C312.869 57.1433 313.122 56.89 313.455 56.71C313.795 56.53 314.175 56.44 314.595 56.44ZM324.053 56.54V62H323.353V61.04C323.193 61.38 322.947 61.64 322.613 61.82C322.28 62 321.907 62.09 321.493 62.09C320.84 62.09 320.307 61.89 319.893 61.49C319.48 61.0833 319.273 60.4967 319.273 59.73V56.54H319.963V59.65C319.963 60.2433 320.11 60.6967 320.403 61.01C320.703 61.3233 321.11 61.48 321.623 61.48C322.15 61.48 322.57 61.3133 322.883 60.98C323.197 60.6467 323.353 60.1567 323.353 59.51V56.54H324.053Z" fill="white"/>
<path d="M389.58 55.01V55.59H386.5V58.2H389.1V58.78H386.5V62H385.8V55.01H389.58ZM392.432 57.51C392.585 57.17 392.818 56.9067 393.132 56.72C393.452 56.5333 393.842 56.44 394.302 56.44V57.17H394.112C393.605 57.17 393.198 57.3067 392.892 57.58C392.585 57.8533 392.432 58.31 392.432 58.95V62H391.732V56.54H392.432V57.51ZM396.705 55.51C396.565 55.51 396.445 55.46 396.345 55.36C396.245 55.26 396.195 55.1367 396.195 54.99C396.195 54.8433 396.245 54.7233 396.345 54.63C396.445 54.53 396.565 54.48 396.705 54.48C396.845 54.48 396.965 54.53 397.065 54.63C397.165 54.7233 397.215 54.8433 397.215 54.99C397.215 55.1367 397.165 55.26 397.065 55.36C396.965 55.46 396.845 55.51 396.705 55.51ZM397.055 56.54V62H396.355V56.54H397.055Z" fill="white"/>
<path d="M462.885 62.07C462.425 62.07 462.018 61.99 461.665 61.83C461.318 61.67 461.045 61.4467 460.845 61.16C460.645 60.8733 460.538 60.5533 460.525 60.2H461.265C461.298 60.54 461.448 60.84 461.715 61.1C461.982 61.3533 462.372 61.48 462.885 61.48C463.358 61.48 463.732 61.36 464.005 61.12C464.285 60.8733 464.425 60.5633 464.425 60.19C464.425 59.89 464.348 59.65 464.195 59.47C464.042 59.2833 463.852 59.1467 463.625 59.06C463.398 58.9667 463.085 58.8667 462.685 58.76C462.218 58.6333 461.848 58.51 461.575 58.39C461.302 58.27 461.068 58.0833 460.875 57.83C460.682 57.5767 460.585 57.2333 460.585 56.8C460.585 56.44 460.678 56.12 460.865 55.84C461.052 55.5533 461.315 55.33 461.655 55.17C461.995 55.01 462.385 54.93 462.825 54.93C463.472 54.93 463.992 55.09 464.385 55.41C464.785 55.7233 465.015 56.13 465.075 56.63H464.315C464.268 56.3433 464.112 56.09 463.845 55.87C463.578 55.6433 463.218 55.53 462.765 55.53C462.345 55.53 461.995 55.6433 461.715 55.87C461.435 56.09 461.295 56.3933 461.295 56.78C461.295 57.0733 461.372 57.31 461.525 57.49C461.678 57.67 461.868 57.8067 462.095 57.9C462.328 57.9933 462.642 58.0933 463.035 58.2C463.488 58.3267 463.855 58.4533 464.135 58.58C464.415 58.7 464.652 58.8867 464.845 59.14C465.038 59.3933 465.135 59.7333 465.135 60.16C465.135 60.4867 465.048 60.7967 464.875 61.09C464.702 61.3833 464.445 61.62 464.105 61.8C463.765 61.98 463.358 62.07 462.885 62.07ZM467.168 59.26C467.168 58.7 467.278 58.21 467.498 57.79C467.724 57.3633 468.034 57.0367 468.428 56.81C468.828 56.5767 469.278 56.46 469.778 56.46C470.298 56.46 470.744 56.58 471.118 56.82C471.498 57.06 471.771 57.3667 471.938 57.74V56.54H472.638V62H471.938V60.79C471.764 61.1633 471.488 61.4733 471.108 61.72C470.734 61.96 470.288 62.08 469.768 62.08C469.274 62.08 468.828 61.9633 468.428 61.73C468.034 61.4967 467.724 61.1667 467.498 60.74C467.278 60.3133 467.168 59.82 467.168 59.26ZM471.938 59.27C471.938 58.83 471.848 58.4433 471.668 58.11C471.488 57.7767 471.241 57.52 470.928 57.34C470.621 57.16 470.281 57.07 469.908 57.07C469.521 57.07 469.174 57.1567 468.868 57.33C468.561 57.5033 468.318 57.7567 468.138 58.09C467.964 58.4167 467.878 58.8067 467.878 59.26C467.878 59.7067 467.964 60.1 468.138 60.44C468.318 60.7733 468.561 61.03 468.868 61.21C469.174 61.3833 469.521 61.47 469.908 61.47C470.281 61.47 470.621 61.38 470.928 61.2C471.241 61.02 471.488 60.7633 471.668 60.43C471.848 60.0967 471.938 59.71 471.938 59.27ZM476.146 57.13V60.52C476.146 60.8533 476.209 61.0833 476.336 61.21C476.462 61.3367 476.686 61.4 477.006 61.4H477.646V62H476.896C476.402 62 476.036 61.8867 475.796 61.66C475.556 61.4267 475.436 61.0467 475.436 60.52V57.13H474.676V56.54H475.436V55.17H476.146V56.54H477.646V57.13H476.146Z" fill="white"/>
<path d="M539.92 62.07C539.46 62.07 539.053 61.99 538.7 61.83C538.353 61.67 538.08 61.4467 537.88 61.16C537.68 60.8733 537.573 60.5533 537.56 60.2H538.3C538.333 60.54 538.483 60.84 538.75 61.1C539.017 61.3533 539.407 61.48 539.92 61.48C540.393 61.48 540.767 61.36 541.04 61.12C541.32 60.8733 541.46 60.5633 541.46 60.19C541.46 59.89 541.383 59.65 541.23 59.47C541.077 59.2833 540.887 59.1467 540.66 59.06C540.433 58.9667 540.12 58.8667 539.72 58.76C539.253 58.6333 538.883 58.51 538.61 58.39C538.337 58.27 538.103 58.0833 537.91 57.83C537.717 57.5767 537.62 57.2333 537.62 56.8C537.62 56.44 537.713 56.12 537.9 55.84C538.087 55.5533 538.35 55.33 538.69 55.17C539.03 55.01 539.42 54.93 539.86 54.93C540.507 54.93 541.027 55.09 541.42 55.41C541.82 55.7233 542.05 56.13 542.11 56.63H541.35C541.303 56.3433 541.147 56.09 540.88 55.87C540.613 55.6433 540.253 55.53 539.8 55.53C539.38 55.53 539.03 55.6433 538.75 55.87C538.47 56.09 538.33 56.3933 538.33 56.78C538.33 57.0733 538.407 57.31 538.56 57.49C538.713 57.67 538.903 57.8067 539.13 57.9C539.363 57.9933 539.677 58.0933 540.07 58.2C540.523 58.3267 540.89 58.4533 541.17 58.58C541.45 58.7 541.687 58.8867 541.88 59.14C542.073 59.3933 542.17 59.7333 542.17 60.16C542.17 60.4867 542.083 60.7967 541.91 61.09C541.737 61.3833 541.48 61.62 541.14 61.8C540.8 61.98 540.393 62.07 539.92 62.07ZM549.253 56.54V62H548.553V61.04C548.393 61.38 548.146 61.64 547.813 61.82C547.479 62 547.106 62.09 546.693 62.09C546.039 62.09 545.506 61.89 545.093 61.49C544.679 61.0833 544.473 60.4967 544.473 59.73V56.54H545.163V59.65C545.163 60.2433 545.309 60.6967 545.603 61.01C545.903 61.3233 546.309 61.48 546.823 61.48C547.349 61.48 547.769 61.3133 548.083 60.98C548.396 60.6467 548.553 60.1567 548.553 59.51V56.54H549.253ZM554.411 56.44C555.064 56.44 555.597 56.6433 556.011 57.05C556.424 57.45 556.631 58.0333 556.631 58.8V62H555.941V58.88C555.941 58.2867 555.791 57.8333 555.491 57.52C555.197 57.2067 554.794 57.05 554.281 57.05C553.754 57.05 553.334 57.2167 553.021 57.55C552.707 57.8833 552.551 58.3733 552.551 59.02V62H551.851V56.54H552.551V57.47C552.724 57.1367 552.974 56.8833 553.301 56.71C553.627 56.53 553.997 56.44 554.411 56.44Z" fill="white"/>
<path d="M12.4703 136.35C12.4703 135.203 12.647 134.313 13.0003 133.68C13.3536 133.047 13.987 132.73 14.9003 132.73C15.8136 132.73 16.447 133.047 16.8003 133.68C17.1536 134.313 17.3303 135.203 17.3303 136.35C17.3303 137.517 17.1536 138.42 16.8003 139.06C16.447 139.7 15.8136 140.02 14.9003 140.02C13.9803 140.02 13.3436 139.7 12.9903 139.06C12.6436 138.42 12.4703 137.517 12.4703 136.35ZM16.6403 136.35C16.6403 135.73 16.597 135.207 16.5103 134.78C16.4236 134.353 16.2536 134.01 16.0003 133.75C15.747 133.49 15.3803 133.36 14.9003 133.36C14.4203 133.36 14.0536 133.49 13.8003 133.75C13.547 134.01 13.377 134.353 13.2903 134.78C13.2036 135.207 13.1603 135.73 13.1603 136.35C13.1603 136.99 13.2036 137.527 13.2903 137.96C13.377 138.387 13.547 138.73 13.8003 138.99C14.0536 139.25 14.4203 139.38 14.9003 139.38C15.3803 139.38 15.747 139.25 16.0003 138.99C16.2536 138.73 16.4236 138.387 16.5103 137.96C16.597 137.527 16.6403 136.99 16.6403 136.35ZM23.9224 133.38L21.1324 140H20.4224L23.2424 133.44H19.2424V132.84H23.9224V133.38ZM33.9086 138.34H30.7286L30.1186 140H29.3786L31.9286 133.1H32.7186L35.2586 140H34.5186L33.9086 138.34ZM33.6986 137.76L32.3186 133.98L30.9386 137.76H33.6986ZM44.212 133.1V140H43.512V134.49L41.052 140H40.542L38.082 134.51V140H37.382V133.1H38.122L40.792 139.08L43.462 133.1H44.212Z" fill="white"/>
<path d="M11.5621 162.35C11.5621 161.203 11.7388 160.313 12.0921 159.68C12.4454 159.047 13.0788 158.73 13.9921 158.73C14.9054 158.73 15.5388 159.047 15.8921 159.68C16.2454 160.313 16.4221 161.203 16.4221 162.35C16.4221 163.517 16.2454 164.42 15.8921 165.06C15.5388 165.7 14.9054 166.02 13.9921 166.02C13.0721 166.02 12.4354 165.7 12.0821 165.06C11.7354 164.42 11.5621 163.517 11.5621 162.35ZM15.7321 162.35C15.7321 161.73 15.6888 161.207 15.6021 160.78C15.5154 160.353 15.3454 160.01 15.0921 159.75C14.8388 159.49 14.4721 159.36 13.9921 159.36C13.5121 159.36 13.1454 159.49 12.8921 159.75C12.6388 160.01 12.4688 160.353 12.3821 160.78C12.2954 161.207 12.2521 161.73 12.2521 162.35C12.2521 162.99 12.2954 163.527 12.3821 163.96C12.4688 164.387 12.6388 164.73 12.8921 164.99C13.1454 165.25 13.5121 165.38 13.9921 165.38C14.4721 165.38 14.8388 165.25 15.0921 164.99C15.3454 164.73 15.5154 164.387 15.6021 163.96C15.6888 163.527 15.7321 162.99 15.7321 162.35ZM20.1142 162.28C19.7009 162.147 19.3842 161.937 19.1642 161.65C18.9509 161.363 18.8442 161.017 18.8442 160.61C18.8442 160.25 18.9342 159.93 19.1142 159.65C19.3009 159.363 19.5709 159.14 19.9242 158.98C20.2776 158.813 20.7009 158.73 21.1942 158.73C21.6876 158.73 22.1109 158.813 22.4642 158.98C22.8176 159.14 23.0842 159.363 23.2642 159.65C23.4509 159.93 23.5442 160.25 23.5442 160.61C23.5442 161.01 23.4342 161.357 23.2142 161.65C23.0009 161.943 22.6876 162.153 22.2742 162.28C22.7276 162.393 23.0842 162.61 23.3442 162.93C23.6042 163.25 23.7342 163.64 23.7342 164.1C23.7342 164.527 23.6276 164.9 23.4142 165.22C23.2076 165.533 22.9109 165.777 22.5242 165.95C22.1442 166.123 21.7009 166.21 21.1942 166.21C20.6876 166.21 20.2409 166.123 19.8542 165.95C19.4742 165.777 19.1776 165.533 18.9642 165.22C18.7576 164.9 18.6542 164.527 18.6542 164.1C18.6542 163.64 18.7842 163.25 19.0442 162.93C19.3042 162.61 19.6609 162.393 20.1142 162.28ZM22.8642 160.69C22.8642 160.25 22.7142 159.91 22.4142 159.67C22.1142 159.43 21.7076 159.31 21.1942 159.31C20.6809 159.31 20.2742 159.43 19.9742 159.67C19.6742 159.903 19.5242 160.243 19.5242 160.69C19.5242 161.103 19.6776 161.433 19.9842 161.68C20.2909 161.927 20.6942 162.05 21.1942 162.05C21.6942 162.05 22.0976 161.927 22.4042 161.68C22.7109 161.433 22.8642 161.103 22.8642 160.69ZM21.1942 162.59C20.6476 162.59 20.2009 162.713 19.8542 162.96C19.5076 163.207 19.3342 163.58 19.3342 164.08C19.3342 164.56 19.5009 164.937 19.8342 165.21C20.1676 165.483 20.6209 165.62 21.1942 165.62C21.7609 165.62 22.2109 165.483 22.5442 165.21C22.8776 164.93 23.0442 164.553 23.0442 164.08C23.0442 163.587 22.8709 163.217 22.5242 162.97C22.1842 162.717 21.7409 162.59 21.1942 162.59ZM33.9086 164.34H30.7286L30.1186 166H29.3786L31.9286 159.1H32.7186L35.2586 166H34.5186L33.9086 164.34ZM33.6986 163.76L32.3186 159.98L30.9386 163.76H33.6986ZM44.212 159.1V166H43.512V160.49L41.052 166H40.542L38.082 160.51V166H37.382V159.1H38.122L40.792 165.08L43.462 159.1H44.212Z" fill="white"/>
<path d="M11.5523 188.35C11.5523 187.203 11.729 186.313 12.0823 185.68C12.4357 185.047 13.069 184.73 13.9823 184.73C14.8957 184.73 15.529 185.047 15.8823 185.68C16.2357 186.313 16.4123 187.203 16.4123 188.35C16.4123 189.517 16.2357 190.42 15.8823 191.06C15.529 191.7 14.8957 192.02 13.9823 192.02C13.0623 192.02 12.4257 191.7 12.0723 191.06C11.7257 190.42 11.5523 189.517 11.5523 188.35ZM15.7223 188.35C15.7223 187.73 15.679 187.207 15.5923 186.78C15.5057 186.353 15.3357 186.01 15.0823 185.75C14.829 185.49 14.4623 185.36 13.9823 185.36C13.5023 185.36 13.1357 185.49 12.8823 185.75C12.629 186.01 12.459 186.353 12.3723 186.78C12.2857 187.207 12.2423 187.73 12.2423 188.35C12.2423 188.99 12.2857 189.527 12.3723 189.96C12.459 190.387 12.629 190.73 12.8823 190.99C13.1357 191.25 13.5023 191.38 13.9823 191.38C14.4623 191.38 14.829 191.25 15.0823 190.99C15.3357 190.73 15.5057 190.387 15.5923 189.96C15.679 189.527 15.7223 188.99 15.7223 188.35ZM19.6445 190.09C19.7178 190.523 19.8845 190.857 20.1445 191.09C20.4045 191.323 20.7611 191.44 21.2145 191.44C21.8411 191.44 22.3045 191.197 22.6045 190.71C22.9111 190.217 23.0511 189.403 23.0245 188.27C22.8978 188.637 22.6545 188.927 22.2945 189.14C21.9411 189.347 21.5345 189.45 21.0745 189.45C20.3745 189.45 19.8111 189.24 19.3845 188.82C18.9645 188.4 18.7545 187.817 18.7545 187.07C18.7545 186.623 18.8411 186.22 19.0145 185.86C19.1878 185.5 19.4511 185.217 19.8045 185.01C20.1578 184.803 20.5911 184.7 21.1045 184.7C22.0511 184.7 22.7111 185.01 23.0845 185.63C23.4578 186.243 23.6445 187.127 23.6445 188.28C23.6445 189.527 23.4578 190.463 23.0845 191.09C22.7178 191.717 22.0845 192.03 21.1845 192.03C20.5245 192.03 20.0111 191.853 19.6445 191.5C19.2778 191.14 19.0611 190.67 18.9945 190.09H19.6445ZM21.1845 188.85C21.4978 188.85 21.7845 188.787 22.0445 188.66C22.3111 188.527 22.5245 188.333 22.6845 188.08C22.8445 187.827 22.9245 187.523 22.9245 187.17C22.9245 186.623 22.7678 186.173 22.4545 185.82C22.1478 185.467 21.7045 185.29 21.1245 185.29C20.6111 185.29 20.1978 185.45 19.8845 185.77C19.5778 186.09 19.4245 186.517 19.4245 187.05C19.4245 187.61 19.5778 188.05 19.8845 188.37C20.1911 188.69 20.6245 188.85 21.1845 188.85ZM33.9086 190.34H30.7286L30.1186 192H29.3786L31.9286 185.1H32.7186L35.2586 192H34.5186L33.9086 190.34ZM33.6986 189.76L32.3186 185.98L30.9386 189.76H33.6986ZM44.212 185.1V192H43.512V186.49L41.052 192H40.542L38.082 186.51V192H37.382V185.1H38.122L40.792 191.08L43.462 185.1H44.212Z" fill="white"/>
<path d="M14.5424 211.46V210.83H16.2424V218H15.5324V211.46H14.5424ZM18.8023 214.35C18.8023 213.203 18.979 212.313 19.3323 211.68C19.6857 211.047 20.319 210.73 21.2323 210.73C22.1457 210.73 22.779 211.047 23.1323 211.68C23.4857 212.313 23.6623 213.203 23.6623 214.35C23.6623 215.517 23.4857 216.42 23.1323 217.06C22.779 217.7 22.1457 218.02 21.2323 218.02C20.3123 218.02 19.6757 217.7 19.3223 217.06C18.9757 216.42 18.8023 215.517 18.8023 214.35ZM22.9723 214.35C22.9723 213.73 22.929 213.207 22.8423 212.78C22.7557 212.353 22.5857 212.01 22.3323 211.75C22.079 211.49 21.7123 211.36 21.2323 211.36C20.7523 211.36 20.3857 211.49 20.1323 211.75C19.879 212.01 19.709 212.353 19.6223 212.78C19.5357 213.207 19.4923 213.73 19.4923 214.35C19.4923 214.99 19.5357 215.527 19.6223 215.96C19.709 216.387 19.879 216.73 20.1323 216.99C20.3857 217.25 20.7523 217.38 21.2323 217.38C21.7123 217.38 22.079 217.25 22.3323 216.99C22.5857 216.73 22.7557 216.387 22.8423 215.96C22.929 215.527 22.9723 214.99 22.9723 214.35ZM33.9086 216.34H30.7286L30.1186 218H29.3786L31.9286 211.1H32.7186L35.2586 218H34.5186L33.9086 216.34ZM33.6986 215.76L32.3186 211.98L30.9386 215.76H33.6986ZM44.212 211.1V218H43.512V212.49L41.052 218H40.542L38.082 212.51V218H37.382V211.1H38.122L40.792 217.08L43.462 211.1H44.212Z" fill="white"/>
<path d="M17.7846 237.46V236.83H19.4846V244H18.7746V237.46H17.7846ZM21.7045 237.46V236.83H23.4045V244H22.6945V237.46H21.7045ZM33.9086 242.34H30.7286L30.1186 244H29.3786L31.9286 237.1H32.7186L35.2586 244H34.5186L33.9086 242.34ZM33.6986 241.76L32.3186 237.98L30.9386 241.76H33.6986ZM44.212 237.1V244H43.512V238.49L41.052 244H40.542L38.082 238.51V244H37.382V237.1H38.122L40.792 243.08L43.462 237.1H44.212Z" fill="white"/>
<path d="M15.8608 263.46V262.83H17.5608V270H16.8508V263.46H15.8608ZM19.9807 269.45C21.2074 268.53 22.154 267.707 22.8207 266.98C23.494 266.247 23.8307 265.53 23.8307 264.83C23.8307 264.37 23.714 264.003 23.4807 263.73C23.254 263.45 22.8807 263.31 22.3607 263.31C21.854 263.31 21.4607 263.47 21.1807 263.79C20.9074 264.103 20.754 264.523 20.7207 265.05H20.0407C20.0807 264.31 20.3074 263.737 20.7207 263.33C21.1407 262.917 21.6874 262.71 22.3607 262.71C23.0074 262.71 23.5307 262.893 23.9307 263.26C24.3307 263.62 24.5307 264.133 24.5307 264.8C24.5307 265.607 24.194 266.39 23.5207 267.15C22.854 267.903 22.0307 268.64 21.0507 269.36H24.7507V269.95H19.9807V269.45ZM35.2075 265.02C35.2075 265.62 35.0108 266.103 34.6175 266.47C34.2242 266.837 33.6342 267.02 32.8475 267.02H31.4375V270H30.7375V263.01H32.8475C33.6275 263.01 34.2142 263.193 34.6075 263.56C35.0075 263.927 35.2075 264.413 35.2075 265.02ZM32.8475 266.42C33.9408 266.42 34.4875 265.953 34.4875 265.02C34.4875 264.553 34.3575 264.2 34.0975 263.96C33.8375 263.72 33.4208 263.6 32.8475 263.6H31.4375V266.42H32.8475ZM44.212 263.1V270H43.512V264.49L41.052 270H40.542L38.082 264.51V270H37.382V263.1H38.122L40.792 269.08L43.462 263.1H44.212Z" fill="white"/>
<path d="M15.7338 289.46V288.83H17.4338V296H16.7238V289.46H15.7338ZM19.9638 290.66C20.0104 290.053 20.2438 289.577 20.6637 289.23C21.0904 288.877 21.6404 288.7 22.3138 288.7C22.7604 288.7 23.1438 288.78 23.4638 288.94C23.7838 289.1 24.0238 289.32 24.1838 289.6C24.3504 289.873 24.4338 290.183 24.4338 290.53C24.4338 290.95 24.3104 291.313 24.0638 291.62C23.8171 291.927 23.4671 292.117 23.0138 292.19V292.24C23.4871 292.333 23.8638 292.54 24.1438 292.86C24.4238 293.173 24.5638 293.587 24.5638 294.1C24.5638 294.673 24.3704 295.143 23.9838 295.51C23.6038 295.87 23.0504 296.05 22.3238 296.05C21.6304 296.05 21.0604 295.87 20.6138 295.51C20.1671 295.143 19.9104 294.627 19.8438 293.96H20.5238C20.5838 294.407 20.7704 294.77 21.0838 295.05C21.3971 295.323 21.8104 295.46 22.3238 295.46C22.8304 295.46 23.2171 295.327 23.4838 295.06C23.7571 294.793 23.8938 294.453 23.8938 294.04C23.8938 293.027 23.1638 292.52 21.7038 292.52H21.4838V291.93H21.7138C23.0738 291.93 23.7538 291.487 23.7538 290.6C23.7538 290.213 23.6271 289.903 23.3738 289.67C23.1204 289.43 22.7604 289.31 22.2938 289.31C21.8404 289.31 21.4638 289.43 21.1638 289.67C20.8704 289.903 20.6971 290.233 20.6438 290.66H19.9638ZM35.2075 291.02C35.2075 291.62 35.0108 292.103 34.6175 292.47C34.2242 292.837 33.6342 293.02 32.8475 293.02H31.4375V296H30.7375V289.01H32.8475C33.6275 289.01 34.2142 289.193 34.6075 289.56C35.0075 289.927 35.2075 290.413 35.2075 291.02ZM32.8475 292.42C33.9408 292.42 34.4875 291.953 34.4875 291.02C34.4875 290.553 34.3575 290.2 34.0975 289.96C33.8375 289.72 33.4208 289.6 32.8475 289.6H31.4375V292.42H32.8475ZM44.212 289.1V296H43.512V290.49L41.052 296H40.542L38.082 290.51V296H37.382V289.1H38.122L40.792 295.08L43.462 289.1H44.212Z" fill="white"/>
<path d="M15.4506 315.46V314.83H17.1506V322H16.4406V315.46H15.4506ZM19.4005 320.3V319.77L23.0405 314.87H23.8705V319.69H24.9405V320.3H23.8705V322H23.1805V320.3H19.4005ZM23.2105 315.64L20.2105 319.69H23.2105V315.64ZM35.2075 317.02C35.2075 317.62 35.0108 318.103 34.6175 318.47C34.2242 318.837 33.6342 319.02 32.8475 319.02H31.4375V322H30.7375V315.01H32.8475C33.6275 315.01 34.2142 315.193 34.6075 315.56C35.0075 315.927 35.2075 316.413 35.2075 317.02ZM32.8475 318.42C33.9408 318.42 34.4875 317.953 34.4875 317.02C34.4875 316.553 34.3575 316.2 34.0975 315.96C33.8375 315.72 33.4208 315.6 32.8475 315.6H31.4375V318.42H32.8475ZM44.212 315.1V322H43.512V316.49L41.052 322H40.542L38.082 316.51V322H37.382V315.1H38.122L40.792 321.08L43.462 315.1H44.212Z" fill="white"/>
<path d="M15.4116 341.46V340.83H17.1116V348H16.4016V341.46H15.4116ZM24.1915 341.43H20.5315V343.99C20.6982 343.757 20.9415 343.567 21.2615 343.42C21.5815 343.267 21.9282 343.19 22.3015 343.19C22.8482 343.19 23.2948 343.303 23.6415 343.53C23.9882 343.75 24.2382 344.04 24.3915 344.4C24.5448 344.753 24.6215 345.133 24.6215 345.54C24.6215 346.007 24.5315 346.43 24.3515 346.81C24.1782 347.183 23.9082 347.48 23.5415 347.7C23.1815 347.92 22.7315 348.03 22.1915 348.03C21.5048 348.03 20.9482 347.853 20.5215 347.5C20.0948 347.14 19.8348 346.657 19.7415 346.05H20.4315C20.5182 346.49 20.7182 346.83 21.0315 347.07C21.3448 347.31 21.7315 347.43 22.1915 347.43C22.7715 347.43 23.2082 347.26 23.5015 346.92C23.8015 346.573 23.9515 346.117 23.9515 345.55C23.9515 344.997 23.8015 344.567 23.5015 344.26C23.2015 343.947 22.7715 343.79 22.2115 343.79C21.8248 343.79 21.4848 343.88 21.1915 344.06C20.8982 344.24 20.6815 344.483 20.5415 344.79H19.8815V340.82H24.1915V341.43ZM35.2075 343.02C35.2075 343.62 35.0108 344.103 34.6175 344.47C34.2242 344.837 33.6342 345.02 32.8475 345.02H31.4375V348H30.7375V341.01H32.8475C33.6275 341.01 34.2142 341.193 34.6075 341.56C35.0075 341.927 35.2075 342.413 35.2075 343.02ZM32.8475 344.42C33.9408 344.42 34.4875 343.953 34.4875 343.02C34.4875 342.553 34.3575 342.2 34.0975 341.96C33.8375 341.72 33.4208 341.6 32.8475 341.6H31.4375V344.42H32.8475ZM44.212 341.1V348H43.512V342.49L41.052 348H40.542L38.082 342.51V348H37.382V341.1H38.122L40.792 347.08L43.462 341.1H44.212Z" fill="white"/>
<path d="M15.2944 367.46V366.83H16.9944V374H16.2844V367.46H15.2944ZM23.6743 368.58C23.5276 367.713 23.0243 367.28 22.1643 367.28C21.511 367.28 21.021 367.533 20.6943 368.04C20.3676 368.547 20.2176 369.377 20.2443 370.53C20.3776 370.13 20.631 369.817 21.0043 369.59C21.3843 369.357 21.8176 369.24 22.3043 369.24C23.0043 369.24 23.5576 369.457 23.9643 369.89C24.3776 370.317 24.5843 370.907 24.5843 371.66C24.5843 372.1 24.4976 372.5 24.3243 372.86C24.1576 373.213 23.8976 373.497 23.5443 373.71C23.1976 373.923 22.7643 374.03 22.2443 374.03C21.251 374.03 20.5643 373.713 20.1843 373.08C19.811 372.447 19.6243 371.55 19.6243 370.39C19.6243 367.923 20.471 366.69 22.1643 366.69C22.8043 366.69 23.3076 366.867 23.6743 367.22C24.041 367.567 24.2576 368.02 24.3243 368.58H23.6743ZM22.1743 369.84C21.861 369.84 21.5643 369.903 21.2843 370.03C21.0043 370.157 20.7743 370.35 20.5943 370.61C20.421 370.863 20.3343 371.177 20.3343 371.55C20.3343 372.09 20.4943 372.54 20.8143 372.9C21.1343 373.26 21.601 373.44 22.2143 373.44C22.7276 373.44 23.1376 373.283 23.4443 372.97C23.751 372.657 23.9043 372.23 23.9043 371.69C23.9043 371.11 23.7543 370.657 23.4543 370.33C23.1543 370.003 22.7276 369.84 22.1743 369.84ZM35.2075 369.02C35.2075 369.62 35.0108 370.103 34.6175 370.47C34.2242 370.837 33.6342 371.02 32.8475 371.02H31.4375V374H30.7375V367.01H32.8475C33.6275 367.01 34.2142 367.193 34.6075 367.56C35.0075 367.927 35.2075 368.413 35.2075 369.02ZM32.8475 370.42C33.9408 370.42 34.4875 369.953 34.4875 369.02C34.4875 368.553 34.3575 368.2 34.0975 367.96C33.8375 367.72 33.4208 367.6 32.8475 367.6H31.4375V370.42H32.8475ZM44.212 367.1V374H43.512V368.49L41.052 374H40.542L38.082 368.51V374H37.382V367.1H38.122L40.792 373.08L43.462 367.1H44.212Z" fill="white"/>
<path d="M203.714 24.23C205.431 22.942 206.757 21.7893 207.69 20.772C208.633 19.7453 209.104 18.742 209.104 17.762C209.104 17.118 208.941 16.6047 208.614 16.222C208.297 15.83 207.774 15.634 207.046 15.634C206.337 15.634 205.786 15.858 205.394 16.306C205.011 16.7447 204.797 17.3327 204.75 18.07H203.798C203.854 17.034 204.171 16.2313 204.75 15.662C205.338 15.0833 206.103 14.794 207.046 14.794C207.951 14.794 208.684 15.0507 209.244 15.564C209.804 16.068 210.084 16.7867 210.084 17.72C210.084 18.8493 209.613 19.946 208.67 21.01C207.737 22.0647 206.584 23.096 205.212 24.104H210.392V24.93H203.714V24.23ZM212.726 24.23C214.443 22.942 215.768 21.7893 216.702 20.772C217.644 19.7453 218.116 18.742 218.116 17.762C218.116 17.118 217.952 16.6047 217.626 16.222C217.308 15.83 216.786 15.634 216.058 15.634C215.348 15.634 214.798 15.858 214.406 16.306C214.023 16.7447 213.808 17.3327 213.762 18.07H212.81C212.866 17.034 213.183 16.2313 213.762 15.662C214.35 15.0833 215.115 14.794 216.058 14.794C216.963 14.794 217.696 15.0507 218.256 15.564C218.816 16.068 219.096 16.7867 219.096 17.72C219.096 18.8493 218.624 19.946 217.682 21.01C216.748 22.0647 215.596 23.096 214.224 24.104H219.404V24.93H212.726V24.23ZM231.731 19.4V20.226H226.285V19.4H231.731ZM239.681 24.23C241.398 22.942 242.723 21.7893 243.657 20.772C244.599 19.7453 245.071 18.742 245.071 17.762C245.071 17.118 244.907 16.6047 244.581 16.222C244.263 15.83 243.741 15.634 243.013 15.634C242.303 15.634 241.753 15.858 241.361 16.306C240.978 16.7447 240.763 17.3327 240.717 18.07H239.765C239.821 17.034 240.138 16.2313 240.717 15.662C241.305 15.0833 242.07 14.794 243.013 14.794C243.918 14.794 244.651 15.0507 245.211 15.564C245.771 16.068 246.051 16.7867 246.051 17.72C246.051 18.8493 245.579 19.946 244.637 21.01C243.703 22.0647 242.551 23.096 241.179 24.104H246.359V24.93H239.681V24.23ZM250.191 22.326C250.293 22.9327 250.527 23.3993 250.891 23.726C251.255 24.0527 251.754 24.216 252.389 24.216C253.266 24.216 253.915 23.8753 254.335 23.194C254.764 22.5033 254.96 21.3647 254.923 19.778C254.745 20.2913 254.405 20.6973 253.901 20.996C253.406 21.2853 252.837 21.43 252.193 21.43C251.213 21.43 250.424 21.136 249.827 20.548C249.239 19.96 248.945 19.1433 248.945 18.098C248.945 17.4727 249.066 16.908 249.309 16.404C249.551 15.9 249.92 15.5033 250.415 15.214C250.909 14.9247 251.516 14.78 252.235 14.78C253.56 14.78 254.484 15.214 255.007 16.082C255.529 16.9407 255.791 18.1773 255.791 19.792C255.791 21.5373 255.529 22.8487 255.007 23.726C254.493 24.6033 253.607 25.042 252.347 25.042C251.423 25.042 250.704 24.7947 250.191 24.3C249.677 23.796 249.374 23.138 249.281 22.326H250.191ZM252.347 20.59C252.785 20.59 253.187 20.5013 253.551 20.324C253.924 20.1373 254.223 19.8667 254.447 19.512C254.671 19.1573 254.783 18.7327 254.783 18.238C254.783 17.4727 254.563 16.8427 254.125 16.348C253.695 15.8533 253.075 15.606 252.263 15.606C251.544 15.606 250.965 15.83 250.527 16.278C250.097 16.726 249.883 17.3233 249.883 18.07C249.883 18.854 250.097 19.47 250.527 19.918C250.956 20.366 251.563 20.59 252.347 20.59ZM266.588 15.214C267.671 15.214 268.6 15.41 269.374 15.802C270.149 16.194 270.742 16.7587 271.152 17.496C271.563 18.2333 271.768 19.1107 271.768 20.128C271.768 21.136 271.563 22.0087 271.152 22.746C270.742 23.474 270.149 24.034 269.374 24.426C268.6 24.8087 267.671 25 266.588 25H263.69V15.214H266.588ZM266.588 24.188C267.951 24.188 268.987 23.8333 269.696 23.124C270.415 22.4053 270.774 21.4067 270.774 20.128C270.774 18.84 270.415 17.8367 269.696 17.118C268.987 16.39 267.951 16.026 266.588 16.026H264.67V24.188H266.588ZM281.491 20.786C281.491 21.122 281.482 21.3787 281.463 21.556H275.121C275.149 22.1347 275.289 22.6293 275.541 23.04C275.793 23.4507 276.124 23.7633 276.535 23.978C276.946 24.1833 277.394 24.286 277.879 24.286C278.514 24.286 279.046 24.132 279.475 23.824C279.914 23.516 280.203 23.1007 280.343 22.578H281.379C281.192 23.3247 280.791 23.936 280.175 24.412C279.568 24.8787 278.803 25.112 277.879 25.112C277.16 25.112 276.516 24.9533 275.947 24.636C275.378 24.3093 274.93 23.852 274.603 23.264C274.286 22.6667 274.127 21.9713 274.127 21.178C274.127 20.3847 274.286 19.6893 274.603 19.092C274.92 18.4947 275.364 18.0373 275.933 17.72C276.502 17.4027 277.151 17.244 277.879 17.244C278.607 17.244 279.242 17.4027 279.783 17.72C280.334 18.0373 280.754 18.4667 281.043 19.008C281.342 19.54 281.491 20.1327 281.491 20.786ZM280.497 20.758C280.506 20.1887 280.39 19.7033 280.147 19.302C279.914 18.9007 279.592 18.5973 279.181 18.392C278.77 18.1867 278.322 18.084 277.837 18.084C277.109 18.084 276.488 18.3173 275.975 18.784C275.462 19.2507 275.177 19.9087 275.121 20.758H280.497ZM283.836 21.178C283.836 20.3847 283.995 19.694 284.312 19.106C284.629 18.5087 285.068 18.0513 285.628 17.734C286.188 17.4073 286.827 17.244 287.546 17.244C288.489 17.244 289.263 17.4773 289.87 17.944C290.486 18.4107 290.883 19.0453 291.06 19.848H290.01C289.879 19.2973 289.595 18.868 289.156 18.56C288.727 18.2427 288.19 18.084 287.546 18.084C287.033 18.084 286.571 18.2007 286.16 18.434C285.749 18.6673 285.423 19.0173 285.18 19.484C284.947 19.9413 284.83 20.506 284.83 21.178C284.83 21.85 284.947 22.4193 285.18 22.886C285.423 23.3527 285.749 23.7027 286.16 23.936C286.571 24.1693 287.033 24.286 287.546 24.286C288.19 24.286 288.727 24.132 289.156 23.824C289.595 23.5067 289.879 23.068 290.01 22.508H291.06C290.883 23.292 290.486 23.922 289.87 24.398C289.254 24.874 288.479 25.112 287.546 25.112C286.827 25.112 286.188 24.9533 285.628 24.636C285.068 24.3093 284.629 23.852 284.312 23.264C283.995 22.6667 283.836 21.9713 283.836 21.178ZM300.786 20.786C300.786 21.122 300.777 21.3787 300.758 21.556H294.416C294.444 22.1347 294.584 22.6293 294.836 23.04C295.088 23.4507 295.419 23.7633 295.83 23.978C296.241 24.1833 296.689 24.286 297.174 24.286C297.809 24.286 298.341 24.132 298.77 23.824C299.209 23.516 299.498 23.1007 299.638 22.578H300.674C300.487 23.3247 300.086 23.936 299.47 24.412C298.863 24.8787 298.098 25.112 297.174 25.112C296.455 25.112 295.811 24.9533 295.242 24.636C294.673 24.3093 294.225 23.852 293.898 23.264C293.581 22.6667 293.422 21.9713 293.422 21.178C293.422 20.3847 293.581 19.6893 293.898 19.092C294.215 18.4947 294.659 18.0373 295.228 17.72C295.797 17.4027 296.446 17.244 297.174 17.244C297.902 17.244 298.537 17.4027 299.078 17.72C299.629 18.0373 300.049 18.4667 300.338 19.008C300.637 19.54 300.786 20.1327 300.786 20.786ZM299.792 20.758C299.801 20.1887 299.685 19.7033 299.442 19.302C299.209 18.9007 298.887 18.5973 298.476 18.392C298.065 18.1867 297.617 18.084 297.132 18.084C296.404 18.084 295.783 18.3173 295.27 18.784C294.757 19.2507 294.472 19.9087 294.416 20.758H299.792ZM312.679 17.216C313.575 17.216 314.303 17.5007 314.863 18.07C315.432 18.63 315.717 19.4467 315.717 20.52V25H314.751V20.632C314.751 19.8013 314.55 19.1667 314.149 18.728C313.748 18.2893 313.202 18.07 312.511 18.07C311.792 18.07 311.218 18.308 310.789 18.784C310.36 19.26 310.145 19.9507 310.145 20.856V25H309.179V20.632C309.179 19.8013 308.978 19.1667 308.577 18.728C308.176 18.2893 307.625 18.07 306.925 18.07C306.206 18.07 305.632 18.308 305.203 18.784C304.774 19.26 304.559 19.9507 304.559 20.856V25H303.579V17.356H304.559V18.672C304.802 18.196 305.147 17.8367 305.595 17.594C306.043 17.342 306.542 17.216 307.093 17.216C307.756 17.216 308.334 17.3747 308.829 17.692C309.333 18.0093 309.697 18.476 309.921 19.092C310.126 18.4853 310.476 18.0233 310.971 17.706C311.475 17.3793 312.044 17.216 312.679 17.216ZM319.859 19.05C320.111 18.518 320.499 18.084 321.021 17.748C321.553 17.412 322.179 17.244 322.897 17.244C323.597 17.244 324.223 17.4073 324.773 17.734C325.324 18.0513 325.753 18.5087 326.061 19.106C326.379 19.694 326.537 20.38 326.537 21.164C326.537 21.948 326.379 22.6387 326.061 23.236C325.753 23.8333 325.319 24.2953 324.759 24.622C324.209 24.9487 323.588 25.112 322.897 25.112C322.169 25.112 321.539 24.9487 321.007 24.622C320.485 24.286 320.102 23.852 319.859 23.32V25H318.893V14.64H319.859V19.05ZM325.543 21.164C325.543 20.5293 325.417 19.9833 325.165 19.526C324.923 19.0593 324.587 18.7047 324.157 18.462C323.728 18.2193 323.243 18.098 322.701 18.098C322.179 18.098 321.698 18.224 321.259 18.476C320.83 18.728 320.489 19.0873 320.237 19.554C319.985 20.0207 319.859 20.562 319.859 21.178C319.859 21.794 319.985 22.3353 320.237 22.802C320.489 23.2687 320.83 23.628 321.259 23.88C321.698 24.132 322.179 24.258 322.701 24.258C323.243 24.258 323.728 24.1367 324.157 23.894C324.587 23.642 324.923 23.2827 325.165 22.816C325.417 22.34 325.543 21.7893 325.543 21.164ZM336.257 20.786C336.257 21.122 336.247 21.3787 336.229 21.556H329.887C329.915 22.1347 330.055 22.6293 330.307 23.04C330.559 23.4507 330.89 23.7633 331.301 23.978C331.711 24.1833 332.159 24.286 332.645 24.286C333.279 24.286 333.811 24.132 334.241 23.824C334.679 23.516 334.969 23.1007 335.109 22.578H336.145C335.958 23.3247 335.557 23.936 334.941 24.412C334.334 24.8787 333.569 25.112 332.645 25.112C331.926 25.112 331.282 24.9533 330.713 24.636C330.143 24.3093 329.695 23.852 329.369 23.264C329.051 22.6667 328.893 21.9713 328.893 21.178C328.893 20.3847 329.051 19.6893 329.369 19.092C329.686 18.4947 330.129 18.0373 330.699 17.72C331.268 17.4027 331.917 17.244 332.645 17.244C333.373 17.244 334.007 17.4027 334.549 17.72C335.099 18.0373 335.519 18.4667 335.809 19.008C336.107 19.54 336.257 20.1327 336.257 20.786ZM335.263 20.758C335.272 20.1887 335.155 19.7033 334.913 19.302C334.679 18.9007 334.357 18.5973 333.947 18.392C333.536 18.1867 333.088 18.084 332.603 18.084C331.875 18.084 331.254 18.3173 330.741 18.784C330.227 19.2507 329.943 19.9087 329.887 20.758H335.263ZM340.03 18.714C340.244 18.238 340.571 17.8693 341.01 17.608C341.458 17.3467 342.004 17.216 342.648 17.216V18.238H342.382C341.672 18.238 341.103 18.4293 340.674 18.812C340.244 19.1947 340.03 19.834 340.03 20.73V25H339.05V17.356H340.03V18.714ZM349.558 24.23C351.275 22.942 352.6 21.7893 353.534 20.772C354.476 19.7453 354.948 18.742 354.948 17.762C354.948 17.118 354.784 16.6047 354.458 16.222C354.14 15.83 353.618 15.634 352.89 15.634C352.18 15.634 351.63 15.858 351.238 16.306C350.855 16.7447 350.64 17.3327 350.594 18.07H349.642C349.698 17.034 350.015 16.2313 350.594 15.662C351.182 15.0833 351.947 14.794 352.89 14.794C353.795 14.794 354.528 15.0507 355.088 15.564C355.648 16.068 355.928 16.7867 355.928 17.72C355.928 18.8493 355.456 19.946 354.514 21.01C353.58 22.0647 352.428 23.096 351.056 24.104H356.236V24.93H349.558V24.23ZM358.765 19.89C358.765 18.2847 359.013 17.0387 359.507 16.152C360.002 15.2653 360.889 14.822 362.167 14.822C363.446 14.822 364.333 15.2653 364.827 16.152C365.322 17.0387 365.569 18.2847 365.569 19.89C365.569 21.5233 365.322 22.788 364.827 23.684C364.333 24.58 363.446 25.028 362.167 25.028C360.879 25.028 359.988 24.58 359.493 23.684C359.008 22.788 358.765 21.5233 358.765 19.89ZM364.603 19.89C364.603 19.022 364.543 18.2893 364.421 17.692C364.3 17.0947 364.062 16.614 363.707 16.25C363.353 15.886 362.839 15.704 362.167 15.704C361.495 15.704 360.982 15.886 360.627 16.25C360.273 16.614 360.035 17.0947 359.913 17.692C359.792 18.2893 359.731 19.022 359.731 19.89C359.731 20.786 359.792 21.5373 359.913 22.144C360.035 22.7413 360.273 23.222 360.627 23.586C360.982 23.95 361.495 24.132 362.167 24.132C362.839 24.132 363.353 23.95 363.707 23.586C364.062 23.222 364.3 22.7413 364.421 22.144C364.543 21.5373 364.603 20.786 364.603 19.89ZM368.196 24.23C369.914 22.942 371.239 21.7893 372.172 20.772C373.115 19.7453 373.586 18.742 373.586 17.762C373.586 17.118 373.423 16.6047 373.096 16.222C372.779 15.83 372.256 15.634 371.528 15.634C370.819 15.634 370.268 15.858 369.876 16.306C369.494 16.7447 369.279 17.3327 369.232 18.07H368.28C368.336 17.034 368.654 16.2313 369.232 15.662C369.82 15.0833 370.586 14.794 371.528 14.794C372.434 14.794 373.166 15.0507 373.726 15.564C374.286 16.068 374.566 16.7867 374.566 17.72C374.566 18.8493 374.095 19.946 373.152 21.01C372.219 22.0647 371.066 23.096 369.694 24.104H374.874V24.93H368.196V24.23ZM377.208 24.23C378.925 22.942 380.251 21.7893 381.184 20.772C382.127 19.7453 382.598 18.742 382.598 17.762C382.598 17.118 382.435 16.6047 382.108 16.222C381.791 15.83 381.268 15.634 380.54 15.634C379.831 15.634 379.28 15.858 378.888 16.306C378.505 16.7447 378.291 17.3327 378.244 18.07H377.292C377.348 17.034 377.665 16.2313 378.244 15.662C378.832 15.0833 379.597 14.794 380.54 14.794C381.445 14.794 382.178 15.0507 382.738 15.564C383.298 16.068 383.578 16.7867 383.578 17.72C383.578 18.8493 383.107 19.946 382.164 21.01C381.231 22.0647 380.078 23.096 378.706 24.104H383.886V24.93H377.208V24.23Z" fill="white"/>
<line x1="121.5" y1="378" x2="121.5" y2="50" stroke="#F0F0F0"/>
<line x1="198.5" y1="378" x2="198.5" y2="50" stroke="#F0F0F0"/>
<line x1="275.5" y1="378" x2="275.5" y2="50" stroke="#F0F0F0"/>
<line x1="352.5" y1="378" x2="352.5" y2="50" stroke="#F0F0F0"/>
<line x1="429.5" y1="378" x2="429.5" y2="50" stroke="#F0F0F0"/>
<line x1="506.5" y1="378" x2="506.5" y2="50" stroke="#F0F0F0"/>
<rect x="121.5" y="96.5" width="77" height="26" rx="9.5" fill="#1A7FBF" stroke="white"/>
<rect x="352.5" y="96.5" width="77" height="52" rx="9.5" fill="#1A7FBF" stroke="white"/>
<rect x="198.5" y="278.5" width="77" height="52" rx="9.5" fill="#1A7FBF" stroke="white"/>
<rect x="275.5" y="148.5" width="77" height="78" rx="9.5" fill="#1A7FBF" stroke="white"/>
<path d="M139.87 106.01C140.643 106.01 141.307 106.15 141.86 106.43C142.413 106.71 142.837 107.113 143.13 107.64C143.423 108.167 143.57 108.793 143.57 109.52C143.57 110.24 143.423 110.863 143.13 111.39C142.837 111.91 142.413 112.31 141.86 112.59C141.307 112.863 140.643 113 139.87 113H137.8V106.01H139.87ZM139.87 112.42C140.843 112.42 141.583 112.167 142.09 111.66C142.603 111.147 142.86 110.433 142.86 109.52C142.86 108.6 142.603 107.883 142.09 107.37C141.583 106.85 140.843 106.59 139.87 106.59H138.5V112.42H139.87ZM150.801 109.99C150.801 110.23 150.794 110.413 150.781 110.54H146.251C146.271 110.953 146.371 111.307 146.551 111.6C146.731 111.893 146.967 112.117 147.261 112.27C147.554 112.417 147.874 112.49 148.221 112.49C148.674 112.49 149.054 112.38 149.361 112.16C149.674 111.94 149.881 111.643 149.981 111.27H150.721C150.587 111.803 150.301 112.24 149.861 112.58C149.427 112.913 148.881 113.08 148.221 113.08C147.707 113.08 147.247 112.967 146.841 112.74C146.434 112.507 146.114 112.18 145.881 111.76C145.654 111.333 145.541 110.837 145.541 110.27C145.541 109.703 145.654 109.207 145.881 108.78C146.107 108.353 146.424 108.027 146.831 107.8C147.237 107.573 147.701 107.46 148.221 107.46C148.741 107.46 149.194 107.573 149.581 107.8C149.974 108.027 150.274 108.333 150.481 108.72C150.694 109.1 150.801 109.523 150.801 109.99ZM150.091 109.97C150.097 109.563 150.014 109.217 149.841 108.93C149.674 108.643 149.444 108.427 149.151 108.28C148.857 108.133 148.537 108.06 148.191 108.06C147.671 108.06 147.227 108.227 146.861 108.56C146.494 108.893 146.291 109.363 146.251 109.97H150.091ZM153.781 105.6V113H153.081V105.6H153.781ZM156.716 106.51C156.576 106.51 156.456 106.46 156.356 106.36C156.256 106.26 156.206 106.137 156.206 105.99C156.206 105.843 156.256 105.723 156.356 105.63C156.456 105.53 156.576 105.48 156.716 105.48C156.856 105.48 156.976 105.53 157.076 105.63C157.176 105.723 157.226 105.843 157.226 105.99C157.226 106.137 157.176 106.26 157.076 106.36C156.976 106.46 156.856 106.51 156.716 106.51ZM157.066 107.54V113H156.366V107.54H157.066ZM161.592 112.32L163.432 107.54H164.172L161.982 113H161.192L159.002 107.54H159.752L161.592 112.32ZM171.06 109.99C171.06 110.23 171.054 110.413 171.04 110.54H166.51C166.53 110.953 166.63 111.307 166.81 111.6C166.99 111.893 167.227 112.117 167.52 112.27C167.814 112.417 168.134 112.49 168.48 112.49C168.934 112.49 169.314 112.38 169.62 112.16C169.934 111.94 170.14 111.643 170.24 111.27H170.98C170.847 111.803 170.56 112.24 170.12 112.58C169.687 112.913 169.14 113.08 168.48 113.08C167.967 113.08 167.507 112.967 167.1 112.74C166.694 112.507 166.374 112.18 166.14 111.76C165.914 111.333 165.8 110.837 165.8 110.27C165.8 109.703 165.914 109.207 166.14 108.78C166.367 108.353 166.684 108.027 167.09 107.8C167.497 107.573 167.96 107.46 168.48 107.46C169 107.46 169.454 107.573 169.84 107.8C170.234 108.027 170.534 108.333 170.74 108.72C170.954 109.1 171.06 109.523 171.06 109.99ZM170.35 109.97C170.357 109.563 170.274 109.217 170.1 108.93C169.934 108.643 169.704 108.427 169.41 108.28C169.117 108.133 168.797 108.06 168.45 108.06C167.93 108.06 167.487 108.227 167.12 108.56C166.754 108.893 166.55 109.363 166.51 109.97H170.35ZM174.041 108.51C174.194 108.17 174.428 107.907 174.741 107.72C175.061 107.533 175.451 107.44 175.911 107.44V108.17H175.721C175.214 108.17 174.808 108.307 174.501 108.58C174.194 108.853 174.041 109.31 174.041 109.95V113H173.341V107.54H174.041V108.51ZM182.464 107.54L179.224 115.57H178.494L179.554 112.97L177.314 107.54H178.084L179.944 112.2L181.744 107.54H182.464Z" fill="white"/>
<path d="M364.63 120.1V127H363.93V121.49L361.47 127H360.96L358.5 121.51V127H357.8V120.1H358.54L361.21 126.08L363.88 120.1H364.63ZM371.158 123.99C371.158 124.23 371.151 124.413 371.138 124.54H366.608C366.628 124.953 366.728 125.307 366.908 125.6C367.088 125.893 367.325 126.117 367.618 126.27C367.911 126.417 368.231 126.49 368.578 126.49C369.031 126.49 369.411 126.38 369.718 126.16C370.031 125.94 370.238 125.643 370.338 125.27H371.078C370.945 125.803 370.658 126.24 370.218 126.58C369.785 126.913 369.238 127.08 368.578 127.08C368.065 127.08 367.605 126.967 367.198 126.74C366.791 126.507 366.471 126.18 366.238 125.76C366.011 125.333 365.898 124.837 365.898 124.27C365.898 123.703 366.011 123.207 366.238 122.78C366.465 122.353 366.781 122.027 367.188 121.8C367.595 121.573 368.058 121.46 368.578 121.46C369.098 121.46 369.551 121.573 369.938 121.8C370.331 122.027 370.631 122.333 370.838 122.72C371.051 123.1 371.158 123.523 371.158 123.99ZM370.448 123.97C370.455 123.563 370.371 123.217 370.198 122.93C370.031 122.643 369.801 122.427 369.508 122.28C369.215 122.133 368.895 122.06 368.548 122.06C368.028 122.06 367.585 122.227 367.218 122.56C366.851 122.893 366.648 123.363 366.608 123.97H370.448ZM372.119 124.26C372.119 123.7 372.229 123.21 372.449 122.79C372.675 122.363 372.985 122.037 373.379 121.81C373.779 121.577 374.229 121.46 374.729 121.46C375.249 121.46 375.695 121.58 376.069 121.82C376.449 122.06 376.722 122.367 376.889 122.74V121.54H377.589V127H376.889V125.79C376.715 126.163 376.439 126.473 376.059 126.72C375.685 126.96 375.239 127.08 374.719 127.08C374.225 127.08 373.779 126.963 373.379 126.73C372.985 126.497 372.675 126.167 372.449 125.74C372.229 125.313 372.119 124.82 372.119 124.26ZM376.889 124.27C376.889 123.83 376.799 123.443 376.619 123.11C376.439 122.777 376.192 122.52 375.879 122.34C375.572 122.16 375.232 122.07 374.859 122.07C374.472 122.07 374.125 122.157 373.819 122.33C373.512 122.503 373.269 122.757 373.089 123.09C372.915 123.417 372.829 123.807 372.829 124.26C372.829 124.707 372.915 125.1 373.089 125.44C373.269 125.773 373.512 126.03 373.819 126.21C374.125 126.383 374.472 126.47 374.859 126.47C375.232 126.47 375.572 126.38 375.879 126.2C376.192 126.02 376.439 125.763 376.619 125.43C376.799 125.097 376.889 124.71 376.889 124.27ZM381.067 127.08C380.44 127.08 379.927 126.937 379.527 126.65C379.133 126.357 378.913 125.96 378.867 125.46H379.587C379.62 125.767 379.763 126.017 380.017 126.21C380.277 126.397 380.623 126.49 381.057 126.49C381.437 126.49 381.733 126.4 381.947 126.22C382.167 126.04 382.277 125.817 382.277 125.55C382.277 125.363 382.217 125.21 382.097 125.09C381.977 124.97 381.823 124.877 381.637 124.81C381.457 124.737 381.21 124.66 380.897 124.58C380.49 124.473 380.16 124.367 379.907 124.26C379.653 124.153 379.437 123.997 379.257 123.79C379.083 123.577 378.997 123.293 378.997 122.94C378.997 122.673 379.077 122.427 379.237 122.2C379.397 121.973 379.623 121.793 379.917 121.66C380.21 121.527 380.543 121.46 380.917 121.46C381.503 121.46 381.977 121.61 382.337 121.91C382.697 122.203 382.89 122.61 382.917 123.13H382.217C382.197 122.81 382.07 122.553 381.837 122.36C381.61 122.16 381.297 122.06 380.897 122.06C380.543 122.06 380.257 122.143 380.037 122.31C379.817 122.477 379.707 122.683 379.707 122.93C379.707 123.143 379.77 123.32 379.897 123.46C380.03 123.593 380.193 123.7 380.387 123.78C380.58 123.853 380.84 123.937 381.167 124.03C381.56 124.137 381.873 124.24 382.107 124.34C382.34 124.44 382.54 124.587 382.707 124.78C382.873 124.973 382.96 125.23 382.967 125.55C382.967 125.843 382.887 126.107 382.727 126.34C382.567 126.567 382.343 126.747 382.057 126.88C381.77 127.013 381.44 127.08 381.067 127.08ZM389.014 121.54V127H388.314V126.04C388.154 126.38 387.908 126.64 387.574 126.82C387.241 127 386.868 127.09 386.454 127.09C385.801 127.09 385.268 126.89 384.854 126.49C384.441 126.083 384.234 125.497 384.234 124.73V121.54H384.924V124.65C384.924 125.243 385.071 125.697 385.364 126.01C385.664 126.323 386.071 126.48 386.584 126.48C387.111 126.48 387.531 126.313 387.844 125.98C388.158 125.647 388.314 125.157 388.314 124.51V121.54H389.014ZM391.313 122.51C391.466 122.17 391.699 121.907 392.013 121.72C392.333 121.533 392.723 121.44 393.183 121.44V122.17H392.993C392.486 122.17 392.079 122.307 391.773 122.58C391.466 122.853 391.313 123.31 391.313 123.95V127H390.613V121.54H391.313V122.51ZM399.176 123.99C399.176 124.23 399.169 124.413 399.156 124.54H394.626C394.646 124.953 394.746 125.307 394.926 125.6C395.106 125.893 395.342 126.117 395.636 126.27C395.929 126.417 396.249 126.49 396.596 126.49C397.049 126.49 397.429 126.38 397.736 126.16C398.049 125.94 398.256 125.643 398.356 125.27H399.096C398.962 125.803 398.676 126.24 398.236 126.58C397.802 126.913 397.256 127.08 396.596 127.08C396.082 127.08 395.622 126.967 395.216 126.74C394.809 126.507 394.489 126.18 394.256 125.76C394.029 125.333 393.916 124.837 393.916 124.27C393.916 123.703 394.029 123.207 394.256 122.78C394.482 122.353 394.799 122.027 395.206 121.8C395.612 121.573 396.076 121.46 396.596 121.46C397.116 121.46 397.569 121.573 397.956 121.8C398.349 122.027 398.649 122.333 398.856 122.72C399.069 123.1 399.176 123.523 399.176 123.99ZM398.466 123.97C398.472 123.563 398.389 123.217 398.216 122.93C398.049 122.643 397.819 122.427 397.526 122.28C397.232 122.133 396.912 122.06 396.566 122.06C396.046 122.06 395.602 122.227 395.236 122.56C394.869 122.893 394.666 123.363 394.626 123.97H398.466ZM406.956 121.44C407.596 121.44 408.116 121.643 408.516 122.05C408.923 122.45 409.126 123.033 409.126 123.8V127H408.436V123.88C408.436 123.287 408.293 122.833 408.006 122.52C407.72 122.207 407.33 122.05 406.836 122.05C406.323 122.05 405.913 122.22 405.606 122.56C405.3 122.9 405.146 123.393 405.146 124.04V127H404.456V123.88C404.456 123.287 404.313 122.833 404.026 122.52C403.74 122.207 403.346 122.05 402.846 122.05C402.333 122.05 401.923 122.22 401.616 122.56C401.31 122.9 401.156 123.393 401.156 124.04V127H400.456V121.54H401.156V122.48C401.33 122.14 401.576 121.883 401.896 121.71C402.216 121.53 402.573 121.44 402.966 121.44C403.44 121.44 403.853 121.553 404.206 121.78C404.566 122.007 404.826 122.34 404.986 122.78C405.133 122.347 405.383 122.017 405.736 121.79C406.096 121.557 406.503 121.44 406.956 121.44ZM415.621 123.99C415.621 124.23 415.614 124.413 415.601 124.54H411.071C411.091 124.953 411.191 125.307 411.371 125.6C411.551 125.893 411.788 126.117 412.081 126.27C412.374 126.417 412.694 126.49 413.041 126.49C413.494 126.49 413.874 126.38 414.181 126.16C414.494 125.94 414.701 125.643 414.801 125.27H415.541C415.408 125.803 415.121 126.24 414.681 126.58C414.248 126.913 413.701 127.08 413.041 127.08C412.528 127.08 412.068 126.967 411.661 126.74C411.254 126.507 410.934 126.18 410.701 125.76C410.474 125.333 410.361 124.837 410.361 124.27C410.361 123.703 410.474 123.207 410.701 122.78C410.928 122.353 411.244 122.027 411.651 121.8C412.058 121.573 412.521 121.46 413.041 121.46C413.561 121.46 414.014 121.573 414.401 121.8C414.794 122.027 415.094 122.333 415.301 122.72C415.514 123.1 415.621 123.523 415.621 123.99ZM414.911 123.97C414.918 123.563 414.834 123.217 414.661 122.93C414.494 122.643 414.264 122.427 413.971 122.28C413.678 122.133 413.358 122.06 413.011 122.06C412.491 122.06 412.048 122.227 411.681 122.56C411.314 122.893 411.111 123.363 411.071 123.97H414.911ZM419.462 121.44C420.115 121.44 420.648 121.643 421.062 122.05C421.475 122.45 421.682 123.033 421.682 123.8V127H420.992V123.88C420.992 123.287 420.842 122.833 420.542 122.52C420.248 122.207 419.845 122.05 419.332 122.05C418.805 122.05 418.385 122.217 418.072 122.55C417.758 122.883 417.602 123.373 417.602 124.02V127H416.902V121.54H417.602V122.47C417.775 122.137 418.025 121.883 418.352 121.71C418.678 121.53 419.048 121.44 419.462 121.44ZM424.14 122.13V125.52C424.14 125.853 424.203 126.083 424.33 126.21C424.456 126.337 424.68 126.4 425 126.4H425.64V127H424.89C424.396 127 424.03 126.887 423.79 126.66C423.55 126.427 423.43 126.047 423.43 125.52V122.13H422.67V121.54H423.43V120.17H424.14V121.54H425.64V122.13H424.14Z" fill="white"/>
<path d="M210.63 302.1V309H209.93V303.49L207.47 309H206.96L204.5 303.51V309H203.8V302.1H204.54L207.21 308.08L209.88 302.1H210.63ZM217.158 305.99C217.158 306.23 217.151 306.413 217.138 306.54H212.608C212.628 306.953 212.728 307.307 212.908 307.6C213.088 307.893 213.325 308.117 213.618 308.27C213.911 308.417 214.231 308.49 214.578 308.49C215.031 308.49 215.411 308.38 215.718 308.16C216.031 307.94 216.238 307.643 216.338 307.27H217.078C216.945 307.803 216.658 308.24 216.218 308.58C215.785 308.913 215.238 309.08 214.578 309.08C214.065 309.08 213.605 308.967 213.198 308.74C212.791 308.507 212.471 308.18 212.238 307.76C212.011 307.333 211.898 306.837 211.898 306.27C211.898 305.703 212.011 305.207 212.238 304.78C212.465 304.353 212.781 304.027 213.188 303.8C213.595 303.573 214.058 303.46 214.578 303.46C215.098 303.46 215.551 303.573 215.938 303.8C216.331 304.027 216.631 304.333 216.838 304.72C217.051 305.1 217.158 305.523 217.158 305.99ZM216.448 305.97C216.455 305.563 216.371 305.217 216.198 304.93C216.031 304.643 215.801 304.427 215.508 304.28C215.215 304.133 214.895 304.06 214.548 304.06C214.028 304.06 213.585 304.227 213.218 304.56C212.851 304.893 212.648 305.363 212.608 305.97H216.448ZM218.119 306.26C218.119 305.7 218.229 305.21 218.449 304.79C218.675 304.363 218.985 304.037 219.379 303.81C219.779 303.577 220.229 303.46 220.729 303.46C221.249 303.46 221.695 303.58 222.069 303.82C222.449 304.06 222.722 304.367 222.889 304.74V303.54H223.589V309H222.889V307.79C222.715 308.163 222.439 308.473 222.059 308.72C221.685 308.96 221.239 309.08 220.719 309.08C220.225 309.08 219.779 308.963 219.379 308.73C218.985 308.497 218.675 308.167 218.449 307.74C218.229 307.313 218.119 306.82 218.119 306.26ZM222.889 306.27C222.889 305.83 222.799 305.443 222.619 305.11C222.439 304.777 222.192 304.52 221.879 304.34C221.572 304.16 221.232 304.07 220.859 304.07C220.472 304.07 220.125 304.157 219.819 304.33C219.512 304.503 219.269 304.757 219.089 305.09C218.915 305.417 218.829 305.807 218.829 306.26C218.829 306.707 218.915 307.1 219.089 307.44C219.269 307.773 219.512 308.03 219.819 308.21C220.125 308.383 220.472 308.47 220.859 308.47C221.232 308.47 221.572 308.38 221.879 308.2C222.192 308.02 222.439 307.763 222.619 307.43C222.799 307.097 222.889 306.71 222.889 306.27ZM227.067 309.08C226.44 309.08 225.927 308.937 225.527 308.65C225.133 308.357 224.913 307.96 224.867 307.46H225.587C225.62 307.767 225.763 308.017 226.017 308.21C226.277 308.397 226.623 308.49 227.057 308.49C227.437 308.49 227.733 308.4 227.947 308.22C228.167 308.04 228.277 307.817 228.277 307.55C228.277 307.363 228.217 307.21 228.097 307.09C227.977 306.97 227.823 306.877 227.637 306.81C227.457 306.737 227.21 306.66 226.897 306.58C226.49 306.473 226.16 306.367 225.907 306.26C225.653 306.153 225.437 305.997 225.257 305.79C225.083 305.577 224.997 305.293 224.997 304.94C224.997 304.673 225.077 304.427 225.237 304.2C225.397 303.973 225.623 303.793 225.917 303.66C226.21 303.527 226.543 303.46 226.917 303.46C227.503 303.46 227.977 303.61 228.337 303.91C228.697 304.203 228.89 304.61 228.917 305.13H228.217C228.197 304.81 228.07 304.553 227.837 304.36C227.61 304.16 227.297 304.06 226.897 304.06C226.543 304.06 226.257 304.143 226.037 304.31C225.817 304.477 225.707 304.683 225.707 304.93C225.707 305.143 225.77 305.32 225.897 305.46C226.03 305.593 226.193 305.7 226.387 305.78C226.58 305.853 226.84 305.937 227.167 306.03C227.56 306.137 227.873 306.24 228.107 306.34C228.34 306.44 228.54 306.587 228.707 306.78C228.873 306.973 228.96 307.23 228.967 307.55C228.967 307.843 228.887 308.107 228.727 308.34C228.567 308.567 228.343 308.747 228.057 308.88C227.77 309.013 227.44 309.08 227.067 309.08ZM235.014 303.54V309H234.314V308.04C234.154 308.38 233.908 308.64 233.574 308.82C233.241 309 232.868 309.09 232.454 309.09C231.801 309.09 231.268 308.89 230.854 308.49C230.441 308.083 230.234 307.497 230.234 306.73V303.54H230.924V306.65C230.924 307.243 231.071 307.697 231.364 308.01C231.664 308.323 232.071 308.48 232.584 308.48C233.111 308.48 233.531 308.313 233.844 307.98C234.158 307.647 234.314 307.157 234.314 306.51V303.54H235.014ZM237.313 304.51C237.466 304.17 237.699 303.907 238.013 303.72C238.333 303.533 238.723 303.44 239.183 303.44V304.17H238.993C238.486 304.17 238.079 304.307 237.773 304.58C237.466 304.853 237.313 305.31 237.313 305.95V309H236.613V303.54H237.313V304.51ZM245.176 305.99C245.176 306.23 245.169 306.413 245.156 306.54H240.626C240.646 306.953 240.746 307.307 240.926 307.6C241.106 307.893 241.342 308.117 241.636 308.27C241.929 308.417 242.249 308.49 242.596 308.49C243.049 308.49 243.429 308.38 243.736 308.16C244.049 307.94 244.256 307.643 244.356 307.27H245.096C244.962 307.803 244.676 308.24 244.236 308.58C243.802 308.913 243.256 309.08 242.596 309.08C242.082 309.08 241.622 308.967 241.216 308.74C240.809 308.507 240.489 308.18 240.256 307.76C240.029 307.333 239.916 306.837 239.916 306.27C239.916 305.703 240.029 305.207 240.256 304.78C240.482 304.353 240.799 304.027 241.206 303.8C241.612 303.573 242.076 303.46 242.596 303.46C243.116 303.46 243.569 303.573 243.956 303.8C244.349 304.027 244.649 304.333 244.856 304.72C245.069 305.1 245.176 305.523 245.176 305.99ZM244.466 305.97C244.472 305.563 244.389 305.217 244.216 304.93C244.049 304.643 243.819 304.427 243.526 304.28C243.232 304.133 242.912 304.06 242.566 304.06C242.046 304.06 241.602 304.227 241.236 304.56C240.869 304.893 240.666 305.363 240.626 305.97H244.466ZM252.956 303.44C253.596 303.44 254.116 303.643 254.516 304.05C254.923 304.45 255.126 305.033 255.126 305.8V309H254.436V305.88C254.436 305.287 254.293 304.833 254.006 304.52C253.72 304.207 253.33 304.05 252.836 304.05C252.323 304.05 251.913 304.22 251.606 304.56C251.3 304.9 251.146 305.393 251.146 306.04V309H250.456V305.88C250.456 305.287 250.313 304.833 250.026 304.52C249.74 304.207 249.346 304.05 248.846 304.05C248.333 304.05 247.923 304.22 247.616 304.56C247.31 304.9 247.156 305.393 247.156 306.04V309H246.456V303.54H247.156V304.48C247.33 304.14 247.576 303.883 247.896 303.71C248.216 303.53 248.573 303.44 248.966 303.44C249.44 303.44 249.853 303.553 250.206 303.78C250.566 304.007 250.826 304.34 250.986 304.78C251.133 304.347 251.383 304.017 251.736 303.79C252.096 303.557 252.503 303.44 252.956 303.44ZM261.621 305.99C261.621 306.23 261.614 306.413 261.601 306.54H257.071C257.091 306.953 257.191 307.307 257.371 307.6C257.551 307.893 257.788 308.117 258.081 308.27C258.374 308.417 258.694 308.49 259.041 308.49C259.494 308.49 259.874 308.38 260.181 308.16C260.494 307.94 260.701 307.643 260.801 307.27H261.541C261.408 307.803 261.121 308.24 260.681 308.58C260.248 308.913 259.701 309.08 259.041 309.08C258.528 309.08 258.068 308.967 257.661 308.74C257.254 308.507 256.934 308.18 256.701 307.76C256.474 307.333 256.361 306.837 256.361 306.27C256.361 305.703 256.474 305.207 256.701 304.78C256.928 304.353 257.244 304.027 257.651 303.8C258.058 303.573 258.521 303.46 259.041 303.46C259.561 303.46 260.014 303.573 260.401 303.8C260.794 304.027 261.094 304.333 261.301 304.72C261.514 305.1 261.621 305.523 261.621 305.99ZM260.911 305.97C260.918 305.563 260.834 305.217 260.661 304.93C260.494 304.643 260.264 304.427 259.971 304.28C259.678 304.133 259.358 304.06 259.011 304.06C258.491 304.06 258.048 304.227 257.681 304.56C257.314 304.893 257.111 305.363 257.071 305.97H260.911ZM265.462 303.44C266.115 303.44 266.648 303.643 267.062 304.05C267.475 304.45 267.682 305.033 267.682 305.8V309H266.992V305.88C266.992 305.287 266.842 304.833 266.542 304.52C266.248 304.207 265.845 304.05 265.332 304.05C264.805 304.05 264.385 304.217 264.072 304.55C263.758 304.883 263.602 305.373 263.602 306.02V309H262.902V303.54H263.602V304.47C263.775 304.137 264.025 303.883 264.352 303.71C264.678 303.53 265.048 303.44 265.462 303.44ZM270.14 304.13V307.52C270.14 307.853 270.203 308.083 270.33 308.21C270.456 308.337 270.68 308.4 271 308.4H271.64V309H270.89C270.396 309 270.03 308.887 269.79 308.66C269.55 308.427 269.43 308.047 269.43 307.52V304.13H268.67V303.54H269.43V302.17H270.14V303.54H271.64V304.13H270.14Z" fill="white"/>
<path d="M283.5 182.01V189H282.8V182.01H283.5ZM288.645 183.44C289.298 183.44 289.832 183.643 290.245 184.05C290.658 184.45 290.865 185.033 290.865 185.8V189H290.175V185.88C290.175 185.287 290.025 184.833 289.725 184.52C289.432 184.207 289.028 184.05 288.515 184.05C287.988 184.05 287.568 184.217 287.255 184.55C286.942 184.883 286.785 185.373 286.785 186.02V189H286.085V183.54H286.785V184.47C286.958 184.137 287.208 183.883 287.535 183.71C287.862 183.53 288.232 183.44 288.645 183.44ZM295.293 189.08C294.667 189.08 294.153 188.937 293.753 188.65C293.36 188.357 293.14 187.96 293.093 187.46H293.813C293.847 187.767 293.99 188.017 294.243 188.21C294.503 188.397 294.85 188.49 295.283 188.49C295.663 188.49 295.96 188.4 296.173 188.22C296.393 188.04 296.503 187.817 296.503 187.55C296.503 187.363 296.443 187.21 296.323 187.09C296.203 186.97 296.05 186.877 295.863 186.81C295.683 186.737 295.437 186.66 295.123 186.58C294.717 186.473 294.387 186.367 294.133 186.26C293.88 186.153 293.663 185.997 293.483 185.79C293.31 185.577 293.223 185.293 293.223 184.94C293.223 184.673 293.303 184.427 293.463 184.2C293.623 183.973 293.85 183.793 294.143 183.66C294.437 183.527 294.77 183.46 295.143 183.46C295.73 183.46 296.203 183.61 296.563 183.91C296.923 184.203 297.117 184.61 297.143 185.13H296.443C296.423 184.81 296.297 184.553 296.063 184.36C295.837 184.16 295.523 184.06 295.123 184.06C294.77 184.06 294.483 184.143 294.263 184.31C294.043 184.477 293.933 184.683 293.933 184.93C293.933 185.143 293.997 185.32 294.123 185.46C294.257 185.593 294.42 185.7 294.613 185.78C294.807 185.853 295.067 185.937 295.393 186.03C295.787 186.137 296.1 186.24 296.333 186.34C296.567 186.44 296.767 186.587 296.933 186.78C297.1 186.973 297.187 187.23 297.193 187.55C297.193 187.843 297.113 188.107 296.953 188.34C296.793 188.567 296.57 188.747 296.283 188.88C295.997 189.013 295.667 189.08 295.293 189.08ZM300.421 184.13V187.52C300.421 187.853 300.484 188.083 300.611 188.21C300.738 188.337 300.961 188.4 301.281 188.4H301.921V189H301.171C300.678 189 300.311 188.887 300.071 188.66C299.831 188.427 299.711 188.047 299.711 187.52V184.13H298.951V183.54H299.711V182.17H300.421V183.54H301.921V184.13H300.421ZM303.755 186.26C303.755 185.7 303.865 185.21 304.085 184.79C304.312 184.363 304.622 184.037 305.015 183.81C305.415 183.577 305.865 183.46 306.365 183.46C306.885 183.46 307.332 183.58 307.705 183.82C308.085 184.06 308.359 184.367 308.525 184.74V183.54H309.225V189H308.525V187.79C308.352 188.163 308.075 188.473 307.695 188.72C307.322 188.96 306.875 189.08 306.355 189.08C305.862 189.08 305.415 188.963 305.015 188.73C304.622 188.497 304.312 188.167 304.085 187.74C303.865 187.313 303.755 186.82 303.755 186.26ZM308.525 186.27C308.525 185.83 308.435 185.443 308.255 185.11C308.075 184.777 307.829 184.52 307.515 184.34C307.209 184.16 306.869 184.07 306.495 184.07C306.109 184.07 305.762 184.157 305.455 184.33C305.149 184.503 304.905 184.757 304.725 185.09C304.552 185.417 304.465 185.807 304.465 186.26C304.465 186.707 304.552 187.1 304.725 187.44C304.905 187.773 305.149 188.03 305.455 188.21C305.762 188.383 306.109 188.47 306.495 188.47C306.869 188.47 307.209 188.38 307.515 188.2C307.829 188.02 308.075 187.763 308.255 187.43C308.435 187.097 308.525 186.71 308.525 186.27ZM312.523 181.6V189H311.823V181.6H312.523ZM315.809 181.6V189H315.109V181.6H315.809ZM318.074 186.26C318.074 185.7 318.184 185.21 318.404 184.79C318.63 184.363 318.94 184.037 319.334 183.81C319.734 183.577 320.184 183.46 320.684 183.46C321.204 183.46 321.65 183.58 322.024 183.82C322.404 184.06 322.677 184.367 322.844 184.74V183.54H323.544V189H322.844V187.79C322.67 188.163 322.394 188.473 322.014 188.72C321.64 188.96 321.194 189.08 320.674 189.08C320.18 189.08 319.734 188.963 319.334 188.73C318.94 188.497 318.63 188.167 318.404 187.74C318.184 187.313 318.074 186.82 318.074 186.26ZM322.844 186.27C322.844 185.83 322.754 185.443 322.574 185.11C322.394 184.777 322.147 184.52 321.834 184.34C321.527 184.16 321.187 184.07 320.814 184.07C320.427 184.07 320.08 184.157 319.774 184.33C319.467 184.503 319.224 184.757 319.044 185.09C318.87 185.417 318.784 185.807 318.784 186.26C318.784 186.707 318.87 187.1 319.044 187.44C319.224 187.773 319.467 188.03 319.774 188.21C320.08 188.383 320.427 188.47 320.814 188.47C321.187 188.47 321.527 188.38 321.834 188.2C322.147 188.02 322.394 187.763 322.574 187.43C322.754 187.097 322.844 186.71 322.844 186.27ZM327.052 184.13V187.52C327.052 187.853 327.115 188.083 327.242 188.21C327.368 188.337 327.592 188.4 327.912 188.4H328.552V189H327.802C327.308 189 326.942 188.887 326.702 188.66C326.462 188.427 326.342 188.047 326.342 187.52V184.13H325.582V183.54H326.342V182.17H327.052V183.54H328.552V184.13H327.052ZM331.056 182.51C330.916 182.51 330.796 182.46 330.696 182.36C330.596 182.26 330.546 182.137 330.546 181.99C330.546 181.843 330.596 181.723 330.696 181.63C330.796 181.53 330.916 181.48 331.056 181.48C331.196 181.48 331.316 181.53 331.416 181.63C331.516 181.723 331.566 181.843 331.566 181.99C331.566 182.137 331.516 182.26 331.416 182.36C331.316 182.46 331.196 182.51 331.056 182.51ZM331.406 183.54V189H330.706V183.54H331.406ZM336.381 189.08C335.868 189.08 335.405 188.967 334.991 188.74C334.585 188.507 334.261 188.18 334.021 187.76C333.788 187.333 333.671 186.837 333.671 186.27C333.671 185.703 333.791 185.21 334.031 184.79C334.271 184.363 334.598 184.037 335.011 183.81C335.425 183.577 335.888 183.46 336.401 183.46C336.915 183.46 337.378 183.577 337.791 183.81C338.211 184.037 338.538 184.363 338.771 184.79C339.011 185.21 339.131 185.703 339.131 186.27C339.131 186.83 339.011 187.323 338.771 187.75C338.531 188.177 338.201 188.507 337.781 188.74C337.361 188.967 336.895 189.08 336.381 189.08ZM336.381 188.47C336.741 188.47 337.075 188.39 337.381 188.23C337.688 188.063 337.935 187.817 338.121 187.49C338.315 187.157 338.411 186.75 338.411 186.27C338.411 185.79 338.318 185.387 338.131 185.06C337.945 184.727 337.698 184.48 337.391 184.32C337.085 184.153 336.751 184.07 336.391 184.07C336.031 184.07 335.698 184.153 335.391 184.32C335.085 184.48 334.838 184.727 334.651 185.06C334.471 185.387 334.381 185.79 334.381 186.27C334.381 186.75 334.471 187.157 334.651 187.49C334.838 187.817 335.081 188.063 335.381 188.23C335.688 188.39 336.021 188.47 336.381 188.47ZM343.967 183.44C344.621 183.44 345.154 183.643 345.567 184.05C345.981 184.45 346.187 185.033 346.187 185.8V189H345.497V185.88C345.497 185.287 345.347 184.833 345.047 184.52C344.754 184.207 344.351 184.05 343.837 184.05C343.311 184.05 342.891 184.217 342.577 184.55C342.264 184.883 342.107 185.373 342.107 186.02V189H341.407V183.54H342.107V184.47C342.281 184.137 342.531 183.883 342.857 183.71C343.184 183.53 343.554 183.44 343.967 183.44Z" fill="white"/>
<path d="M402.415 25.4439L402.516 25.5368L402.617 25.4439L408.435 20.1105L408.555 20L408.435 19.8894L402.617 14.5561L402.516 14.4631L402.415 14.5561L401.565 15.3346L401.445 15.4452L401.565 15.5558L406.413 20L401.565 24.4441L401.445 24.5547L401.565 24.6653L402.415 25.4439Z" fill="white" stroke="white" stroke-width="0.3"/>
<path d="M185.585 14.5561L185.484 14.4632L185.383 14.5561L179.565 19.8895L179.445 20L179.565 20.1106L185.383 25.4439L185.484 25.5369L185.585 25.4439L186.435 24.6654L186.555 24.5548L186.435 24.4442L181.587 20L186.435 15.5559L186.555 15.4453L186.435 15.3347L185.585 14.5561Z" fill="white" stroke="white" stroke-width="0.3"/>
<line x1="11" y1="96.5" x2="578" y2="96.5" stroke="white"/>
<line x1="11" y1="148.5" x2="578" y2="148.5" stroke="white"/>
<rect x="429.5" y="252.5" width="77" height="26" rx="9.5" fill="#1A7FBF" stroke="white"/>
<path d="M447.87 262.01C448.643 262.01 449.307 262.15 449.86 262.43C450.413 262.71 450.837 263.113 451.13 263.64C451.423 264.167 451.57 264.793 451.57 265.52C451.57 266.24 451.423 266.863 451.13 267.39C450.837 267.91 450.413 268.31 449.86 268.59C449.307 268.863 448.643 269 447.87 269H445.8V262.01H447.87ZM447.87 268.42C448.843 268.42 449.583 268.167 450.09 267.66C450.603 267.147 450.86 266.433 450.86 265.52C450.86 264.6 450.603 263.883 450.09 263.37C449.583 262.85 448.843 262.59 447.87 262.59H446.5V268.42H447.87ZM458.801 265.99C458.801 266.23 458.794 266.413 458.781 266.54H454.251C454.271 266.953 454.371 267.307 454.551 267.6C454.731 267.893 454.967 268.117 455.261 268.27C455.554 268.417 455.874 268.49 456.221 268.49C456.674 268.49 457.054 268.38 457.361 268.16C457.674 267.94 457.881 267.643 457.981 267.27H458.721C458.587 267.803 458.301 268.24 457.861 268.58C457.427 268.913 456.881 269.08 456.221 269.08C455.707 269.08 455.247 268.967 454.841 268.74C454.434 268.507 454.114 268.18 453.881 267.76C453.654 267.333 453.541 266.837 453.541 266.27C453.541 265.703 453.654 265.207 453.881 264.78C454.107 264.353 454.424 264.027 454.831 263.8C455.237 263.573 455.701 263.46 456.221 263.46C456.741 263.46 457.194 263.573 457.581 263.8C457.974 264.027 458.274 264.333 458.481 264.72C458.694 265.1 458.801 265.523 458.801 265.99ZM458.091 265.97C458.097 265.563 458.014 265.217 457.841 264.93C457.674 264.643 457.444 264.427 457.151 264.28C456.857 264.133 456.537 264.06 456.191 264.06C455.671 264.06 455.227 264.227 454.861 264.56C454.494 264.893 454.291 265.363 454.251 265.97H458.091ZM461.781 261.6V269H461.081V261.6H461.781ZM464.716 262.51C464.576 262.51 464.456 262.46 464.356 262.36C464.256 262.26 464.206 262.137 464.206 261.99C464.206 261.843 464.256 261.723 464.356 261.63C464.456 261.53 464.576 261.48 464.716 261.48C464.856 261.48 464.976 261.53 465.076 261.63C465.176 261.723 465.226 261.843 465.226 261.99C465.226 262.137 465.176 262.26 465.076 262.36C464.976 262.46 464.856 262.51 464.716 262.51ZM465.066 263.54V269H464.366V263.54H465.066ZM469.592 268.32L471.432 263.54H472.172L469.982 269H469.192L467.002 263.54H467.752L469.592 268.32ZM479.06 265.99C479.06 266.23 479.054 266.413 479.04 266.54H474.51C474.53 266.953 474.63 267.307 474.81 267.6C474.99 267.893 475.227 268.117 475.52 268.27C475.814 268.417 476.134 268.49 476.48 268.49C476.934 268.49 477.314 268.38 477.62 268.16C477.934 267.94 478.14 267.643 478.24 267.27H478.98C478.847 267.803 478.56 268.24 478.12 268.58C477.687 268.913 477.14 269.08 476.48 269.08C475.967 269.08 475.507 268.967 475.1 268.74C474.694 268.507 474.374 268.18 474.14 267.76C473.914 267.333 473.8 266.837 473.8 266.27C473.8 265.703 473.914 265.207 474.14 264.78C474.367 264.353 474.684 264.027 475.09 263.8C475.497 263.573 475.96 263.46 476.48 263.46C477 263.46 477.454 263.573 477.84 263.8C478.234 264.027 478.534 264.333 478.74 264.72C478.954 265.1 479.06 265.523 479.06 265.99ZM478.35 265.97C478.357 265.563 478.274 265.217 478.1 264.93C477.934 264.643 477.704 264.427 477.41 264.28C477.117 264.133 476.797 264.06 476.45 264.06C475.93 264.06 475.487 264.227 475.12 264.56C474.754 264.893 474.55 265.363 474.51 265.97H478.35ZM482.041 264.51C482.194 264.17 482.428 263.907 482.741 263.72C483.061 263.533 483.451 263.44 483.911 263.44V264.17H483.721C483.214 264.17 482.808 264.307 482.501 264.58C482.194 264.853 482.041 265.31 482.041 265.95V269H481.341V263.54H482.041V264.51ZM490.464 263.54L487.224 271.57H486.494L487.554 268.97L485.314 263.54H486.084L487.944 268.2L489.744 263.54H490.464Z" fill="white"/>
</svg>
