<svg width="952" height="86" viewBox="0 0 952 86" fill="none" xmlns="http://www.w3.org/2000/svg">
<path d="M777.024 54.7421L773.924 51.642C774.93 50.4344 775.432 48.8853 775.325 47.317C775.218 45.7488 774.511 44.2822 773.35 43.2223C772.189 42.1624 770.665 41.5909 769.093 41.6266C767.522 41.6623 766.025 42.3024 764.914 43.4139C763.802 44.5254 763.162 46.0226 763.127 47.5941C763.091 49.1655 763.662 50.6902 764.722 51.851C765.782 53.0118 767.248 53.7193 768.816 53.8263C770.384 53.9332 771.933 53.4315 773.141 52.4254L776.241 55.5254C776.345 55.6292 776.485 55.6875 776.632 55.6875C776.779 55.6875 776.92 55.6292 777.024 55.5254C777.076 55.4742 777.117 55.4132 777.145 55.346C777.173 55.2788 777.188 55.2066 777.188 55.1337C777.188 55.0609 777.173 54.9887 777.145 54.9215C777.117 54.8543 777.076 54.7933 777.024 54.7421ZM764.256 47.7439C764.253 46.923 764.453 46.1142 764.838 45.3892C765.223 44.6642 765.781 44.0454 766.462 43.5877C767.144 43.13 767.927 42.8475 768.744 42.7654C769.561 42.6832 770.385 42.8039 771.144 43.1167C771.903 43.4294 772.573 43.9247 773.094 44.5585C773.616 45.1923 773.973 45.945 774.134 46.7499C774.295 47.5549 774.255 48.3871 774.017 49.1728C773.779 49.9585 773.352 50.6734 772.771 51.2541C772.076 51.953 771.188 52.4298 770.222 52.6241C769.255 52.8184 768.252 52.7216 767.34 52.3458C766.429 51.97 765.649 51.3321 765.1 50.513C764.551 49.6938 764.257 48.7301 764.256 47.7439Z" fill="white"/>
<rect x="490.5" y="31.5" width="299" height="34" rx="9.5" stroke="white"/>
<path d="M30.6919 43.3266C31.2989 41.4767 32.3671 39.9675 33.8966 38.7992C35.4262 37.6308 37.3199 37.0467 39.5777 37.0467C41.4471 37.0467 43.1102 37.4604 44.5669 38.288C46.0236 39.0913 47.1525 40.2596 47.9537 41.7931C48.7548 43.3022 49.1554 45.0913 49.1554 47.1602C49.1554 49.2292 48.7548 51.0304 47.9537 52.5639C47.1525 54.073 46.0236 55.2414 44.5669 56.069C43.1102 56.8722 41.4471 57.2738 39.5777 57.2738C37.3199 57.2738 35.414 56.6897 33.8602 55.5213C32.3064 54.3529 31.2503 52.8438 30.6919 50.9939V57.0183H30V30H30.6919V43.3266ZM48.4271 47.1602C48.4271 45.213 48.0629 43.5335 47.3346 42.1217C46.6062 40.6856 45.5744 39.5903 44.2391 38.8357C42.9281 38.0811 41.3743 37.7039 39.5777 37.7039C37.8782 37.7039 36.3487 38.1055 34.9892 38.9087C33.6539 39.6876 32.5978 40.7951 31.8209 42.2312C31.0682 43.643 30.6919 45.286 30.6919 47.1602C30.6919 49.0345 31.0682 50.6897 31.8209 52.1258C32.5978 53.5375 33.6539 54.645 34.9892 55.4483C36.3487 56.2272 37.8782 56.6166 39.5777 56.6166C41.3743 56.6166 42.9281 56.2393 44.2391 55.4848C45.5744 54.7302 46.6062 53.6471 47.3346 52.2353C48.0629 50.7992 48.4271 49.1075 48.4271 47.1602Z" fill="black"/>
<path d="M55.1606 30V57.0183H54.4322V30H55.1606Z" fill="black"/>
<path d="M77.5364 37.3022V57.0183H76.808V51.6511C76.371 53.5254 75.4484 54.9493 74.0403 55.9229C72.6565 56.8965 71.0056 57.3834 69.0876 57.3834C66.7812 57.3834 64.8875 56.6653 63.4065 55.2292C61.9255 53.7931 61.185 51.6268 61.185 48.7302V37.3022H61.877V48.8032C61.877 51.3834 62.5203 53.355 63.8071 54.7181C65.0938 56.0568 66.854 56.7262 69.0876 56.7262C71.4183 56.7262 73.2877 55.9716 74.6958 54.4625C76.104 52.929 76.808 50.6775 76.808 47.7079V37.3022H77.5364Z" fill="black"/>
<path d="M92.2947 56.6166C94.504 56.6166 96.3613 56.0568 97.8665 54.9371C99.3718 53.8174 100.282 52.284 100.598 50.3367H101.326C100.986 52.4057 100.015 54.0852 98.4128 55.3753C96.8347 56.641 94.7953 57.2738 92.2947 57.2738C90.4738 57.2738 88.8472 56.8722 87.4148 56.069C85.9824 55.2657 84.8535 54.0974 84.028 52.5639C83.2268 51.0304 82.8262 49.2292 82.8262 47.1602C82.8262 45.0913 83.2268 43.2901 84.028 41.7566C84.8535 40.2231 85.9824 39.0548 87.4148 38.2515C88.8472 37.4483 90.4738 37.0467 92.2947 37.0467C94.2127 37.0467 95.8514 37.4604 97.211 38.288C98.5706 39.0913 99.5903 40.1379 100.27 41.428C100.974 42.7181 101.326 44.0811 101.326 45.5172C101.326 46.3935 101.314 47.0507 101.29 47.4888H83.5546C83.5789 49.5091 83.9916 51.2008 84.7928 52.5639C85.6182 53.927 86.6865 54.9493 87.9975 55.6308C89.3085 56.288 90.7409 56.6166 92.2947 56.6166ZM92.2947 37.7039C90.7409 37.7039 89.3085 38.0446 87.9975 38.7262C86.6865 39.3834 85.6182 40.3935 84.7928 41.7566C83.9916 43.1197 83.5789 44.8114 83.5546 46.8316H100.671C100.792 44.8114 100.464 43.1197 99.6874 41.7566C98.9348 40.3935 97.8908 39.3834 96.5555 38.7262C95.2445 38.0446 93.8242 37.7039 92.2947 37.7039Z" fill="black"/>
<path d="M105.893 43.0345C106.427 41.2089 107.471 39.712 109.025 38.5436C110.603 37.3509 112.521 36.7546 114.779 36.7546C116.649 36.7546 118.312 37.1684 119.768 37.9959C121.225 38.7992 122.354 39.9675 123.155 41.501C123.956 43.0101 124.357 44.7992 124.357 46.8682C124.357 48.9371 123.956 50.7383 123.155 52.2718C122.354 53.7809 121.225 54.9493 119.768 55.7769C118.312 56.5801 116.649 56.9817 114.779 56.9817C112.521 56.9817 110.603 56.3976 109.025 55.2292C107.471 54.0365 106.427 52.5274 105.893 50.7018V66H105.201V37.0101H105.893V43.0345ZM123.629 46.8682C123.629 44.9209 123.264 43.2414 122.536 41.8296C121.808 40.3935 120.776 39.2982 119.441 38.5436C118.13 37.789 116.576 37.4118 114.779 37.4118C113.08 37.4118 111.55 37.8134 110.191 38.6166C108.855 39.3955 107.799 40.503 107.022 41.9391C106.27 43.3509 105.893 44.9939 105.893 46.8682C105.893 48.7424 106.27 50.3976 107.022 51.8337C107.799 53.2454 108.855 54.3529 110.191 55.1562C111.55 55.9351 113.08 56.3245 114.779 56.3245C116.576 56.3245 118.13 55.9473 119.441 55.1927C120.776 54.4381 121.808 53.355 122.536 51.9432C123.264 50.5071 123.629 48.8154 123.629 46.8682Z" fill="white"/>
<path d="M130.362 41.7931C131.139 38.3124 133.725 36.572 138.119 36.572V37.3753H137.791C135.727 37.3753 133.967 37.9838 132.511 39.2008C131.078 40.3935 130.362 42.3286 130.362 45.0061V56.7262H129.634V37.0101H130.362V41.7931Z" fill="white"/>
<path d="M142.303 31.9716C142.036 31.9716 141.805 31.8864 141.611 31.716C141.441 31.5213 141.356 31.2779 141.356 30.9858C141.356 30.6937 141.441 30.4625 141.611 30.2921C141.805 30.0974 142.036 30 142.303 30C142.57 30 142.788 30.0974 142.958 30.2921C143.153 30.4625 143.25 30.6937 143.25 30.9858C143.25 31.2779 143.153 31.5213 142.958 31.716C142.788 31.8864 142.57 31.9716 142.303 31.9716ZM142.667 37.0101V56.7262H141.939V37.0101H142.667Z" fill="white"/>
<path d="M157.322 36.572C159.629 36.572 161.523 37.2901 163.003 38.7262C164.484 40.1623 165.225 42.3286 165.225 45.2252V56.7262H164.533V45.1521C164.533 42.572 163.89 40.6126 162.603 39.2738C161.316 37.9108 159.556 37.2292 157.322 37.2292C154.992 37.2292 153.122 37.9959 151.714 39.5294C150.306 41.0385 149.602 43.2779 149.602 46.2475V56.7262H148.874V37.0101H149.602V42.1947C150.063 40.3692 150.986 38.9817 152.37 38.0325C153.754 37.0588 155.404 36.572 157.322 36.572Z" fill="white"/>
<path d="M172.809 37.7404V51.5416C172.809 52.7343 172.943 53.6471 173.21 54.2799C173.477 54.9128 173.902 55.3631 174.484 55.6308C175.067 55.8742 175.88 55.9959 176.924 55.9959H179V56.7262H176.851C175.152 56.7262 173.926 56.3367 173.173 55.5578C172.445 54.7789 172.081 53.4402 172.081 51.5416V37.7404H168.876V37.0101H172.081V31.9716H172.809V37.0101H179V37.7404H172.809Z" fill="white"/>
<path d="M918.611 59.8125C916.512 56.1964 913.152 53.4823 909.175 52.1906C911.081 51.0571 912.562 49.3292 913.391 47.2722C914.22 45.2152 914.351 42.943 913.763 40.8046C913.175 38.6662 911.902 36.7799 910.138 35.4355C908.374 34.0912 906.218 33.363 904 33.363C901.782 33.363 899.626 34.0912 897.862 35.4355C896.098 36.7799 894.825 38.6662 894.237 40.8046C893.649 42.943 893.78 45.2152 894.609 47.2722C895.438 49.3292 896.919 51.0571 898.825 52.1906C894.848 53.4823 891.488 56.1964 889.389 59.8125C889.301 59.9402 889.24 60.0848 889.211 60.2371C889.181 60.3894 889.184 60.5462 889.218 60.6975C889.252 60.8489 889.317 60.9916 889.408 61.1167C889.5 61.2417 889.617 61.3465 889.751 61.4243C889.885 61.5021 890.034 61.5513 890.188 61.5688C890.342 61.5863 890.499 61.5717 890.647 61.526C890.795 61.4803 890.932 61.4044 891.05 61.3032C891.167 61.2019 891.263 61.0774 891.33 60.9375C892.616 58.7156 894.463 56.8709 896.687 55.5884C898.911 54.306 901.433 53.6309 904 53.6309C906.567 53.6309 909.089 54.306 911.313 55.5884C913.537 56.8709 915.384 58.7156 916.67 60.9375C916.737 61.0774 916.833 61.2019 916.95 61.3032C917.068 61.4044 917.205 61.4803 917.353 61.526C917.501 61.5717 917.658 61.5863 917.812 61.5688C917.966 61.5513 918.115 61.5021 918.249 61.4243C918.383 61.3465 918.5 61.2417 918.592 61.1167C918.683 60.9916 918.748 60.8489 918.782 60.6975C918.816 60.5462 918.819 60.3894 918.789 60.2371C918.76 60.0848 918.699 59.9402 918.611 59.8125ZM896.125 43.5C896.125 41.9425 896.587 40.4199 897.452 39.1249C898.317 37.8298 899.547 36.8205 900.986 36.2244C902.425 35.6284 904.009 35.4725 905.536 35.7763C907.064 36.0802 908.467 36.8302 909.568 37.9315C910.67 39.0329 911.42 40.4361 911.724 41.9637C912.028 43.4913 911.872 45.0747 911.276 46.5136C910.679 47.9526 909.67 49.1825 908.375 50.0478C907.08 50.9131 905.558 51.375 904 51.375C901.911 51.375 899.908 50.5453 898.432 49.0685C896.955 47.5916 896.125 45.5886 896.125 43.5Z" fill="white"/>
<path d="M852.295 51.7046L849.25 48.6593V44.625C849.247 41.8371 848.209 39.1495 846.339 37.0819C844.469 35.0143 841.899 33.7135 839.125 33.4312V31.125H836.875V33.4312C834.101 33.7135 831.531 35.0143 829.661 37.0819C827.791 39.1495 826.753 41.8371 826.75 44.625V48.6593L823.705 51.7046C823.494 51.9156 823.375 52.2017 823.375 52.5V55.875C823.375 56.1734 823.494 56.4595 823.705 56.6705C823.915 56.8815 824.202 57 824.5 57H832.375V57.8741C832.351 59.3013 832.854 60.6874 833.788 61.7667C834.722 62.846 836.022 63.5426 837.438 63.723C838.22 63.8006 839.009 63.7136 839.756 63.4676C840.502 63.2217 841.189 62.8222 841.772 62.295C842.354 61.7677 842.82 61.1243 843.14 60.4061C843.459 59.6879 843.624 58.9109 843.625 58.125V57H851.5C851.798 57 852.085 56.8815 852.295 56.6705C852.506 56.4595 852.625 56.1734 852.625 55.875V52.5C852.625 52.2017 852.506 51.9156 852.295 51.7046ZM841.375 58.125C841.375 59.0201 841.019 59.8786 840.386 60.5115C839.754 61.1444 838.895 61.5 838 61.5C837.105 61.5 836.246 61.1444 835.614 60.5115C834.981 59.8786 834.625 59.0201 834.625 58.125V57H841.375V58.125ZM850.375 54.75H825.625V52.9657L828.67 49.9204C828.881 49.7094 829 49.4233 829 49.125V44.625C829 42.2381 829.948 39.9489 831.636 38.261C833.324 36.5732 835.613 35.625 838 35.625C840.387 35.625 842.676 36.5732 844.364 38.261C846.052 39.9489 847 42.2381 847 44.625V49.125C847 49.4233 847.119 49.7094 847.33 49.9204L850.375 52.9657V54.75Z" fill="white"/>
<line x1="284.5" y1="2.18557e-08" x2="284.5" y2="86" stroke="white"/>
<line x1="-4.37114e-08" y1="85.5" x2="952" y2="85.4999" stroke="white"/>
</svg>
