<svg width="272" height="80" viewBox="0 0 272 80" fill="none" xmlns="http://www.w3.org/2000/svg">
<g clip-path="url(#clip0_2423_18832)">
<path d="M52.226 0L0.0793457 16.36V34.74L52.226 18.38V0Z" fill="url(#paint0_linear_2423_18832)"/>
<path d="M43.3521 30.36L0.0793457 16.36V34.74L43.3521 48.72V30.36Z" fill="url(#paint1_linear_2423_18832)"/>
<path opacity="0.15" d="M28.9145 25.68L0.0793457 16.36L31.5269 24.86L28.9145 25.68Z" fill="#22033A"/>
<path d="M17.189 40.28L0.0793457 45.34V65.64V69.14L19.2629 80V57.42L43.3521 48.72L17.189 40.28Z" fill="url(#paint2_linear_2423_18832)"/>
<path d="M87.1039 52.36C86.4259 53.8 85.5086 55.02 84.3719 56.04C83.2353 57.06 81.8792 57.84 80.3238 58.4C78.7684 58.96 77.0335 59.22 75.1191 59.22C73.5836 59.22 72.1678 59.02 70.8916 58.62C69.5954 58.22 68.4388 57.66 67.4218 56.94C66.4646 56.24 65.627 55.42 64.8892 54.46C64.1514 53.5 63.5332 52.44 63.0347 51.26C62.5361 50.1 62.1772 48.84 61.918 47.48C61.6587 46.12 61.5391 44.68 61.5391 43.18V38.3C61.5391 36.88 61.6587 35.52 61.898 34.22C62.1373 32.92 62.4962 31.7 62.9748 30.56C63.4933 29.22 64.1913 28.04 65.0288 26.98C65.8663 25.92 66.8435 25.02 67.9402 24.3C68.9174 23.64 70.0141 23.14 71.2306 22.78C72.447 22.42 73.7432 22.24 75.159 22.24C77.1731 22.24 78.9479 22.52 80.5232 23.08C82.0986 23.64 83.4147 24.44 84.5315 25.48C85.6282 26.5 86.5056 27.76 87.1637 29.24C87.8018 30.72 88.2206 32.38 88.42 34.22H81.7596C81.6798 33.16 81.5004 32.2 81.2212 31.38C80.942 30.54 80.5432 29.84 80.0048 29.28C79.4863 28.7 78.8083 28.26 78.0306 27.98C77.2329 27.68 76.2957 27.54 75.179 27.54C74.5209 27.54 73.9027 27.62 73.3244 27.78C72.7461 27.94 72.2476 28.18 71.8089 28.5C71.1309 28.92 70.5526 29.52 70.074 30.26C69.5954 31 69.2165 31.86 68.9572 32.84C68.718 33.62 68.5584 34.46 68.4388 35.38C68.3391 36.3 68.2792 37.28 68.2792 38.3V43.2C68.2792 44.52 68.359 45.72 68.5185 46.8C68.6781 47.88 68.9174 48.86 69.2364 49.72C69.4757 50.36 69.7748 50.94 70.1138 51.48C70.4528 52 70.8716 52.46 71.3303 52.82C71.8487 53.2 72.4071 53.48 73.0253 53.68C73.6435 53.88 74.3614 53.98 75.159 53.98C76.1561 53.98 77.0534 53.86 77.8311 53.6C78.6089 53.34 79.2669 52.94 79.8253 52.4C80.3637 51.88 80.8024 51.2 81.1215 50.4C81.4405 49.6 81.64 48.64 81.7397 47.56H88.4001C88.2007 49.32 87.7819 50.92 87.1039 52.36Z" fill="#22033A"/>
<path d="M92.2093 39.6999C92.7876 38.0399 93.6451 36.6199 94.7618 35.3999C95.8586 34.1799 97.1946 33.2199 98.7899 32.5399C100.385 31.8399 102.2 31.4999 104.254 31.4999C106.308 31.4999 108.142 31.8399 109.738 32.5399C111.333 33.2399 112.689 34.1799 113.826 35.3999C114.922 36.6199 115.74 38.0599 116.318 39.6999C116.897 41.3599 117.176 43.1599 117.176 45.0999V45.6199C117.176 47.5799 116.877 49.3799 116.318 51.0399C115.74 52.6999 114.903 54.1199 113.826 55.3399C112.729 56.5599 111.373 57.4999 109.778 58.1799C108.182 58.8599 106.368 59.1999 104.314 59.1999C102.26 59.1999 100.425 58.8599 98.8099 58.1799C97.1946 57.4999 95.8586 56.5399 94.7618 55.3399C93.6451 54.1199 92.7876 52.6799 92.2093 51.0399C91.631 49.3799 91.3518 47.5799 91.3518 45.6199V45.0999C91.3518 43.1599 91.631 41.3599 92.2093 39.6999ZM98.2914 48.8999C98.5307 49.9199 98.9096 50.7999 99.4281 51.5599C99.9465 52.3399 100.605 52.9599 101.402 53.4199C102.22 53.8599 103.177 54.0799 104.294 54.0799C105.391 54.0799 106.328 53.8599 107.125 53.4199C107.923 52.9799 108.581 52.3599 109.08 51.5599C109.578 50.7999 109.937 49.9199 110.196 48.8999C110.436 47.8799 110.575 46.7799 110.575 45.6199V45.0999C110.575 43.9599 110.456 42.8999 110.196 41.8799C109.957 40.8599 109.578 39.9799 109.08 39.1999C108.561 38.4199 107.923 37.7999 107.125 37.3599C106.328 36.9199 105.371 36.6999 104.234 36.6999C103.137 36.6999 102.18 36.9199 101.382 37.3599C100.585 37.7999 99.9266 38.4199 99.4081 39.1999C98.8896 39.9799 98.5108 40.8599 98.2715 41.8799C98.0322 42.8999 97.8926 43.9599 97.8926 45.0999V45.6199C97.9325 46.7799 98.0521 47.8799 98.2914 48.8999Z" fill="#22033A"/>
<path d="M120.585 39.5999C121.084 37.9199 121.802 36.4799 122.719 35.2799C123.656 34.0799 124.793 33.1599 126.129 32.4999C127.465 31.8399 129.001 31.5199 130.696 31.5199C132.191 31.5199 133.507 31.7799 134.624 32.2799C135.741 32.7999 136.738 33.5199 137.615 34.4599V20.7999H144.216V58.6999H138.254L137.915 55.9199C137.057 56.9599 136.02 57.7599 134.824 58.3399C133.627 58.9199 132.231 59.1999 130.656 59.1999C128.981 59.1999 127.485 58.8599 126.149 58.1799C124.813 57.4999 123.676 56.5599 122.759 55.3599C121.822 54.1399 121.104 52.6999 120.605 51.0599C120.107 49.3999 119.848 47.6199 119.848 45.6999V45.1799C119.848 43.1199 120.087 41.2799 120.585 39.5999ZM126.747 48.8999C126.967 49.8999 127.306 50.7799 127.804 51.5399C128.263 52.2999 128.861 52.8799 129.619 53.3199C130.357 53.7399 131.274 53.9599 132.351 53.9599C133.667 53.9599 134.744 53.6799 135.581 53.1399C136.439 52.5999 137.117 51.8399 137.615 50.8999V39.7799C137.097 38.8399 136.419 38.0999 135.581 37.5599C134.724 37.0199 133.667 36.7399 132.391 36.7399C131.314 36.7399 130.397 36.9599 129.639 37.3999C128.881 37.8399 128.263 38.4399 127.784 39.1799C127.306 39.9599 126.967 40.8599 126.747 41.8599C126.528 42.8799 126.408 43.9799 126.408 45.1399V45.6599C126.428 46.8199 126.528 47.8999 126.747 48.8999Z" fill="#22033A"/>
<path d="M264.422 31.9999H271.581L262.109 45.1199L271.9 58.6999H264.701L258.081 49.6599L251.52 58.6999H244.281L254.073 45.1199L244.64 31.9999H251.799L258.041 40.6599L264.422 31.9999Z" fill="#22033A"/>
<path d="M209.923 52.8999V20.7999H197.1H190.679C188.506 20.7999 185.893 21.5999 184.537 23.1199C181.566 26.4199 181.766 31.3799 181.825 31.9999H174.507V37.5799H181.825V58.6999H188.466V37.5599H198.576V31.9999H188.466C188.346 30.7599 188.585 26.0799 192.155 26.0799L197.22 26.0599H203.242V52.9199H194.747V58.7199H218.039V52.9199H209.923V52.8999Z" fill="#22033A"/>
<path d="M172.832 39.2999C172.293 37.6799 171.496 36.2999 170.439 35.1399C169.362 33.9799 168.066 33.0999 166.53 32.4599C164.995 31.8199 163.22 31.4999 161.246 31.4999C159.391 31.4999 157.656 31.8399 156.041 32.4999C154.426 33.1599 153.03 34.0999 151.853 35.2999C150.657 36.5199 149.74 37.9599 149.062 39.6599C148.384 41.3399 148.045 43.2199 148.045 45.2999V46.2799C148.045 48.0999 148.384 49.7799 149.042 51.3599C149.7 52.9399 150.657 54.2999 151.873 55.4399C153.09 56.5999 154.565 57.5199 156.28 58.1999C157.995 58.8799 159.89 59.1999 161.984 59.1999C164.656 59.1999 166.949 58.6999 168.883 57.6799C170.818 56.6599 172.234 55.5399 173.131 54.2599L169.741 50.8799C168.903 51.9199 167.826 52.6999 166.53 53.2399C165.234 53.7799 163.838 54.0599 162.402 54.0599C161.346 54.0599 160.368 53.8999 159.511 53.5599C158.634 53.2399 157.856 52.7799 157.178 52.1799C156.54 51.5999 156.021 50.9599 155.642 50.2199C155.323 49.6199 155.084 48.8399 154.865 47.9599H173.689V47.3599V44.6399C173.649 42.7199 173.37 40.9399 172.832 39.2999ZM155.642 40.2799C156.001 39.5199 156.46 38.8799 156.998 38.3399C157.517 37.7999 158.135 37.3799 158.853 37.0999C159.551 36.8199 160.329 36.6799 161.166 36.6799C162.143 36.6799 162.981 36.8399 163.699 37.1399C164.417 37.4399 165.035 37.8599 165.553 38.3599C166.052 38.8799 166.431 39.4799 166.71 40.1799C166.989 40.8799 167.129 41.6199 167.129 42.3599V42.8599H154.825C155.024 41.8999 155.283 41.0399 155.642 40.2799Z" fill="#22033A"/>
<path d="M243.584 39.2999C243.045 37.6799 242.248 36.2999 241.191 35.1399C240.114 33.9799 238.818 33.0999 237.282 32.4599C235.747 31.8199 233.972 31.4999 231.998 31.4999C230.143 31.4999 228.408 31.8399 226.813 32.4999C225.198 33.1599 223.802 34.0999 222.625 35.2999C221.429 36.5199 220.492 37.9599 219.833 39.6599C219.155 41.3399 218.836 43.2199 218.836 45.2999V46.2799C218.836 48.0999 219.175 49.7799 219.833 51.3599C220.492 52.9399 221.429 54.2999 222.665 55.4399C223.882 56.5999 225.357 57.5199 227.072 58.1999C228.787 58.8799 230.682 59.1999 232.775 59.1999C235.448 59.1999 237.741 58.6999 239.675 57.6799C241.609 56.6599 243.025 55.5399 243.923 54.2599L240.533 50.8799C239.695 51.9199 238.618 52.6999 237.322 53.2399C236.026 53.7799 234.63 54.0599 233.194 54.0599C232.137 54.0599 231.18 53.8999 230.303 53.5599C229.425 53.2399 228.648 52.7799 227.97 52.1799C227.331 51.5999 226.813 50.9599 226.434 50.2199C226.115 49.6199 225.856 48.8399 225.656 47.9599H244.481V47.3599V44.6399C244.401 42.7199 244.122 40.9399 243.584 39.2999ZM226.394 40.2799C226.753 39.5199 227.212 38.8799 227.75 38.3399C228.269 37.7999 228.887 37.3799 229.605 37.0999C230.303 36.8199 231.08 36.6799 231.918 36.6799C232.895 36.6799 233.733 36.8399 234.45 37.1399C235.168 37.4399 235.787 37.8599 236.305 38.3599C236.804 38.8799 237.182 39.4799 237.462 40.1799C237.741 40.8799 237.88 41.6199 237.88 42.3599V42.8599H225.577C225.756 41.8999 226.035 41.0399 226.394 40.2799Z" fill="#22033A"/>
<path opacity="0.25" d="M43.3519 48.72L17.1889 40.28L14.1179 41.18L43.3519 48.72Z" fill="#22033A"/>
</g>
<defs>
<linearGradient id="paint0_linear_2423_18832" x1="12.1309" y1="41.7341" x2="40.2884" y2="-6.89304" gradientUnits="userSpaceOnUse">
<stop stop-color="#F9715D"/>
<stop offset="0.3673" stop-color="#F9715D"/>
<stop offset="0.3958" stop-color="#F97659"/>
<stop offset="0.6662" stop-color="#FCA235"/>
<stop offset="0.8767" stop-color="#FEBD1E"/>
<stop offset="1" stop-color="#FFC716"/>
</linearGradient>
<linearGradient id="paint1_linear_2423_18832" x1="-1.49938" y1="19.0963" x2="44.9915" y2="45.8591" gradientUnits="userSpaceOnUse">
<stop stop-color="#F55F66"/>
<stop offset="0.5042" stop-color="#F5437C"/>
<stop offset="1" stop-color="#9C478E"/>
</linearGradient>
<linearGradient id="paint2_linear_2423_18832" x1="8.67004" y1="75.0589" x2="24.9945" y2="40.1534" gradientUnits="userSpaceOnUse">
<stop stop-color="#00D9C6"/>
<stop offset="0.2327" stop-color="#00D9C6"/>
<stop offset="0.3903" stop-color="#1BC1BC"/>
<stop offset="0.7267" stop-color="#6084A4"/>
<stop offset="1" stop-color="#9C4F8E"/>
</linearGradient>
<clipPath id="clip0_2423_18832">
<rect width="272" height="80" fill="white"/>
</clipPath>
</defs>
</svg>
