<svg width="245" height="81" viewBox="0 0 245 81" fill="none" xmlns="http://www.w3.org/2000/svg">
<path d="M63.836 62.4808V0H59.8354V62.4808H63.836Z" fill="black"/>
<path d="M74.2772 41.7115C74.2772 54.2596 83.0611 63.5192 94.976 63.5192C106.891 63.5192 115.675 54.2596 115.675 41.7115C115.675 29.1635 106.891 19.9038 94.976 19.9038C83.0611 19.9038 74.2772 29.1635 74.2772 41.7115ZM78.3648 41.7115C78.3648 31.0673 85.2354 23.5385 94.976 23.5385C104.717 23.5385 111.587 31.0673 111.587 41.7115C111.587 52.3558 104.717 59.8846 94.976 59.8846C85.2354 59.8846 78.3648 52.3558 78.3648 41.7115Z" fill="black"/>
<path d="M122.603 40.4135C122.603 51.4038 129.648 60.9231 141.65 60.9231C149.216 60.9231 155.391 57.0289 158.261 50.3654V61.6154C158.261 71.0481 152.086 77.3654 142.867 77.3654C134.866 77.3654 129.213 73.125 127.648 65.8558H123.734C125.473 75.375 132.692 81 142.78 81C154.434 81 162.175 73.2115 162.175 61.6154V20.9423H158.957L158.435 30.6346C155.652 23.7115 149.825 19.9038 142.085 19.9038C129.735 19.9038 122.603 29.4231 122.603 40.4135ZM126.691 40.4135C126.691 31.3269 132.17 23.5385 142.085 23.5385C152.086 23.5385 157.565 30.7212 157.565 40.3269C157.565 50.1058 151.825 57.2885 141.911 57.2885C132.257 57.2885 126.691 49.5865 126.691 40.4135Z" fill="black"/>
<path d="M170.897 80.0481C172.636 80.3942 174.289 80.5673 176.55 80.5673C182.203 80.5673 186.03 78.0577 188.204 72.0865L206.728 20.9423H202.641L188.552 59.8846L173.854 20.9423H169.679L186.638 65.3365L184.551 70.9615C182.377 76.8462 178.202 76.8462 174.81 76.8462H170.897V80.0481Z" fill="black"/>
<path d="M214.213 62.4808L227.084 44.5673L240.13 62.4808H245L229.867 41.7115L245 20.9423H240.217L227.258 38.7692L214.3 20.9423H209.429L224.475 41.5385L209.342 62.4808H214.213Z" fill="black"/>
<path d="M0 0.464891L13.5809 8.26694V49.3526L0 41.5505V0.464891Z" fill="#3FA34D"/>
<path d="M36.2072 62.351H42.7893V49.8556H14.4566L36.2072 62.351Z" fill="#3FA34D"/>
<path d="M5.93126 53.0989L0 62.5049H7.36354L11.2748 56.1687L5.93126 53.0989Z" fill="#3FA34D"/>
<path d="M29.5804 34.3274L23.7466 43.5624L18.5805 40.5946L22.3852 34.3274H29.5804Z" fill="#3FA34D"/>
</svg>
