<svg width="276" height="67" viewBox="0 0 276 67" fill="none" xmlns="http://www.w3.org/2000/svg">
<path d="M1.28169 24.8022C2.40598 21.3594 4.38473 18.5507 7.21793 16.3763C10.0511 14.2018 13.5589 13.1146 17.7413 13.1146C21.2041 13.1146 24.2846 13.8847 26.9829 15.4249C29.6812 16.9199 31.7724 19.0943 33.2565 21.9483C34.7405 24.7569 35.4825 28.0865 35.4825 31.9371C35.4825 35.7877 34.7405 39.14 33.2565 41.9939C31.7724 44.8026 29.6812 46.977 26.9829 48.5172C24.2846 50.0122 21.2041 50.7596 17.7413 50.7596C13.5589 50.7596 10.0287 49.6724 7.15048 47.498C4.2723 45.3235 2.31603 42.5149 1.28169 39.072V50.284H0V0H1.28169V24.8022ZM34.1334 31.9371C34.1334 28.313 33.4588 25.1873 32.1097 22.5598C30.7605 19.8871 28.8492 17.8485 26.3758 16.4442C23.9473 15.0399 21.0692 14.3377 17.7413 14.3377C14.5933 14.3377 11.7601 15.0852 9.24165 16.5801C6.76822 18.0297 4.81196 20.0909 3.37287 22.7637C1.97875 25.3911 1.28169 28.449 1.28169 31.9371C1.28169 35.4253 1.97875 38.5057 3.37287 41.1785C4.81196 43.806 6.76822 45.8671 9.24165 47.3621C11.7601 48.8117 14.5933 49.5365 17.7413 49.5365C21.0692 49.5365 23.9473 48.8343 26.3758 47.43C28.8492 46.0257 30.7605 44.0098 32.1097 41.3824C33.4588 38.7096 34.1334 35.5612 34.1334 31.9371Z" fill="#1A7FBF"/>
<path d="M46.6062 0V50.284H45.257V0H46.6062Z" fill="#1A7FBF"/>
<path d="M88.0539 13.5903V50.284H86.7048V40.2951C85.8953 43.7833 84.1864 46.4334 81.578 48.2454C79.0146 50.0575 75.9566 50.9635 72.4038 50.9635C68.1315 50.9635 64.6238 49.6271 61.8805 46.9544C59.1372 44.2816 57.7656 40.2498 57.7656 34.859V13.5903H59.0473V34.9949C59.0473 39.7968 60.239 43.4662 62.6225 46.003C65.006 48.4946 68.2664 49.7404 72.4038 49.7404C76.7211 49.7404 80.1839 48.336 82.7923 45.5274C85.4006 42.6734 86.7048 38.4831 86.7048 32.9564V13.5903H88.0539Z" fill="#1A7FBF"/>
<path d="M115.392 49.5365C119.484 49.5365 122.924 48.4946 125.713 46.4108C128.501 44.3269 130.187 41.473 130.772 37.8489H132.121C131.491 41.6995 129.692 44.8252 126.724 47.2262C123.801 49.5818 120.024 50.7596 115.392 50.7596C112.019 50.7596 109.006 50.0122 106.352 48.5172C103.699 47.0223 101.608 44.8479 100.079 41.9939C98.5947 39.14 97.8526 35.7877 97.8526 31.9371C97.8526 28.0865 98.5947 24.7343 100.079 21.8803C101.608 19.0264 103.699 16.8519 106.352 15.357C109.006 13.8621 112.019 13.1146 115.392 13.1146C118.944 13.1146 121.98 13.8847 124.498 15.4249C127.017 16.9199 128.905 18.8678 130.165 21.2688C131.469 23.6697 132.121 26.2066 132.121 28.8793C132.121 30.5101 132.098 31.7333 132.053 32.5487H99.2018C99.2467 36.3087 100.011 39.4571 101.495 41.9939C103.024 44.5308 105.003 46.4334 107.432 47.7018C109.86 48.9249 112.513 49.5365 115.392 49.5365ZM115.392 14.3377C112.513 14.3377 109.86 14.9719 107.432 16.2404C105.003 17.4635 103.024 19.3435 101.495 21.8803C100.011 24.4172 99.2467 27.5656 99.2018 31.3256H130.907C131.132 27.5656 130.524 24.4172 129.085 21.8803C127.691 19.3435 125.757 17.4635 123.284 16.2404C120.856 14.9719 118.225 14.3377 115.392 14.3377Z" fill="#1A7FBF"/>
<path d="M140.581 24.2586C141.57 20.8611 143.504 18.0751 146.382 15.9006C149.306 13.6809 152.858 12.571 157.041 12.571C160.503 12.571 163.584 13.3411 166.282 14.8813C168.981 16.3763 171.072 18.5507 172.556 21.4047C174.04 24.2133 174.782 27.5429 174.782 31.3935C174.782 35.2441 174.04 38.5964 172.556 41.4503C171.072 44.259 168.981 46.4334 166.282 47.9736C163.584 49.4686 160.503 50.216 157.041 50.216C152.858 50.216 149.306 49.1288 146.382 46.9544C143.504 44.7346 141.57 41.926 140.581 38.5284V67H139.299V13.0467H140.581V24.2586ZM173.433 31.3935C173.433 27.7694 172.758 24.6437 171.409 22.0162C170.06 19.3435 168.149 17.3049 165.675 15.9006C163.247 14.4963 160.369 13.7941 157.041 13.7941C153.893 13.7941 151.059 14.5416 148.541 16.0365C146.068 17.4861 144.111 19.5473 142.672 22.2201C141.278 24.8475 140.581 27.9053 140.581 31.3935C140.581 34.8817 141.278 37.9621 142.672 40.6349C144.111 43.2623 146.068 45.3235 148.541 46.8185C151.059 48.2681 153.893 48.9929 157.041 48.9929C160.369 48.9929 163.247 48.2907 165.675 46.8864C168.149 45.4821 170.06 43.4662 171.409 40.8387C172.758 38.166 173.433 35.0176 173.433 31.3935Z" fill="black"/>
<path d="M185.906 21.9483C187.345 15.4703 192.134 12.2312 200.274 12.2312V13.7262H199.667C195.844 13.7262 192.584 14.8587 189.885 17.1237C187.232 19.3435 185.906 22.9449 185.906 27.928V49.7404H184.556V13.0467H185.906V21.9483Z" fill="black"/>
<path d="M208.024 3.66937C207.529 3.66937 207.102 3.51082 206.742 3.19371C206.428 2.83131 206.27 2.3783 206.27 1.83469C206.27 1.29108 206.428 0.860719 206.742 0.543612C207.102 0.181204 207.529 0 208.024 0C208.519 0 208.924 0.181204 209.238 0.543612C209.598 0.860719 209.778 1.29108 209.778 1.83469C209.778 2.3783 209.598 2.83131 209.238 3.19371C208.924 3.51082 208.519 3.66937 208.024 3.66937ZM208.699 13.0467V49.7404H207.35V13.0467H208.699Z" fill="black"/>
<path d="M235.846 12.2312C240.118 12.2312 243.626 13.5676 246.369 16.2404C249.112 18.9131 250.484 22.9449 250.484 28.3357V49.7404H249.202V28.1998C249.202 23.3979 248.01 19.7512 245.627 17.2596C243.243 14.7228 239.983 13.4544 235.846 13.4544C231.528 13.4544 228.065 14.8813 225.457 17.7353C222.849 20.544 221.545 24.7116 221.545 30.2383V49.7404H220.195V13.0467H221.545V22.6957C222.399 19.2982 224.108 16.716 226.671 14.9493C229.235 13.1373 232.293 12.2312 235.846 12.2312Z" fill="black"/>
<path d="M264.532 14.4057V40.0913C264.532 42.311 264.78 44.0098 265.274 45.1876C265.769 46.3655 266.556 47.2035 267.635 47.7018C268.715 48.1548 270.221 48.3813 272.155 48.3813H276V49.7404H272.02C268.872 49.7404 266.601 49.0156 265.207 47.5659C263.858 46.1163 263.183 43.6247 263.183 40.0913V14.4057H257.247V13.0467H263.183V3.66937H264.532V13.0467H276V14.4057H264.532Z" fill="black"/>
</svg>
