<svg width="618" height="737" viewBox="0 0 618 737" fill="none" xmlns="http://www.w3.org/2000/svg">
<rect width="618" height="737" rx="20" fill="url(#paint0_linear_3470_28399)"/>
<line x1="13.5355" y1="11" x2="289" y2="286.464" stroke="white" stroke-width="5" stroke-linecap="round"/>
<line x1="135.536" y1="440" x2="361" y2="665.464" stroke="white" stroke-width="5" stroke-linecap="round"/>
<line x1="289" y1="286.536" x2="135.536" y2="440" stroke="white" stroke-width="5" stroke-linecap="round"/>
<path d="M402.4 666.5C402.4 674.11 400.527 681.114 396.783 687.53C393.034 693.954 387.954 699.034 381.53 702.783C375.114 706.527 368.11 708.4 360.5 708.4C352.89 708.4 345.887 706.527 339.47 702.783C333.046 699.034 327.966 693.954 324.217 687.53C320.473 681.114 318.6 674.11 318.6 666.5C318.6 658.89 320.473 651.886 324.217 645.47C327.966 639.046 333.046 633.966 339.47 630.217C345.887 626.473 352.89 624.6 360.5 624.6C368.11 624.6 375.114 626.473 381.53 630.217C387.954 633.966 393.034 639.046 396.783 645.47C400.527 651.886 402.4 658.89 402.4 666.5Z" stroke="white" stroke-width="2"/>
<path d="M388.6 667C388.6 672.016 387.366 676.627 384.901 680.852C382.43 685.085 379.085 688.43 374.852 690.901C370.626 693.366 366.016 694.6 361 694.6C355.984 694.6 351.373 693.366 347.148 690.901C342.915 688.43 339.57 685.085 337.099 680.852C334.634 676.627 333.4 672.016 333.4 667C333.4 661.984 334.634 657.373 337.099 653.148C339.57 648.915 342.915 645.57 347.148 643.099C351.373 640.634 355.984 639.4 361 639.4C366.016 639.4 370.626 640.634 374.852 643.099C379.085 645.57 382.43 648.915 384.901 653.148C387.366 657.373 388.6 661.984 388.6 667Z" stroke="white" stroke-width="2"/>
<path d="M373.8 666.5C373.8 668.921 373.206 671.14 372.018 673.174C370.827 675.216 369.216 676.827 367.174 678.018C365.14 679.206 362.921 679.8 360.5 679.8C358.078 679.8 355.86 679.206 353.826 678.018C351.784 676.827 350.173 675.216 348.981 673.174C347.794 671.14 347.2 668.921 347.2 666.5C347.2 664.078 347.794 661.86 348.981 659.826C350.173 657.784 351.784 656.173 353.826 654.981C355.86 653.794 358.078 653.2 360.5 653.2C362.921 653.2 365.14 653.794 367.174 654.981C369.216 656.173 370.827 657.784 372.018 659.826C373.206 661.86 373.8 664.078 373.8 666.5Z" stroke="white" stroke-width="2"/>
<defs>
<linearGradient id="paint0_linear_3470_28399" x1="309" y1="737" x2="309" y2="0" gradientUnits="userSpaceOnUse">
<stop stop-color="#1A7FBF"/>
<stop offset="1" stop-color="#1A7FBF" stop-opacity="0.1"/>
</linearGradient>
</defs>
</svg>
